<svg width="158" height="134" viewBox="0 0 158 134" fill="none" xmlns="http://www.w3.org/2000/svg">
<g filter="url(#filter0_bd_39_10213)">
<mask id="path-1-inside-1_39_10213" fill="white">
<path fill-rule="evenodd" clip-rule="evenodd" d="M94.5857 55.278C94.6056 55.2782 94.6256 55.2783 94.6456 55.2783C97.4908 55.2783 99.7973 52.9718 99.7973 50.1266C99.7973 47.2814 97.4908 44.9749 94.6456 44.9749C94.6256 44.9749 94.6056 44.975 94.5857 44.9753V44.9749H93.2548C93.3029 44.6224 93.3277 44.2624 93.3277 43.8966C93.3277 39.5296 89.7875 35.9894 85.4204 35.9894C81.0534 35.9894 77.5132 39.5296 77.5132 43.8966C77.5132 44.3087 77.5447 44.7134 77.6055 45.1085C77.2294 45.0211 76.8375 44.9749 76.4349 44.9749C73.5897 44.9749 71.2832 47.2814 71.2832 50.1266C71.2832 52.9718 73.5897 55.2783 76.4349 55.2783C76.455 55.2783 76.4751 55.2782 76.4951 55.278L76.4948 55.2783H94.5857V55.278Z"/>
</mask>
<path fill-rule="evenodd" clip-rule="evenodd" d="M94.5857 55.278C94.6056 55.2782 94.6256 55.2783 94.6456 55.2783C97.4908 55.2783 99.7973 52.9718 99.7973 50.1266C99.7973 47.2814 97.4908 44.9749 94.6456 44.9749C94.6256 44.9749 94.6056 44.975 94.5857 44.9753V44.9749H93.2548C93.3029 44.6224 93.3277 44.2624 93.3277 43.8966C93.3277 39.5296 89.7875 35.9894 85.4204 35.9894C81.0534 35.9894 77.5132 39.5296 77.5132 43.8966C77.5132 44.3087 77.5447 44.7134 77.6055 45.1085C77.2294 45.0211 76.8375 44.9749 76.4349 44.9749C73.5897 44.9749 71.2832 47.2814 71.2832 50.1266C71.2832 52.9718 73.5897 55.2783 76.4349 55.2783C76.455 55.2783 76.4751 55.2782 76.4951 55.278L76.4948 55.2783H94.5857V55.278Z" fill="url(#paint0_linear_39_10213)" shape-rendering="crispEdges"/>
<path d="M94.5857 55.278L94.6085 53.2781C94.0741 53.272 93.5596 53.48 93.1795 53.8557C92.7995 54.2314 92.5857 54.7436 92.5857 55.278H94.5857ZM94.5857 44.9753H92.5857C92.5857 45.5096 92.7995 46.0218 93.1795 46.3975C93.5596 46.7732 94.0741 46.9812 94.6085 46.9751L94.5857 44.9753ZM94.5857 44.9749H96.5857C96.5857 43.8703 95.6903 42.9749 94.5857 42.9749V44.9749ZM93.2548 44.9749L91.2731 44.7047C91.1951 45.277 91.3683 45.855 91.7481 46.2901C92.1279 46.7252 92.6772 46.9749 93.2548 46.9749V44.9749ZM77.6055 45.1085L77.1528 47.0566C77.7994 47.2068 78.4784 47.0265 78.9651 46.5752C79.4519 46.1239 79.6831 45.4605 79.5822 44.8045L77.6055 45.1085ZM76.4951 55.278L78.0642 56.518C78.5422 55.9133 78.63 55.0877 78.2901 54.396C77.9502 53.7042 77.243 53.2693 76.4722 53.2781L76.4951 55.278ZM76.4948 55.2783L74.9257 54.0383C74.4503 54.6398 74.3606 55.4601 74.6948 56.1501C75.029 56.8401 75.7282 57.2783 76.4948 57.2783V55.2783ZM94.5857 55.2783V57.2783C95.6903 57.2783 96.5857 56.3829 96.5857 55.2783H94.5857ZM94.5629 57.2778C94.5904 57.2782 94.618 57.2783 94.6456 57.2783V53.2783C94.6332 53.2783 94.6208 53.2782 94.6085 53.2781L94.5629 57.2778ZM94.6456 57.2783C98.5954 57.2783 101.797 54.0764 101.797 50.1266H97.7973C97.7973 51.8673 96.3862 53.2783 94.6456 53.2783V57.2783ZM101.797 50.1266C101.797 46.1768 98.5954 42.9749 94.6456 42.9749V46.9749C96.3862 46.9749 97.7973 48.386 97.7973 50.1266H101.797ZM94.6456 42.9749C94.618 42.9749 94.5904 42.9751 94.5629 42.9754L94.6085 46.9751C94.6208 46.975 94.6332 46.9749 94.6456 46.9749V42.9749ZM92.5857 44.9749V44.9753H96.5857V44.9749H92.5857ZM93.2548 46.9749H94.5857V42.9749H93.2548V46.9749ZM95.2365 45.2451C95.2967 44.8033 95.3277 44.353 95.3277 43.8966H91.3277C91.3277 44.1718 91.309 44.4414 91.2731 44.7047L95.2365 45.2451ZM95.3277 43.8966C95.3277 38.425 90.8921 33.9894 85.4204 33.9894V37.9894C88.6829 37.9894 91.3277 40.6342 91.3277 43.8966H95.3277ZM85.4204 33.9894C79.9488 33.9894 75.5132 38.425 75.5132 43.8966H79.5132C79.5132 40.6342 82.1579 37.9894 85.4204 37.9894V33.9894ZM75.5132 43.8966C75.5132 44.4108 75.5525 44.9172 75.6287 45.4125L79.5822 44.8045C79.5369 44.5096 79.5132 44.2066 79.5132 43.8966H75.5132ZM78.0581 43.1604C77.5347 43.0388 76.991 42.9749 76.4349 42.9749V46.9749C76.6841 46.9749 76.9241 47.0034 77.1528 47.0566L78.0581 43.1604ZM76.4349 42.9749C72.4851 42.9749 69.2832 46.1768 69.2832 50.1266H73.2832C73.2832 48.386 74.6943 46.9749 76.4349 46.9749V42.9749ZM69.2832 50.1266C69.2832 54.0764 72.4851 57.2783 76.4349 57.2783V53.2783C74.6943 53.2783 73.2832 51.8673 73.2832 50.1266H69.2832ZM76.4349 57.2783C76.4626 57.2783 76.4903 57.2782 76.5179 57.2778L76.4722 53.2781C76.4598 53.2782 76.4474 53.2783 76.4349 53.2783V57.2783ZM78.064 56.5184L78.0642 56.518L74.9259 54.0379L74.9257 54.0383L78.064 56.5184ZM94.5857 53.2783H76.4948V57.2783H94.5857V53.2783ZM92.5857 55.278V55.2783H96.5857V55.278H92.5857Z" fill="url(#paint1_linear_39_10213)" mask="url(#path-1-inside-1_39_10213)"/>
</g>
<g filter="url(#filter1_bd_39_10213)">
<mask id="path-3-inside-2_39_10213" fill="white">
<path fill-rule="evenodd" clip-rule="evenodd" d="M110.158 68.4817C110.186 68.482 110.214 68.4821 110.241 68.4821C114.178 68.4821 117.37 65.2906 117.37 61.3536C117.37 57.4166 114.178 54.2251 110.241 54.2251C110.214 54.2251 110.186 54.2253 110.158 54.2256V54.2251H108.317C108.383 53.7373 108.418 53.2392 108.418 52.7331C108.418 46.6903 103.519 41.7916 97.4763 41.7916C91.4335 41.7916 86.5348 46.6903 86.5348 52.7331C86.5348 53.3033 86.5785 53.8633 86.6625 54.4099C86.1422 54.289 85.6 54.2251 85.0428 54.2251C81.1059 54.2251 77.9143 57.4166 77.9143 61.3536C77.9143 65.2906 81.1059 68.4821 85.0428 68.4821C85.0706 68.4821 85.0984 68.482 85.1261 68.4817L85.1257 68.4821H110.158V68.4817Z"/>
</mask>
<path fill-rule="evenodd" clip-rule="evenodd" d="M110.158 68.4817C110.186 68.482 110.214 68.4821 110.241 68.4821C114.178 68.4821 117.37 65.2906 117.37 61.3536C117.37 57.4166 114.178 54.2251 110.241 54.2251C110.214 54.2251 110.186 54.2253 110.158 54.2256V54.2251H108.317C108.383 53.7373 108.418 53.2392 108.418 52.7331C108.418 46.6903 103.519 41.7916 97.4763 41.7916C91.4335 41.7916 86.5348 46.6903 86.5348 52.7331C86.5348 53.3033 86.5785 53.8633 86.6625 54.4099C86.1422 54.289 85.6 54.2251 85.0428 54.2251C81.1059 54.2251 77.9143 57.4166 77.9143 61.3536C77.9143 65.2906 81.1059 68.4821 85.0428 68.4821C85.0706 68.4821 85.0984 68.482 85.1261 68.4817L85.1257 68.4821H110.158V68.4817Z" fill="url(#paint2_linear_39_10213)" shape-rendering="crispEdges"/>
<path d="M110.158 68.4817L110.181 66.4818C109.647 66.4757 109.132 66.6837 108.752 67.0594C108.372 67.4351 108.158 67.9473 108.158 68.4817H110.158ZM110.158 54.2256H108.158C108.158 54.76 108.372 55.2721 108.752 55.6478C109.132 56.0235 109.647 56.2315 110.181 56.2254L110.158 54.2256ZM110.158 54.2251H112.158C112.158 53.1205 111.263 52.2251 110.158 52.2251V54.2251ZM108.317 54.2251L106.335 53.9549C106.257 54.5272 106.43 55.1052 106.81 55.5403C107.19 55.9754 107.739 56.2251 108.317 56.2251V54.2251ZM86.6625 54.4099L86.2099 56.358C86.8565 56.5082 87.5354 56.3279 88.0222 55.8766C88.509 55.4253 88.7402 54.762 88.6393 54.1059L86.6625 54.4099ZM85.1261 68.4817L86.697 69.7195C87.1737 69.1145 87.2607 68.2895 86.9205 67.5984C86.5803 66.9073 85.8735 66.473 85.1032 66.4818L85.1261 68.4817ZM85.1257 68.4821L83.5548 67.2443C83.0806 67.846 82.9919 68.6658 83.3263 69.3551C83.6607 70.0445 84.3596 70.4821 85.1257 70.4821V68.4821ZM110.158 68.4821V70.4821C111.263 70.4821 112.158 69.5867 112.158 68.4821H110.158ZM110.136 70.4815C110.171 70.4819 110.206 70.4821 110.241 70.4821V66.4821C110.221 66.4821 110.201 66.482 110.181 66.4818L110.136 70.4815ZM110.241 70.4821C115.283 70.4821 119.37 66.3952 119.37 61.3536H115.37C115.37 64.186 113.074 66.4821 110.241 66.4821V70.4821ZM119.37 61.3536C119.37 56.3121 115.283 52.2251 110.241 52.2251V56.2251C113.074 56.2251 115.37 58.5212 115.37 61.3536H119.37ZM110.241 52.2251C110.206 52.2251 110.171 52.2253 110.136 52.2257L110.181 56.2254C110.201 56.2252 110.221 56.2251 110.241 56.2251V52.2251ZM108.158 54.2251V54.2256H112.158V54.2251H108.158ZM108.317 56.2251H110.158V52.2251H108.317V56.2251ZM110.299 54.4953C110.377 53.9182 110.418 53.3298 110.418 52.7331H106.418C106.418 53.1485 106.39 53.5563 106.335 53.9549L110.299 54.4953ZM110.418 52.7331C110.418 45.5857 104.624 39.7916 97.4763 39.7916V43.7916C102.415 43.7916 106.418 47.7949 106.418 52.7331H110.418ZM97.4763 39.7916C90.3289 39.7916 84.5348 45.5857 84.5348 52.7331H88.5348C88.5348 47.7949 92.5381 43.7916 97.4763 43.7916V39.7916ZM84.5348 52.7331C84.5348 53.4054 84.5863 54.067 84.6858 54.7139L88.6393 54.1059C88.5706 53.6595 88.5348 53.2011 88.5348 52.7331H84.5348ZM87.1152 52.4618C86.4475 52.3067 85.7534 52.2251 85.0428 52.2251V56.2251C85.4465 56.2251 85.8369 56.2714 86.2099 56.358L87.1152 52.4618ZM85.0428 52.2251C80.0013 52.2251 75.9143 56.3121 75.9143 61.3536H79.9143C79.9143 58.5212 82.2104 56.2251 85.0428 56.2251V52.2251ZM75.9143 61.3536C75.9143 66.3952 80.0013 70.4821 85.0428 70.4821V66.4821C82.2104 66.4821 79.9143 64.186 79.9143 61.3536H75.9143ZM85.0428 70.4821C85.0783 70.4821 85.1137 70.4819 85.1489 70.4815L85.1032 66.4818C85.0831 66.482 85.0629 66.4821 85.0428 66.4821V70.4821ZM86.6966 69.72L86.697 69.7195L83.5552 67.2438L83.5548 67.2443L86.6966 69.72ZM110.158 66.4821H85.1257V70.4821H110.158V66.4821ZM108.158 68.4817V68.4821H112.158V68.4817H108.158Z" fill="url(#paint3_linear_39_10213)" mask="url(#path-3-inside-2_39_10213)"/>
</g>
<g filter="url(#filter2_bd_39_10213)">
<mask id="path-5-inside-3_39_10213" fill="white">
<path fill-rule="evenodd" clip-rule="evenodd" d="M123.1 61.0802C123.12 61.0805 123.14 61.0806 123.16 61.0806C126.005 61.0806 128.311 58.7741 128.311 55.9289C128.311 53.0837 126.005 50.7772 123.16 50.7772C123.14 50.7772 123.12 50.7773 123.1 50.7775V50.7772H121.769C121.817 50.4246 121.842 50.0646 121.842 49.6989C121.842 45.3318 118.302 41.7916 113.935 41.7916C109.568 41.7916 106.027 45.3318 106.027 49.6989C106.027 50.111 106.059 50.5157 106.12 50.9107C105.744 50.8233 105.352 50.7772 104.949 50.7772C102.104 50.7772 99.7974 53.0837 99.7974 55.9289C99.7974 58.7741 102.104 61.0806 104.949 61.0806C104.969 61.0806 104.989 61.0804 105.009 61.0802L105.009 61.0806H123.1V61.0802Z"/>
</mask>
<path fill-rule="evenodd" clip-rule="evenodd" d="M123.1 61.0802C123.12 61.0805 123.14 61.0806 123.16 61.0806C126.005 61.0806 128.311 58.7741 128.311 55.9289C128.311 53.0837 126.005 50.7772 123.16 50.7772C123.14 50.7772 123.12 50.7773 123.1 50.7775V50.7772H121.769C121.817 50.4246 121.842 50.0646 121.842 49.6989C121.842 45.3318 118.302 41.7916 113.935 41.7916C109.568 41.7916 106.027 45.3318 106.027 49.6989C106.027 50.111 106.059 50.5157 106.12 50.9107C105.744 50.8233 105.352 50.7772 104.949 50.7772C102.104 50.7772 99.7974 53.0837 99.7974 55.9289C99.7974 58.7741 102.104 61.0806 104.949 61.0806C104.969 61.0806 104.989 61.0804 105.009 61.0802L105.009 61.0806H123.1V61.0802Z" fill="url(#paint4_linear_39_10213)" shape-rendering="crispEdges"/>
<path d="M123.1 61.0802L123.123 59.0804C122.588 59.0743 122.074 59.2823 121.694 59.658C121.314 60.0337 121.1 60.5458 121.1 61.0802H123.1ZM123.1 50.7775H121.1C121.1 51.3119 121.314 51.824 121.694 52.1997C122.074 52.5754 122.588 52.7834 123.123 52.7774L123.1 50.7775ZM123.1 50.7772H125.1C125.1 49.6726 124.204 48.7772 123.1 48.7772V50.7772ZM121.769 50.7772L119.787 50.507C119.709 51.0792 119.882 51.6573 120.262 52.0924C120.642 52.5275 121.191 52.7772 121.769 52.7772V50.7772ZM106.12 50.9107L105.667 52.8588C106.314 53.009 106.993 52.8287 107.479 52.3774C107.966 51.9262 108.197 51.2628 108.096 50.6067L106.12 50.9107ZM105.009 61.0802L106.582 62.3161C107.057 61.7108 107.143 60.8862 106.803 60.1958C106.463 59.5053 105.756 59.0716 104.986 59.0804L105.009 61.0802ZM105.009 61.0806L103.436 59.8447C102.963 60.4467 102.875 61.2661 103.21 61.9547C103.545 62.6434 104.243 63.0806 105.009 63.0806V61.0806ZM123.1 61.0806V63.0806C124.204 63.0806 125.1 62.1851 125.1 61.0806H123.1ZM123.077 63.0801C123.105 63.0804 123.132 63.0806 123.16 63.0806V59.0806C123.147 59.0806 123.135 59.0805 123.123 59.0804L123.077 63.0801ZM123.16 63.0806C127.11 63.0806 130.311 59.8786 130.311 55.9289H126.311C126.311 57.6695 124.9 59.0806 123.16 59.0806V63.0806ZM130.311 55.9289C130.311 51.9791 127.11 48.7772 123.16 48.7772V52.7772C124.9 52.7772 126.311 54.1882 126.311 55.9289H130.311ZM123.16 48.7772C123.132 48.7772 123.105 48.7773 123.077 48.7776L123.123 52.7774C123.135 52.7772 123.147 52.7772 123.16 52.7772V48.7772ZM121.1 50.7772V50.7775H125.1V50.7772H121.1ZM121.769 52.7772H123.1V48.7772H121.769V52.7772ZM123.751 51.0474C123.811 50.6055 123.842 50.1553 123.842 49.6989H119.842C119.842 49.974 119.823 50.2437 119.787 50.507L123.751 51.0474ZM123.842 49.6989C123.842 44.2273 119.406 39.7916 113.935 39.7916V43.7916C117.197 43.7916 119.842 46.4364 119.842 49.6989H123.842ZM113.935 39.7916C108.463 39.7916 104.027 44.2273 104.027 49.6989H108.027C108.027 46.4364 110.672 43.7916 113.935 43.7916V39.7916ZM104.027 49.6989C104.027 50.2131 104.067 50.7194 104.143 51.2147L108.096 50.6067C108.051 50.3119 108.027 50.0088 108.027 49.6989H104.027ZM106.572 48.9626C106.049 48.841 105.505 48.7772 104.949 48.7772V52.7772C105.198 52.7772 105.438 52.8057 105.667 52.8588L106.572 48.9626ZM104.949 48.7772C100.999 48.7772 97.7974 51.9791 97.7974 55.9289H101.797C101.797 54.1882 103.208 52.7772 104.949 52.7772V48.7772ZM97.7974 55.9289C97.7974 59.8786 100.999 63.0806 104.949 63.0806V59.0806C103.208 59.0806 101.797 57.6695 101.797 55.9289H97.7974ZM104.949 63.0806C104.977 63.0806 105.005 63.0804 105.032 63.0801L104.986 59.0804C104.974 59.0805 104.961 59.0806 104.949 59.0806V63.0806ZM106.581 62.3164L106.582 62.3161L103.437 59.8444L103.436 59.8447L106.581 62.3164ZM123.1 59.0806H105.009V63.0806H123.1V59.0806ZM121.1 61.0802V61.0806H125.1V61.0802H121.1Z" fill="url(#paint5_linear_39_10213)" mask="url(#path-5-inside-3_39_10213)"/>
</g>
<defs>
<filter id="filter0_bd_39_10213" x="0.283203" y="0.98938" width="128.514" height="119.289" filterUnits="userSpaceOnUse" color-interpolation-filters="sRGB">
<feFlood flood-opacity="0" result="BackgroundImageFix"/>
<feGaussianBlur in="BackgroundImageFix" stdDeviation="7"/>
<feComposite in2="SourceAlpha" operator="in" result="effect1_backgroundBlur_39_10213"/>
<feColorMatrix in="SourceAlpha" type="matrix" values="0 0 0 0 0 0 0 0 0 0 0 0 0 0 0 0 0 0 127 0" result="hardAlpha"/>
<feOffset dx="-21" dy="15"/>
<feGaussianBlur stdDeviation="25"/>
<feComposite in2="hardAlpha" operator="out"/>
<feColorMatrix type="matrix" values="0 0 0 0 0.113438 0 0 0 0 0.148981 0 0 0 0 0.275 0 0 0 0.25 0"/>
<feBlend mode="normal" in2="effect1_backgroundBlur_39_10213" result="effect2_dropShadow_39_10213"/>
<feBlend mode="normal" in="SourceGraphic" in2="effect2_dropShadow_39_10213" result="shape"/>
</filter>
<filter id="filter1_bd_39_10213" x="6.91431" y="6.79163" width="139.456" height="126.691" filterUnits="userSpaceOnUse" color-interpolation-filters="sRGB">
<feFlood flood-opacity="0" result="BackgroundImageFix"/>
<feGaussianBlur in="BackgroundImageFix" stdDeviation="7"/>
<feComposite in2="SourceAlpha" operator="in" result="effect1_backgroundBlur_39_10213"/>
<feColorMatrix in="SourceAlpha" type="matrix" values="0 0 0 0 0 0 0 0 0 0 0 0 0 0 0 0 0 0 127 0" result="hardAlpha"/>
<feOffset dx="-21" dy="15"/>
<feGaussianBlur stdDeviation="25"/>
<feComposite in2="hardAlpha" operator="out"/>
<feColorMatrix type="matrix" values="0 0 0 0 0.113725 0 0 0 0 0.14902 0 0 0 0 0.27451 0 0 0 0.25 0"/>
<feBlend mode="normal" in2="effect1_backgroundBlur_39_10213" result="effect2_dropShadow_39_10213"/>
<feBlend mode="normal" in="SourceGraphic" in2="effect2_dropShadow_39_10213" result="shape"/>
</filter>
<filter id="filter2_bd_39_10213" x="28.7974" y="6.79163" width="128.514" height="119.289" filterUnits="userSpaceOnUse" color-interpolation-filters="sRGB">
<feFlood flood-opacity="0" result="BackgroundImageFix"/>
<feGaussianBlur in="BackgroundImageFix" stdDeviation="7"/>
<feComposite in2="SourceAlpha" operator="in" result="effect1_backgroundBlur_39_10213"/>
<feColorMatrix in="SourceAlpha" type="matrix" values="0 0 0 0 0 0 0 0 0 0 0 0 0 0 0 0 0 0 127 0" result="hardAlpha"/>
<feOffset dx="-21" dy="15"/>
<feGaussianBlur stdDeviation="25"/>
<feComposite in2="hardAlpha" operator="out"/>
<feColorMatrix type="matrix" values="0 0 0 0 0.113438 0 0 0 0 0.148981 0 0 0 0 0.275 0 0 0 0.25 0"/>
<feBlend mode="normal" in2="effect1_backgroundBlur_39_10213" result="effect2_dropShadow_39_10213"/>
<feBlend mode="normal" in="SourceGraphic" in2="effect2_dropShadow_39_10213" result="shape"/>
</filter>
<linearGradient id="paint0_linear_39_10213" x1="86.8665" y1="36.5696" x2="86.8665" y2="57.4578" gradientUnits="userSpaceOnUse">
<stop stop-color="white"/>
<stop offset="1" stop-color="white" stop-opacity="0"/>
</linearGradient>
<linearGradient id="paint1_linear_39_10213" x1="85.5402" y1="35.9894" x2="85.5402" y2="55.2783" gradientUnits="userSpaceOnUse">
<stop stop-color="white"/>
<stop offset="1" stop-color="white" stop-opacity="0"/>
</linearGradient>
<linearGradient id="paint2_linear_39_10213" x1="97.6421" y1="33.254" x2="97.6421" y2="72.2122" gradientUnits="userSpaceOnUse">
<stop stop-color="white"/>
<stop offset="1" stop-color="white" stop-opacity="0"/>
</linearGradient>
<linearGradient id="paint3_linear_39_10213" x1="97.6421" y1="41.7916" x2="97.6421" y2="68.4821" gradientUnits="userSpaceOnUse">
<stop stop-color="white"/>
<stop offset="1" stop-color="white" stop-opacity="0"/>
</linearGradient>
<linearGradient id="paint4_linear_39_10213" x1="115.381" y1="42.3719" x2="115.381" y2="63.2601" gradientUnits="userSpaceOnUse">
<stop stop-color="white"/>
<stop offset="1" stop-color="white" stop-opacity="0"/>
</linearGradient>
<linearGradient id="paint5_linear_39_10213" x1="114.054" y1="41.7916" x2="114.054" y2="61.0806" gradientUnits="userSpaceOnUse">
<stop stop-color="white"/>
<stop offset="1" stop-color="white" stop-opacity="0"/>
</linearGradient>
</defs>
</svg>
