<svg width="155" height="158" viewBox="0 0 155 158" fill="none" xmlns="http://www.w3.org/2000/svg">
<g filter="url(#filter0_f_39_10211)">
<circle cx="100.428" cy="54.5888" r="10.1126" fill="#FFC701" fill-opacity="0.5"/>
</g>
<circle cx="100.428" cy="54.9203" r="8.281" fill="url(#paint0_linear_39_10211)" stroke="url(#paint1_linear_39_10211)" stroke-width="3"/>
<mask id="mask0_39_10211" style="mask-type:alpha" maskUnits="userSpaceOnUse" x="90" y="50" width="21" height="15">
<path d="M110.209 54.9203C110.209 60.3222 105.83 64.7013 100.428 64.7013C95.0266 64.7013 90.6475 60.3222 90.6475 54.9203C90.6475 49.5184 94.2806 50.7758 99.6824 50.7758C105.084 50.7758 110.209 49.5184 110.209 54.9203Z" fill="url(#paint2_linear_39_10211)"/>
</mask>
<g mask="url(#mask0_39_10211)">
<g filter="url(#filter1_f_39_10211)">
<path fill-rule="evenodd" clip-rule="evenodd" d="M108.137 79.9525C108.165 79.9528 108.192 79.953 108.22 79.953C112.157 79.953 115.349 76.7614 115.349 72.8245C115.349 68.8875 112.157 65.6959 108.22 65.6959C108.192 65.6959 108.165 65.6961 108.137 65.6964V65.6959H103.593C103.692 65.1029 103.744 64.4937 103.744 63.8724C103.744 57.8296 98.8454 52.9309 92.8026 52.9309C86.7598 52.9309 81.8611 57.8296 81.8611 63.8724C81.8611 64.5179 81.917 65.1503 82.0243 65.7652C78.5594 66.2502 75.8931 69.226 75.8931 72.8245C75.8931 76.7614 79.0846 79.953 83.0216 79.953C83.0494 79.953 83.0771 79.9528 83.1049 79.9525L83.1045 79.953H108.137V79.9525Z" fill="#E18700"/>
</g>
</g>
<g filter="url(#filter2_bd_39_10211)">
<mask id="path-5-inside-1_39_10211" fill="white">
<path fill-rule="evenodd" clip-rule="evenodd" d="M103.993 80.7815C104.02 80.7818 104.048 80.7819 104.076 80.7819C108.013 80.7819 111.204 77.5904 111.204 73.6534C111.204 69.7164 108.013 66.5249 104.076 66.5249C104.048 66.5249 104.02 66.5251 103.993 66.5254V66.5249H102.151C102.218 66.0371 102.252 65.539 102.252 65.0329C102.252 58.9901 97.3533 54.0914 91.3105 54.0914C85.2677 54.0914 80.3691 58.9901 80.3691 65.0329C80.3691 65.6031 80.4127 66.1631 80.4968 66.7097C79.9764 66.5888 79.4342 66.5249 78.8771 66.5249C74.9401 66.5249 71.7485 69.7164 71.7485 73.6534C71.7485 77.5904 74.9401 80.7819 78.8771 80.7819C78.9048 80.7819 78.9326 80.7818 78.9603 80.7815L78.9599 80.7819H103.993V80.7815Z"/>
</mask>
<path fill-rule="evenodd" clip-rule="evenodd" d="M103.993 80.7815C104.02 80.7818 104.048 80.7819 104.076 80.7819C108.013 80.7819 111.204 77.5904 111.204 73.6534C111.204 69.7164 108.013 66.5249 104.076 66.5249C104.048 66.5249 104.02 66.5251 103.993 66.5254V66.5249H102.151C102.218 66.0371 102.252 65.539 102.252 65.0329C102.252 58.9901 97.3533 54.0914 91.3105 54.0914C85.2677 54.0914 80.3691 58.9901 80.3691 65.0329C80.3691 65.6031 80.4127 66.1631 80.4968 66.7097C79.9764 66.5888 79.4342 66.5249 78.8771 66.5249C74.9401 66.5249 71.7485 69.7164 71.7485 73.6534C71.7485 77.5904 74.9401 80.7819 78.8771 80.7819C78.9048 80.7819 78.9326 80.7818 78.9603 80.7815L78.9599 80.7819H103.993V80.7815Z" fill="url(#paint3_linear_39_10211)" shape-rendering="crispEdges"/>
<path d="M103.993 80.7815L104.027 77.7817C103.225 77.7725 102.454 78.0845 101.883 78.6481C101.313 79.2116 100.993 79.9799 100.993 80.7815H103.993ZM103.993 66.5254H100.993C100.993 67.327 101.313 68.0952 101.883 68.6588C102.454 69.2223 103.225 69.5343 104.027 69.5252L103.993 66.5254ZM103.993 66.5249H106.993C106.993 64.868 105.65 63.5249 103.993 63.5249V66.5249ZM102.151 66.5249L99.1786 66.1196C99.0616 66.978 99.3213 67.8451 99.891 68.4977C100.461 69.1504 101.285 69.5249 102.151 69.5249V66.5249ZM80.4968 66.7097L79.8178 69.6319C80.7877 69.8572 81.8061 69.5867 82.5363 68.9098C83.2665 68.2329 83.6133 67.2378 83.4619 66.2537L80.4968 66.7097ZM78.9603 80.7815L81.3167 82.6383C82.0318 81.7307 82.1622 80.4932 81.6519 79.4566C81.1416 78.4199 80.0814 77.7685 78.9261 77.7817L78.9603 80.7815ZM78.9599 80.7819L76.6036 78.9251C75.8923 79.8278 75.7592 81.0575 76.2608 82.0915C76.7625 83.1254 77.8107 83.7819 78.9599 83.7819V80.7819ZM103.993 80.7819V83.7819C105.65 83.7819 106.993 82.4388 106.993 80.7819H103.993ZM103.958 83.7813C103.998 83.7817 104.037 83.7819 104.076 83.7819V77.7819C104.059 77.7819 104.043 77.7818 104.027 77.7817L103.958 83.7813ZM104.076 83.7819C109.669 83.7819 114.204 79.2472 114.204 73.6534H108.204C108.204 75.9335 106.356 77.7819 104.076 77.7819V83.7819ZM114.204 73.6534C114.204 68.0596 109.669 63.5249 104.076 63.5249V69.5249C106.356 69.5249 108.204 71.3733 108.204 73.6534H114.204ZM104.076 63.5249C104.037 63.5249 103.997 63.5251 103.958 63.5256L104.027 69.5252C104.043 69.525 104.059 69.5249 104.076 69.5249V63.5249ZM100.993 66.5249V66.5254H106.993V66.5249H100.993ZM102.151 69.5249H103.993V63.5249H102.151V69.5249ZM105.124 66.9302C105.208 66.3084 105.252 65.6749 105.252 65.0329H99.252C99.252 65.403 99.2269 65.7657 99.1786 66.1196L105.124 66.9302ZM105.252 65.0329C105.252 57.3332 99.0102 51.0914 91.3105 51.0914V57.0914C95.6965 57.0914 99.252 60.6469 99.252 65.0329H105.252ZM91.3105 51.0914C83.6109 51.0914 77.3691 57.3332 77.3691 65.0329H83.3691C83.3691 60.6469 86.9246 57.0914 91.3105 57.0914V51.0914ZM77.3691 65.0329C77.3691 65.7563 77.4244 66.4687 77.5316 67.1657L83.4619 66.2537C83.401 65.8574 83.3691 65.4499 83.3691 65.0329H77.3691ZM81.1757 63.7875C80.4343 63.6153 79.6644 63.5249 78.8771 63.5249V69.5249C79.204 69.5249 79.5185 69.5623 79.8178 69.6319L81.1757 63.7875ZM78.8771 63.5249C73.2832 63.5249 68.7485 68.0596 68.7485 73.6534H74.7485C74.7485 71.3733 76.5969 69.5249 78.8771 69.5249V63.5249ZM68.7485 73.6534C68.7485 79.2472 73.2832 83.7819 78.8771 83.7819V77.7819C76.5969 77.7819 74.7485 75.9335 74.7485 73.6534H68.7485ZM78.8771 83.7819C78.9164 83.7819 78.9556 83.7817 78.9946 83.7813L78.9261 77.7817C78.9097 77.7818 78.8933 77.7819 78.8771 77.7819V83.7819ZM81.3163 82.6387L81.3167 82.6383L76.604 78.9247L76.6036 78.9251L81.3163 82.6387ZM103.993 77.7819H78.9599V83.7819H103.993V77.7819ZM100.993 80.7815V80.7819H106.993V80.7815H100.993Z" fill="url(#paint4_linear_39_10211)" mask="url(#path-5-inside-1_39_10211)"/>
</g>
<g filter="url(#filter3_bd_39_10211)">
<mask id="path-7-inside-2_39_10211" fill="white">
<path fill-rule="evenodd" clip-rule="evenodd" d="M116.934 73.38C116.954 73.3803 116.974 73.3804 116.994 73.3804C119.839 73.3804 122.145 71.0739 122.145 68.2287C122.145 65.3835 119.839 63.077 116.994 63.077C116.974 63.077 116.954 63.0771 116.934 63.0773V63.077H115.603C115.651 62.7244 115.676 62.3644 115.676 61.9987C115.676 57.6316 112.136 54.0914 107.769 54.0914C103.402 54.0914 99.8613 57.6316 99.8613 61.9987C99.8613 62.4108 99.8928 62.8155 99.9536 63.2105C99.5775 63.1231 99.1857 63.077 98.7831 63.077C95.9378 63.077 93.6313 65.3835 93.6313 68.2287C93.6313 71.0739 95.9378 73.3804 98.7831 73.3804C98.8031 73.3804 98.8232 73.3803 98.8432 73.38L98.843 73.3804H116.934V73.38Z"/>
</mask>
<path fill-rule="evenodd" clip-rule="evenodd" d="M116.934 73.38C116.954 73.3803 116.974 73.3804 116.994 73.3804C119.839 73.3804 122.145 71.0739 122.145 68.2287C122.145 65.3835 119.839 63.077 116.994 63.077C116.974 63.077 116.954 63.0771 116.934 63.0773V63.077H115.603C115.651 62.7244 115.676 62.3644 115.676 61.9987C115.676 57.6316 112.136 54.0914 107.769 54.0914C103.402 54.0914 99.8613 57.6316 99.8613 61.9987C99.8613 62.4108 99.8928 62.8155 99.9536 63.2105C99.5775 63.1231 99.1857 63.077 98.7831 63.077C95.9378 63.077 93.6313 65.3835 93.6313 68.2287C93.6313 71.0739 95.9378 73.3804 98.7831 73.3804C98.8031 73.3804 98.8232 73.3803 98.8432 73.38L98.843 73.3804H116.934V73.38Z" fill="url(#paint5_linear_39_10211)" shape-rendering="crispEdges"/>
<path d="M116.934 73.38L116.968 70.3802C116.166 70.3711 115.395 70.6831 114.825 71.2467C114.255 71.8102 113.934 72.5785 113.934 73.38H116.934ZM116.934 63.0773H113.934C113.934 63.8789 114.255 64.6471 114.825 65.2107C115.395 65.7742 116.166 66.0862 116.968 66.0771L116.934 63.0773ZM116.934 63.077H119.934C119.934 61.4201 118.591 60.077 116.934 60.077V63.077ZM115.603 63.077L112.63 62.6717C112.513 63.5301 112.773 64.3971 113.343 65.0498C113.913 65.7024 114.737 66.077 115.603 66.077V63.077ZM99.9536 63.2105L99.2747 66.1327C100.245 66.358 101.263 66.0875 101.993 65.4106C102.723 64.7337 103.07 63.7386 102.919 62.7545L99.9536 63.2105ZM98.8432 73.38L101.197 75.2401C101.914 74.333 102.046 73.0947 101.536 72.057C101.026 71.0193 99.9651 70.367 98.809 70.3802L98.8432 73.38ZM98.843 73.3804L96.4892 71.5203C95.7762 72.4225 95.6417 73.653 96.1429 74.688C96.6442 75.723 97.693 76.3804 98.843 76.3804V73.3804ZM116.934 73.3804V76.3804C118.591 76.3804 119.934 75.0372 119.934 73.3804H116.934ZM116.9 76.3798C116.931 76.3802 116.962 76.3804 116.994 76.3804V70.3804C116.985 70.3804 116.977 70.3803 116.968 70.3802L116.9 76.3798ZM116.994 76.3804C121.496 76.3804 125.145 72.7307 125.145 68.2287H119.145C119.145 69.417 118.182 70.3804 116.994 70.3804V76.3804ZM125.145 68.2287C125.145 63.7266 121.496 60.077 116.994 60.077V66.077C118.182 66.077 119.145 67.0403 119.145 68.2287H125.145ZM116.994 60.077C116.962 60.077 116.931 60.0771 116.9 60.0775L116.968 66.0771C116.977 66.077 116.985 66.077 116.994 66.077V60.077ZM113.934 63.077V63.0773H119.934V63.077H113.934ZM115.603 66.077H116.934V60.077H115.603V66.077ZM118.575 63.4823C118.642 62.9958 118.676 62.5004 118.676 61.9987H112.676C112.676 62.2285 112.66 62.453 112.63 62.6717L118.575 63.4823ZM118.676 61.9987C118.676 55.9748 113.793 51.0914 107.769 51.0914V57.0914C110.479 57.0914 112.676 59.2885 112.676 61.9987H118.676ZM107.769 51.0914C101.745 51.0914 96.8613 55.9748 96.8613 61.9987H102.861C102.861 59.2885 105.058 57.0914 107.769 57.0914V51.0914ZM96.8613 61.9987C96.8613 62.564 96.9046 63.1211 96.9885 63.6666L102.919 62.7545C102.881 62.5098 102.861 62.2576 102.861 61.9987H96.8613ZM100.633 60.2884C100.035 60.1496 99.4158 60.077 98.7831 60.077V66.077C98.9555 66.077 99.1196 66.0967 99.2747 66.1327L100.633 60.2884ZM98.7831 60.077C94.281 60.077 90.6313 63.7266 90.6313 68.2287H96.6313C96.6313 67.0403 97.5947 66.077 98.7831 66.077V60.077ZM90.6313 68.2287C90.6313 72.7307 94.281 76.3804 98.7831 76.3804V70.3804C97.5947 70.3804 96.6313 69.417 96.6313 68.2287H90.6313ZM98.7831 76.3804C98.8145 76.3804 98.846 76.3802 98.8775 76.3798L98.809 70.3802C98.8004 70.3803 98.7917 70.3804 98.7831 70.3804V76.3804ZM101.197 75.2405L101.197 75.2401L96.4895 71.5199L96.4892 71.5203L101.197 75.2405ZM116.934 70.3804H98.843V76.3804H116.934V70.3804ZM113.934 73.38V73.3804H119.934V73.38H113.934Z" fill="url(#paint6_linear_39_10211)" mask="url(#path-7-inside-2_39_10211)"/>
</g>
<g filter="url(#filter4_bdd_39_10211)">
<path d="M80.855 81.9826L81.9536 80.5724L82.081 82.3555C82.1152 82.8357 81.6573 83.2011 81.1967 83.061C80.736 82.9209 80.5591 82.3624 80.855 81.9826Z" fill="url(#paint7_linear_39_10211)" stroke="url(#paint8_linear_39_10211)" stroke-width="3"/>
<path d="M90.3884 81.9826L91.4871 80.5724L91.6144 82.3555C91.6487 82.8357 91.1907 83.2011 90.7301 83.061C90.2695 82.9209 90.0925 82.3624 90.3884 81.9826Z" fill="url(#paint9_linear_39_10211)" stroke="url(#paint10_linear_39_10211)" stroke-width="3"/>
<path d="M99.9221 81.9826L101.021 80.5724L101.148 82.3555C101.182 82.8357 100.724 83.2011 100.264 83.061C99.8032 82.9209 99.6262 82.3624 99.9221 81.9826Z" fill="url(#paint11_linear_39_10211)" stroke="url(#paint12_linear_39_10211)" stroke-width="3"/>
</g>
<g filter="url(#filter5_bdd_39_10211)">
<path d="M83.3704 89.5289L84.469 88.1188L84.5963 89.9019C84.6306 90.3821 84.1727 90.7475 83.712 90.6074C83.2514 90.4672 83.0745 89.9087 83.3704 89.5289Z" fill="url(#paint13_linear_39_10211)" stroke="url(#paint14_linear_39_10211)" stroke-width="3"/>
<path d="M91.4251 89.5289L92.5237 88.1188L92.651 89.9019C92.6853 90.3821 92.2273 90.7475 91.7667 90.6074C91.3061 90.4672 91.1291 89.9087 91.4251 89.5289Z" fill="url(#paint15_linear_39_10211)" stroke="url(#paint16_linear_39_10211)" stroke-width="3"/>
</g>
<defs>
<filter id="filter0_f_39_10211" x="46.3159" y="0.476196" width="108.225" height="108.225" filterUnits="userSpaceOnUse" color-interpolation-filters="sRGB">
<feFlood flood-opacity="0" result="BackgroundImageFix"/>
<feBlend mode="normal" in="SourceGraphic" in2="BackgroundImageFix" result="shape"/>
<feGaussianBlur stdDeviation="22" result="effect1_foregroundBlur_39_10211"/>
</filter>
<filter id="filter1_f_39_10211" x="61.8931" y="38.9309" width="67.4556" height="55.0221" filterUnits="userSpaceOnUse" color-interpolation-filters="sRGB">
<feFlood flood-opacity="0" result="BackgroundImageFix"/>
<feBlend mode="normal" in="SourceGraphic" in2="BackgroundImageFix" result="shape"/>
<feGaussianBlur stdDeviation="7" result="effect1_foregroundBlur_39_10211"/>
</filter>
<filter id="filter2_bd_39_10211" x="0.748535" y="19.0914" width="139.456" height="126.691" filterUnits="userSpaceOnUse" color-interpolation-filters="sRGB">
<feFlood flood-opacity="0" result="BackgroundImageFix"/>
<feGaussianBlur in="BackgroundImageFix" stdDeviation="7"/>
<feComposite in2="SourceAlpha" operator="in" result="effect1_backgroundBlur_39_10211"/>
<feColorMatrix in="SourceAlpha" type="matrix" values="0 0 0 0 0 0 0 0 0 0 0 0 0 0 0 0 0 0 127 0" result="hardAlpha"/>
<feOffset dx="-21" dy="15"/>
<feGaussianBlur stdDeviation="25"/>
<feComposite in2="hardAlpha" operator="out"/>
<feColorMatrix type="matrix" values="0 0 0 0 0.113725 0 0 0 0 0.14902 0 0 0 0 0.27451 0 0 0 0.25 0"/>
<feBlend mode="normal" in2="effect1_backgroundBlur_39_10211" result="effect2_dropShadow_39_10211"/>
<feBlend mode="normal" in="SourceGraphic" in2="effect2_dropShadow_39_10211" result="shape"/>
</filter>
<filter id="filter3_bd_39_10211" x="22.6313" y="19.0914" width="128.514" height="119.289" filterUnits="userSpaceOnUse" color-interpolation-filters="sRGB">
<feFlood flood-opacity="0" result="BackgroundImageFix"/>
<feGaussianBlur in="BackgroundImageFix" stdDeviation="7"/>
<feComposite in2="SourceAlpha" operator="in" result="effect1_backgroundBlur_39_10211"/>
<feColorMatrix in="SourceAlpha" type="matrix" values="0 0 0 0 0 0 0 0 0 0 0 0 0 0 0 0 0 0 127 0" result="hardAlpha"/>
<feOffset dx="-21" dy="15"/>
<feGaussianBlur stdDeviation="25"/>
<feComposite in2="hardAlpha" operator="out"/>
<feColorMatrix type="matrix" values="0 0 0 0 0.113438 0 0 0 0 0.148981 0 0 0 0 0.275 0 0 0 0.25 0"/>
<feBlend mode="normal" in2="effect1_backgroundBlur_39_10211" result="effect2_dropShadow_39_10211"/>
<feBlend mode="normal" in="SourceGraphic" in2="effect2_dropShadow_39_10211" result="shape"/>
</filter>
<filter id="filter4_bdd_39_10211" x="8.20874" y="30.4661" width="135.441" height="119.126" filterUnits="userSpaceOnUse" color-interpolation-filters="sRGB">
<feFlood flood-opacity="0" result="BackgroundImageFix"/>
<feGaussianBlur in="BackgroundImageFix" stdDeviation="7"/>
<feComposite in2="SourceAlpha" operator="in" result="effect1_backgroundBlur_39_10211"/>
<feColorMatrix in="SourceAlpha" type="matrix" values="0 0 0 0 0 0 0 0 0 0 0 0 0 0 0 0 0 0 127 0" result="hardAlpha"/>
<feOffset dx="-21" dy="15"/>
<feGaussianBlur stdDeviation="25"/>
<feComposite in2="hardAlpha" operator="out"/>
<feColorMatrix type="matrix" values="0 0 0 0 0.113438 0 0 0 0 0.148981 0 0 0 0 0.275 0 0 0 0.25 0"/>
<feBlend mode="normal" in2="effect1_backgroundBlur_39_10211" result="effect2_dropShadow_39_10211"/>
<feColorMatrix in="SourceAlpha" type="matrix" values="0 0 0 0 0 0 0 0 0 0 0 0 0 0 0 0 0 0 127 0" result="hardAlpha"/>
<feOffset dy="-7"/>
<feGaussianBlur stdDeviation="20.5"/>
<feComposite in2="hardAlpha" operator="out"/>
<feColorMatrix type="matrix" values="0 0 0 0 0.1375 0 0 0 0 0.74125 0 0 0 0 1 0 0 0 0.3 0"/>
<feBlend mode="normal" in2="effect2_dropShadow_39_10211" result="effect3_dropShadow_39_10211"/>
<feBlend mode="normal" in="SourceGraphic" in2="effect3_dropShadow_39_10211" result="shape"/>
</filter>
<filter id="filter5_bdd_39_10211" x="10.7241" y="38.0125" width="124.429" height="119.126" filterUnits="userSpaceOnUse" color-interpolation-filters="sRGB">
<feFlood flood-opacity="0" result="BackgroundImageFix"/>
<feGaussianBlur in="BackgroundImageFix" stdDeviation="7"/>
<feComposite in2="SourceAlpha" operator="in" result="effect1_backgroundBlur_39_10211"/>
<feColorMatrix in="SourceAlpha" type="matrix" values="0 0 0 0 0 0 0 0 0 0 0 0 0 0 0 0 0 0 127 0" result="hardAlpha"/>
<feOffset dx="-21" dy="15"/>
<feGaussianBlur stdDeviation="25"/>
<feComposite in2="hardAlpha" operator="out"/>
<feColorMatrix type="matrix" values="0 0 0 0 0.113438 0 0 0 0 0.148981 0 0 0 0 0.275 0 0 0 0.25 0"/>
<feBlend mode="normal" in2="effect1_backgroundBlur_39_10211" result="effect2_dropShadow_39_10211"/>
<feColorMatrix in="SourceAlpha" type="matrix" values="0 0 0 0 0 0 0 0 0 0 0 0 0 0 0 0 0 0 127 0" result="hardAlpha"/>
<feOffset dy="-7"/>
<feGaussianBlur stdDeviation="20.5"/>
<feComposite in2="hardAlpha" operator="out"/>
<feColorMatrix type="matrix" values="0 0 0 0 0.1375 0 0 0 0 0.74125 0 0 0 0 1 0 0 0 0.3 0"/>
<feBlend mode="normal" in2="effect2_dropShadow_39_10211" result="effect3_dropShadow_39_10211"/>
<feBlend mode="normal" in="SourceGraphic" in2="effect3_dropShadow_39_10211" result="shape"/>
</filter>
<linearGradient id="paint0_linear_39_10211" x1="100.428" y1="45.1393" x2="100.428" y2="64.7013" gradientUnits="userSpaceOnUse">
<stop stop-color="#FFE600"/>
<stop offset="1" stop-color="#FF7A00"/>
</linearGradient>
<linearGradient id="paint1_linear_39_10211" x1="100.428" y1="45.1393" x2="100.428" y2="64.7013" gradientUnits="userSpaceOnUse">
<stop stop-color="white"/>
<stop offset="1" stop-color="white" stop-opacity="0"/>
</linearGradient>
<linearGradient id="paint2_linear_39_10211" x1="100.428" y1="45.1393" x2="100.428" y2="64.7013" gradientUnits="userSpaceOnUse">
<stop stop-color="#FFD600"/>
<stop offset="1" stop-color="#FF7A00"/>
</linearGradient>
<linearGradient id="paint3_linear_39_10211" x1="91.4763" y1="45.5538" x2="91.4763" y2="84.512" gradientUnits="userSpaceOnUse">
<stop stop-color="white"/>
<stop offset="1" stop-color="white" stop-opacity="0"/>
</linearGradient>
<linearGradient id="paint4_linear_39_10211" x1="91.4763" y1="54.0914" x2="91.4763" y2="80.7819" gradientUnits="userSpaceOnUse">
<stop stop-color="white"/>
<stop offset="1" stop-color="white" stop-opacity="0"/>
</linearGradient>
<linearGradient id="paint5_linear_39_10211" x1="109.215" y1="54.6717" x2="109.215" y2="75.5599" gradientUnits="userSpaceOnUse">
<stop stop-color="white"/>
<stop offset="1" stop-color="white" stop-opacity="0"/>
</linearGradient>
<linearGradient id="paint6_linear_39_10211" x1="107.888" y1="54.0914" x2="107.888" y2="73.3804" gradientUnits="userSpaceOnUse">
<stop stop-color="white"/>
<stop offset="1" stop-color="white" stop-opacity="0"/>
</linearGradient>
<linearGradient id="paint7_linear_39_10211" x1="83.1715" y1="76.5685" x2="80.7601" y2="84.496" gradientUnits="userSpaceOnUse">
<stop stop-color="#138EFF"/>
<stop offset="1" stop-color="#00E0FF"/>
</linearGradient>
<linearGradient id="paint8_linear_39_10211" x1="83.1715" y1="76.5685" x2="80.7601" y2="84.496" gradientUnits="userSpaceOnUse">
<stop stop-color="white"/>
<stop offset="1" stop-color="white" stop-opacity="0"/>
</linearGradient>
<linearGradient id="paint9_linear_39_10211" x1="92.705" y1="76.5685" x2="90.2936" y2="84.496" gradientUnits="userSpaceOnUse">
<stop stop-color="#138EFF"/>
<stop offset="1" stop-color="#00E0FF"/>
</linearGradient>
<linearGradient id="paint10_linear_39_10211" x1="92.705" y1="76.5685" x2="90.2936" y2="84.496" gradientUnits="userSpaceOnUse">
<stop stop-color="white"/>
<stop offset="1" stop-color="white" stop-opacity="0"/>
</linearGradient>
<linearGradient id="paint11_linear_39_10211" x1="102.239" y1="76.5685" x2="99.8273" y2="84.496" gradientUnits="userSpaceOnUse">
<stop stop-color="#138EFF"/>
<stop offset="1" stop-color="#00E0FF"/>
</linearGradient>
<linearGradient id="paint12_linear_39_10211" x1="102.239" y1="76.5685" x2="99.8273" y2="84.496" gradientUnits="userSpaceOnUse">
<stop stop-color="white"/>
<stop offset="1" stop-color="white" stop-opacity="0"/>
</linearGradient>
<linearGradient id="paint13_linear_39_10211" x1="85.6869" y1="84.1149" x2="83.2755" y2="92.0424" gradientUnits="userSpaceOnUse">
<stop stop-color="#138EFF"/>
<stop offset="1" stop-color="#00E0FF"/>
</linearGradient>
<linearGradient id="paint14_linear_39_10211" x1="85.6869" y1="84.1149" x2="83.2755" y2="92.0424" gradientUnits="userSpaceOnUse">
<stop stop-color="white"/>
<stop offset="1" stop-color="white" stop-opacity="0"/>
</linearGradient>
<linearGradient id="paint15_linear_39_10211" x1="93.7416" y1="84.1149" x2="91.3302" y2="92.0424" gradientUnits="userSpaceOnUse">
<stop stop-color="#138EFF"/>
<stop offset="1" stop-color="#00E0FF"/>
</linearGradient>
<linearGradient id="paint16_linear_39_10211" x1="93.7416" y1="84.1149" x2="91.3302" y2="92.0424" gradientUnits="userSpaceOnUse">
<stop stop-color="white"/>
<stop offset="1" stop-color="white" stop-opacity="0"/>
</linearGradient>
</defs>
</svg>
