<svg width="151" height="137" viewBox="0 0 151 137" fill="none" xmlns="http://www.w3.org/2000/svg">
<g filter="url(#filter0_bd_39_10204)">
<mask id="path-1-inside-1_39_10204" fill="white">
<path fill-rule="evenodd" clip-rule="evenodd" d="M103.244 62.3001C103.272 62.3005 103.299 62.3006 103.327 62.3006C107.264 62.3006 110.456 59.1091 110.456 55.1721C110.456 51.2351 107.264 48.0436 103.327 48.0436C103.299 48.0436 103.272 48.0437 103.244 48.044V48.0436H101.403C101.469 47.5557 101.503 47.0577 101.503 46.5516C101.503 40.5088 96.6048 35.6101 90.562 35.6101C84.5192 35.6101 79.6205 40.5088 79.6205 46.5516C79.6205 47.1217 79.6642 47.6817 79.7482 48.2284C79.2279 48.1075 78.6857 48.0436 78.1285 48.0436C74.1915 48.0436 71 51.2351 71 55.1721C71 59.1091 74.1915 62.3006 78.1285 62.3006C78.1563 62.3006 78.1841 62.3005 78.2118 62.3001L78.2114 62.3006H103.244V62.3001Z"/>
</mask>
<path fill-rule="evenodd" clip-rule="evenodd" d="M103.244 62.3001C103.272 62.3005 103.299 62.3006 103.327 62.3006C107.264 62.3006 110.456 59.1091 110.456 55.1721C110.456 51.2351 107.264 48.0436 103.327 48.0436C103.299 48.0436 103.272 48.0437 103.244 48.044V48.0436H101.403C101.469 47.5557 101.503 47.0577 101.503 46.5516C101.503 40.5088 96.6048 35.6101 90.562 35.6101C84.5192 35.6101 79.6205 40.5088 79.6205 46.5516C79.6205 47.1217 79.6642 47.6817 79.7482 48.2284C79.2279 48.1075 78.6857 48.0436 78.1285 48.0436C74.1915 48.0436 71 51.2351 71 55.1721C71 59.1091 74.1915 62.3006 78.1285 62.3006C78.1563 62.3006 78.1841 62.3005 78.2118 62.3001L78.2114 62.3006H103.244V62.3001Z" fill="url(#paint0_linear_39_10204)" shape-rendering="crispEdges"/>
<path d="M103.244 62.3001L103.267 60.3003C102.733 60.2942 102.218 60.5022 101.838 60.8779C101.458 61.2536 101.244 61.7658 101.244 62.3001H103.244ZM103.244 48.044H101.244C101.244 48.5784 101.458 49.0906 101.838 49.4663C102.218 49.842 102.733 50.05 103.267 50.0439L103.244 48.044ZM103.244 48.0436H105.244C105.244 46.939 104.349 46.0436 103.244 46.0436V48.0436ZM101.403 48.0436L99.4209 47.7734C99.3429 48.3456 99.516 48.9237 99.8958 49.3588C100.276 49.7939 100.825 50.0436 101.403 50.0436V48.0436ZM79.7482 48.2284L79.2956 50.1765C79.9422 50.3267 80.6211 50.1464 81.1079 49.6951C81.5947 49.2438 81.8259 48.5804 81.725 47.9244L79.7482 48.2284ZM78.2118 62.3001L79.7827 63.538C80.2594 62.933 80.3464 62.108 80.0062 61.4169C79.666 60.7258 78.9592 60.2915 78.1889 60.3003L78.2118 62.3001ZM78.2114 62.3006L76.6405 61.0628C76.1663 61.6645 76.0776 62.4843 76.412 63.1736C76.7464 63.8629 77.4453 64.3006 78.2114 64.3006V62.3006ZM103.244 62.3006V64.3006C104.349 64.3006 105.244 63.4052 105.244 62.3006H103.244ZM103.221 64.3C103.257 64.3004 103.292 64.3006 103.327 64.3006V60.3006C103.307 60.3006 103.287 60.3005 103.267 60.3003L103.221 64.3ZM103.327 64.3006C108.369 64.3006 112.456 60.2136 112.456 55.1721H108.456C108.456 58.0045 106.159 60.3006 103.327 60.3006V64.3006ZM112.456 55.1721C112.456 50.1306 108.369 46.0436 103.327 46.0436V50.0436C106.159 50.0436 108.456 52.3397 108.456 55.1721H112.456ZM103.327 46.0436C103.292 46.0436 103.257 46.0438 103.221 46.0442L103.267 50.0439C103.287 50.0437 103.307 50.0436 103.327 50.0436V46.0436ZM101.244 48.0436V48.044H105.244V48.0436H101.244ZM101.403 50.0436H103.244V46.0436H101.403V50.0436ZM103.384 48.3138C103.463 47.7366 103.503 47.1483 103.503 46.5516H99.5034C99.5034 46.967 99.4752 47.3748 99.4209 47.7734L103.384 48.3138ZM103.503 46.5516C103.503 39.4042 97.7094 33.6101 90.562 33.6101V37.6101C95.5002 37.6101 99.5034 41.6133 99.5034 46.5516H103.503ZM90.562 33.6101C83.4146 33.6101 77.6205 39.4042 77.6205 46.5516H81.6205C81.6205 41.6133 85.6238 37.6101 90.562 37.6101V33.6101ZM77.6205 46.5516C77.6205 47.2239 77.672 47.8855 77.7715 48.5324L81.725 47.9244C81.6563 47.478 81.6205 47.0196 81.6205 46.5516H77.6205ZM80.2009 46.2803C79.5331 46.1251 78.8391 46.0436 78.1285 46.0436V50.0436C78.5322 50.0436 78.9226 50.0898 79.2956 50.1765L80.2009 46.2803ZM78.1285 46.0436C73.087 46.0436 69 50.1306 69 55.1721H73C73 52.3397 75.2961 50.0436 78.1285 50.0436V46.0436ZM69 55.1721C69 60.2136 73.087 64.3006 78.1285 64.3006V60.3006C75.2961 60.3006 73 58.0045 73 55.1721H69ZM78.1285 64.3006C78.164 64.3006 78.1994 64.3004 78.2346 64.3L78.1889 60.3003C78.1688 60.3005 78.1486 60.3006 78.1285 60.3006V64.3006ZM79.7823 63.5385L79.7827 63.538L76.6409 61.0623L76.6405 61.0628L79.7823 63.5385ZM103.244 60.3006H78.2114V64.3006H103.244V60.3006ZM101.244 62.3001V62.3006H105.244V62.3001H101.244Z" fill="url(#paint1_linear_39_10204)" mask="url(#path-1-inside-1_39_10204)"/>
</g>
<g filter="url(#filter1_bd_39_10204)">
<mask id="path-3-inside-2_39_10204" fill="white">
<path fill-rule="evenodd" clip-rule="evenodd" d="M116.185 54.8987C116.205 54.8989 116.225 54.899 116.245 54.899C119.09 54.899 121.397 52.5926 121.397 49.7473C121.397 46.9021 119.09 44.5956 116.245 44.5956C116.225 44.5956 116.205 44.5958 116.185 44.596V44.5956H114.854C114.902 44.2431 114.927 43.8831 114.927 43.5174C114.927 39.1503 111.387 35.6101 107.02 35.6101C102.653 35.6101 99.1128 39.1503 99.1128 43.5174C99.1128 43.9294 99.1443 44.3341 99.2051 44.7292C98.829 44.6418 98.4372 44.5956 98.0345 44.5956C95.1893 44.5956 92.8828 46.9021 92.8828 49.7473C92.8828 52.5926 95.1893 54.899 98.0345 54.899C98.0546 54.899 98.0747 54.8989 98.0947 54.8987L98.0944 54.899H116.185V54.8987Z"/>
</mask>
<path fill-rule="evenodd" clip-rule="evenodd" d="M116.185 54.8987C116.205 54.8989 116.225 54.899 116.245 54.899C119.09 54.899 121.397 52.5926 121.397 49.7473C121.397 46.9021 119.09 44.5956 116.245 44.5956C116.225 44.5956 116.205 44.5958 116.185 44.596V44.5956H114.854C114.902 44.2431 114.927 43.8831 114.927 43.5174C114.927 39.1503 111.387 35.6101 107.02 35.6101C102.653 35.6101 99.1128 39.1503 99.1128 43.5174C99.1128 43.9294 99.1443 44.3341 99.2051 44.7292C98.829 44.6418 98.4372 44.5956 98.0345 44.5956C95.1893 44.5956 92.8828 46.9021 92.8828 49.7473C92.8828 52.5926 95.1893 54.899 98.0345 54.899C98.0546 54.899 98.0747 54.8989 98.0947 54.8987L98.0944 54.899H116.185V54.8987Z" fill="url(#paint2_linear_39_10204)" shape-rendering="crispEdges"/>
<path d="M116.185 54.8987L116.208 52.8988C115.674 52.8928 115.159 53.1008 114.779 53.4765C114.399 53.8522 114.185 54.3643 114.185 54.8987H116.185ZM116.185 44.596H114.185C114.185 45.1304 114.399 45.6425 114.779 46.0182C115.159 46.3939 115.674 46.6019 116.208 46.5958L116.185 44.596ZM116.185 44.5956H118.185C118.185 43.4911 117.29 42.5956 116.185 42.5956V44.5956ZM114.854 44.5956L112.873 44.3254C112.795 44.8977 112.968 45.4757 113.348 45.9109C113.728 46.346 114.277 46.5956 114.854 46.5956V44.5956ZM99.2051 44.7292L98.7524 46.6773C99.399 46.8275 100.078 46.6472 100.565 46.1959C101.052 45.7446 101.283 45.0812 101.182 44.4252L99.2051 44.7292ZM98.0947 54.8987L99.6639 56.1388C100.142 55.534 100.23 54.7085 99.8897 54.0167C99.5498 53.3249 98.8426 52.89 98.0718 52.8988L98.0947 54.8987ZM98.0944 54.899L96.5253 53.659C96.0499 54.2605 95.9602 55.0808 96.2944 55.7708C96.6286 56.4608 97.3278 56.899 98.0944 56.899V54.899ZM116.185 54.899V56.899C117.29 56.899 118.185 56.0036 118.185 54.899H116.185ZM116.163 56.8986C116.19 56.8989 116.218 56.899 116.245 56.899V52.899C116.233 52.899 116.22 52.899 116.208 52.8988L116.163 56.8986ZM116.245 56.899C120.195 56.899 123.397 53.6971 123.397 49.7473H119.397C119.397 51.488 117.986 52.899 116.245 52.899V56.899ZM123.397 49.7473C123.397 45.7976 120.195 42.5956 116.245 42.5956V46.5956C117.986 46.5956 119.397 48.0067 119.397 49.7473H123.397ZM116.245 42.5956C116.218 42.5956 116.19 42.5958 116.163 42.5961L116.208 46.5958C116.22 46.5957 116.233 46.5956 116.245 46.5956V42.5956ZM114.185 44.5956V44.596H118.185V44.5956H114.185ZM114.854 46.5956H116.185V42.5956H114.854V46.5956ZM116.836 44.8658C116.896 44.424 116.927 43.9738 116.927 43.5174H112.927C112.927 43.7925 112.909 44.0622 112.873 44.3254L116.836 44.8658ZM116.927 43.5174C116.927 38.0457 112.492 33.6101 107.02 33.6101V37.6101C110.283 37.6101 112.927 40.2549 112.927 43.5174H116.927ZM107.02 33.6101C101.548 33.6101 97.1128 38.0457 97.1128 43.5174H101.113C101.113 40.2549 103.758 37.6101 107.02 37.6101V33.6101ZM97.1128 43.5174C97.1128 44.0316 97.1521 44.5379 97.2283 45.0332L101.182 44.4252C101.136 44.1304 101.113 43.8273 101.113 43.5174H97.1128ZM99.6577 42.7811C99.1343 42.6595 98.5906 42.5956 98.0345 42.5956V46.5956C98.2837 46.5956 98.5237 46.6242 98.7524 46.6773L99.6577 42.7811ZM98.0345 42.5956C94.0847 42.5956 90.8828 45.7976 90.8828 49.7473H94.8828C94.8828 48.0067 96.2939 46.5956 98.0345 46.5956V42.5956ZM90.8828 49.7473C90.8828 53.6971 94.0847 56.899 98.0345 56.899V52.899C96.2939 52.899 94.8828 51.488 94.8828 49.7473H90.8828ZM98.0345 56.899C98.0622 56.899 98.0899 56.8989 98.1175 56.8986L98.0718 52.8988C98.0595 52.899 98.047 52.899 98.0345 52.899V56.899ZM99.6636 56.1391L99.6639 56.1388L96.5255 53.6586L96.5253 53.659L99.6636 56.1391ZM116.185 52.899H98.0944V56.899H116.185V52.899ZM114.185 54.8987V54.899H118.185V54.8987H114.185Z" fill="url(#paint3_linear_39_10204)" mask="url(#path-3-inside-2_39_10204)"/>
</g>
<g filter="url(#filter2_bdd_39_10204)">
<path d="M87.6046 58.4619L87.7992 61.1862C87.8584 62.0163 87.0668 62.6479 86.2706 62.4057C85.4744 62.1635 85.1686 61.1981 85.68 60.5416L87.3586 58.3871C87.3877 58.3498 87.4101 58.3408 87.4238 58.3369C87.4435 58.3312 87.4732 58.3296 87.5073 58.34C87.5414 58.3503 87.5652 58.3682 87.5784 58.3839C87.5876 58.3948 87.6013 58.4148 87.6046 58.4619Z" fill="url(#paint4_linear_39_10204)" stroke="url(#paint5_linear_39_10204)" stroke-width="2"/>
<path d="M97.1383 58.4619L97.3329 61.1862C97.3921 62.0163 96.6005 62.6479 95.8043 62.4057C95.0081 62.1635 94.7023 61.1981 95.2137 60.5416L96.8923 58.3871C96.9214 58.3498 96.9438 58.3408 96.9575 58.3369C96.9772 58.3312 97.0069 58.3296 97.041 58.34C97.0751 58.3503 97.0989 58.3682 97.1121 58.3839C97.1213 58.3948 97.135 58.4148 97.1383 58.4619Z" fill="url(#paint6_linear_39_10204)" stroke="url(#paint7_linear_39_10204)" stroke-width="2"/>
<path d="M106.672 58.4619L106.866 61.1862C106.926 62.0163 106.134 62.6479 105.338 62.4057C104.542 62.1635 104.236 61.1981 104.747 60.5416L106.426 58.3871C106.455 58.3498 106.477 58.3408 106.491 58.3369C106.511 58.3312 106.54 58.3296 106.574 58.34C106.609 58.3503 106.632 58.3682 106.646 58.3839C106.655 58.3948 106.668 58.4148 106.672 58.4619Z" fill="url(#paint8_linear_39_10204)" stroke="url(#paint9_linear_39_10204)" stroke-width="2"/>
</g>
<g filter="url(#filter3_bdd_39_10204)">
<path d="M90.12 66.0083L90.3145 68.7326C90.3738 69.5627 89.5822 70.1942 88.786 69.952C87.9898 69.7099 87.6839 68.7445 88.1954 68.088L89.874 65.9335C89.903 65.8962 89.9255 65.8872 89.9392 65.8833C89.9589 65.8776 89.9886 65.876 90.0227 65.8864C90.0568 65.8967 90.0806 65.9146 90.0938 65.9303C90.103 65.9412 90.1166 65.9612 90.12 66.0083Z" fill="url(#paint10_linear_39_10204)" stroke="url(#paint11_linear_39_10204)" stroke-width="2"/>
<path d="M98.1747 66.0083L98.3692 68.7326C98.4285 69.5627 97.6369 70.1942 96.8407 69.952C96.0445 69.7099 95.7386 68.7445 96.2501 68.088L97.9287 65.9335C97.9577 65.8962 97.9802 65.8872 97.9939 65.8833C98.0136 65.8776 98.0433 65.876 98.0774 65.8864C98.1115 65.8967 98.1353 65.9146 98.1485 65.9303C98.1577 65.9412 98.1713 65.9612 98.1747 66.0083Z" fill="url(#paint12_linear_39_10204)" stroke="url(#paint13_linear_39_10204)" stroke-width="2"/>
</g>
<defs>
<filter id="filter0_bd_39_10204" x="0" y="0.610107" width="139.456" height="126.691" filterUnits="userSpaceOnUse" color-interpolation-filters="sRGB">
<feFlood flood-opacity="0" result="BackgroundImageFix"/>
<feGaussianBlur in="BackgroundImageFix" stdDeviation="7"/>
<feComposite in2="SourceAlpha" operator="in" result="effect1_backgroundBlur_39_10204"/>
<feColorMatrix in="SourceAlpha" type="matrix" values="0 0 0 0 0 0 0 0 0 0 0 0 0 0 0 0 0 0 127 0" result="hardAlpha"/>
<feOffset dx="-21" dy="15"/>
<feGaussianBlur stdDeviation="25"/>
<feComposite in2="hardAlpha" operator="out"/>
<feColorMatrix type="matrix" values="0 0 0 0 0.113725 0 0 0 0 0.14902 0 0 0 0 0.27451 0 0 0 0.25 0"/>
<feBlend mode="normal" in2="effect1_backgroundBlur_39_10204" result="effect2_dropShadow_39_10204"/>
<feBlend mode="normal" in="SourceGraphic" in2="effect2_dropShadow_39_10204" result="shape"/>
</filter>
<filter id="filter1_bd_39_10204" x="21.8828" y="0.610107" width="128.514" height="119.289" filterUnits="userSpaceOnUse" color-interpolation-filters="sRGB">
<feFlood flood-opacity="0" result="BackgroundImageFix"/>
<feGaussianBlur in="BackgroundImageFix" stdDeviation="7"/>
<feComposite in2="SourceAlpha" operator="in" result="effect1_backgroundBlur_39_10204"/>
<feColorMatrix in="SourceAlpha" type="matrix" values="0 0 0 0 0 0 0 0 0 0 0 0 0 0 0 0 0 0 127 0" result="hardAlpha"/>
<feOffset dx="-21" dy="15"/>
<feGaussianBlur stdDeviation="25"/>
<feComposite in2="hardAlpha" operator="out"/>
<feColorMatrix type="matrix" values="0 0 0 0 0.113438 0 0 0 0 0.148981 0 0 0 0 0.275 0 0 0 0.25 0"/>
<feBlend mode="normal" in2="effect1_backgroundBlur_39_10204" result="effect2_dropShadow_39_10204"/>
<feBlend mode="normal" in="SourceGraphic" in2="effect2_dropShadow_39_10204" result="shape"/>
</filter>
<filter id="filter2_bdd_39_10204" x="13.4282" y="9.3324" width="135.441" height="119.126" filterUnits="userSpaceOnUse" color-interpolation-filters="sRGB">
<feFlood flood-opacity="0" result="BackgroundImageFix"/>
<feGaussianBlur in="BackgroundImageFix" stdDeviation="7"/>
<feComposite in2="SourceAlpha" operator="in" result="effect1_backgroundBlur_39_10204"/>
<feColorMatrix in="SourceAlpha" type="matrix" values="0 0 0 0 0 0 0 0 0 0 0 0 0 0 0 0 0 0 127 0" result="hardAlpha"/>
<feOffset dx="-21" dy="15"/>
<feGaussianBlur stdDeviation="25"/>
<feComposite in2="hardAlpha" operator="out"/>
<feColorMatrix type="matrix" values="0 0 0 0 0.113438 0 0 0 0 0.148981 0 0 0 0 0.275 0 0 0 0.25 0"/>
<feBlend mode="normal" in2="effect1_backgroundBlur_39_10204" result="effect2_dropShadow_39_10204"/>
<feColorMatrix in="SourceAlpha" type="matrix" values="0 0 0 0 0 0 0 0 0 0 0 0 0 0 0 0 0 0 127 0" result="hardAlpha"/>
<feOffset dy="-7"/>
<feGaussianBlur stdDeviation="20.5"/>
<feComposite in2="hardAlpha" operator="out"/>
<feColorMatrix type="matrix" values="0 0 0 0 0.1375 0 0 0 0 0.74125 0 0 0 0 1 0 0 0 0.3 0"/>
<feBlend mode="normal" in2="effect2_dropShadow_39_10204" result="effect3_dropShadow_39_10204"/>
<feBlend mode="normal" in="SourceGraphic" in2="effect3_dropShadow_39_10204" result="shape"/>
</filter>
<filter id="filter3_bdd_39_10204" x="15.9436" y="16.8788" width="124.429" height="119.126" filterUnits="userSpaceOnUse" color-interpolation-filters="sRGB">
<feFlood flood-opacity="0" result="BackgroundImageFix"/>
<feGaussianBlur in="BackgroundImageFix" stdDeviation="7"/>
<feComposite in2="SourceAlpha" operator="in" result="effect1_backgroundBlur_39_10204"/>
<feColorMatrix in="SourceAlpha" type="matrix" values="0 0 0 0 0 0 0 0 0 0 0 0 0 0 0 0 0 0 127 0" result="hardAlpha"/>
<feOffset dx="-21" dy="15"/>
<feGaussianBlur stdDeviation="25"/>
<feComposite in2="hardAlpha" operator="out"/>
<feColorMatrix type="matrix" values="0 0 0 0 0.113438 0 0 0 0 0.148981 0 0 0 0 0.275 0 0 0 0.25 0"/>
<feBlend mode="normal" in2="effect1_backgroundBlur_39_10204" result="effect2_dropShadow_39_10204"/>
<feColorMatrix in="SourceAlpha" type="matrix" values="0 0 0 0 0 0 0 0 0 0 0 0 0 0 0 0 0 0 127 0" result="hardAlpha"/>
<feOffset dy="-7"/>
<feGaussianBlur stdDeviation="20.5"/>
<feComposite in2="hardAlpha" operator="out"/>
<feColorMatrix type="matrix" values="0 0 0 0 0.1375 0 0 0 0 0.74125 0 0 0 0 1 0 0 0 0.3 0"/>
<feBlend mode="normal" in2="effect2_dropShadow_39_10204" result="effect3_dropShadow_39_10204"/>
<feBlend mode="normal" in="SourceGraphic" in2="effect3_dropShadow_39_10204" result="shape"/>
</filter>
<linearGradient id="paint0_linear_39_10204" x1="90.7278" y1="27.0725" x2="90.7278" y2="66.0307" gradientUnits="userSpaceOnUse">
<stop stop-color="white"/>
<stop offset="1" stop-color="white" stop-opacity="0"/>
</linearGradient>
<linearGradient id="paint1_linear_39_10204" x1="90.7278" y1="35.6101" x2="90.7278" y2="62.3006" gradientUnits="userSpaceOnUse">
<stop stop-color="white"/>
<stop offset="1" stop-color="white" stop-opacity="0"/>
</linearGradient>
<linearGradient id="paint2_linear_39_10204" x1="108.466" y1="36.1903" x2="108.466" y2="57.0786" gradientUnits="userSpaceOnUse">
<stop stop-color="white"/>
<stop offset="1" stop-color="white" stop-opacity="0"/>
</linearGradient>
<linearGradient id="paint3_linear_39_10204" x1="107.14" y1="35.6101" x2="107.14" y2="54.899" gradientUnits="userSpaceOnUse">
<stop stop-color="white"/>
<stop offset="1" stop-color="white" stop-opacity="0"/>
</linearGradient>
<linearGradient id="paint4_linear_39_10204" x1="88.391" y1="55.4348" x2="85.9796" y2="63.3624" gradientUnits="userSpaceOnUse">
<stop stop-color="#138EFF"/>
<stop offset="1" stop-color="#00E0FF"/>
</linearGradient>
<linearGradient id="paint5_linear_39_10204" x1="88.391" y1="55.4348" x2="85.9796" y2="63.3624" gradientUnits="userSpaceOnUse">
<stop stop-color="white"/>
<stop offset="1" stop-color="white" stop-opacity="0"/>
</linearGradient>
<linearGradient id="paint6_linear_39_10204" x1="97.9247" y1="55.4348" x2="95.5133" y2="63.3624" gradientUnits="userSpaceOnUse">
<stop stop-color="#138EFF"/>
<stop offset="1" stop-color="#00E0FF"/>
</linearGradient>
<linearGradient id="paint7_linear_39_10204" x1="97.9247" y1="55.4348" x2="95.5133" y2="63.3624" gradientUnits="userSpaceOnUse">
<stop stop-color="white"/>
<stop offset="1" stop-color="white" stop-opacity="0"/>
</linearGradient>
<linearGradient id="paint8_linear_39_10204" x1="107.458" y1="55.4348" x2="105.047" y2="63.3624" gradientUnits="userSpaceOnUse">
<stop stop-color="#138EFF"/>
<stop offset="1" stop-color="#00E0FF"/>
</linearGradient>
<linearGradient id="paint9_linear_39_10204" x1="107.458" y1="55.4348" x2="105.047" y2="63.3624" gradientUnits="userSpaceOnUse">
<stop stop-color="white"/>
<stop offset="1" stop-color="white" stop-opacity="0"/>
</linearGradient>
<linearGradient id="paint10_linear_39_10204" x1="90.9064" y1="62.9812" x2="88.495" y2="70.9088" gradientUnits="userSpaceOnUse">
<stop stop-color="#138EFF"/>
<stop offset="1" stop-color="#00E0FF"/>
</linearGradient>
<linearGradient id="paint11_linear_39_10204" x1="90.9064" y1="62.9812" x2="88.495" y2="70.9088" gradientUnits="userSpaceOnUse">
<stop stop-color="white"/>
<stop offset="1" stop-color="white" stop-opacity="0"/>
</linearGradient>
<linearGradient id="paint12_linear_39_10204" x1="98.9611" y1="62.9812" x2="96.5497" y2="70.9088" gradientUnits="userSpaceOnUse">
<stop stop-color="#138EFF"/>
<stop offset="1" stop-color="#00E0FF"/>
</linearGradient>
<linearGradient id="paint13_linear_39_10204" x1="98.9611" y1="62.9812" x2="96.5497" y2="70.9088" gradientUnits="userSpaceOnUse">
<stop stop-color="white"/>
<stop offset="1" stop-color="white" stop-opacity="0"/>
</linearGradient>
</defs>
</svg>
