<svg width="182" height="154" viewBox="0 0 182 154" fill="none" xmlns="http://www.w3.org/2000/svg">
<g filter="url(#filter0_bd_39_10214)">
<mask id="path-1-inside-1_39_10214" fill="white">
<path fill-rule="evenodd" clip-rule="evenodd" d="M94.3025 60.2886C94.3224 60.2888 94.3424 60.2889 94.3624 60.2889C97.2076 60.2889 99.5141 57.9824 99.5141 55.1372C99.5141 52.292 97.2076 49.9855 94.3624 49.9855C94.3424 49.9855 94.3224 49.9856 94.3025 49.9859V49.9855H92.9716C93.0197 49.633 93.0445 49.273 93.0445 48.9073C93.0445 44.5402 89.5043 41 85.1372 41C80.7702 41 77.23 44.5402 77.23 48.9073C77.23 49.3193 77.2615 49.724 77.3222 50.1191C76.9462 50.0317 76.5543 49.9855 76.1517 49.9855C73.3065 49.9855 71 52.292 71 55.1372C71 57.9824 73.3065 60.2889 76.1517 60.2889C76.1718 60.2889 76.1919 60.2888 76.2119 60.2886L76.2116 60.2889H94.3025V60.2886Z"/>
</mask>
<path fill-rule="evenodd" clip-rule="evenodd" d="M94.3025 60.2886C94.3224 60.2888 94.3424 60.2889 94.3624 60.2889C97.2076 60.2889 99.5141 57.9824 99.5141 55.1372C99.5141 52.292 97.2076 49.9855 94.3624 49.9855C94.3424 49.9855 94.3224 49.9856 94.3025 49.9859V49.9855H92.9716C93.0197 49.633 93.0445 49.273 93.0445 48.9073C93.0445 44.5402 89.5043 41 85.1372 41C80.7702 41 77.23 44.5402 77.23 48.9073C77.23 49.3193 77.2615 49.724 77.3222 50.1191C76.9462 50.0317 76.5543 49.9855 76.1517 49.9855C73.3065 49.9855 71 52.292 71 55.1372C71 57.9824 73.3065 60.2889 76.1517 60.2889C76.1718 60.2889 76.1919 60.2888 76.2119 60.2886L76.2116 60.2889H94.3025V60.2886Z" fill="url(#paint0_linear_39_10214)" shape-rendering="crispEdges"/>
<path d="M94.3025 60.2886L94.3253 58.2887C93.7909 58.2826 93.2764 58.4906 92.8963 58.8664C92.5163 59.2421 92.3025 59.7542 92.3025 60.2886H94.3025ZM94.3025 49.9859H92.3025C92.3025 50.5202 92.5163 51.0324 92.8963 51.4081C93.2764 51.7838 93.7909 51.9918 94.3253 51.9857L94.3025 49.9859ZM94.3025 49.9855H96.3025C96.3025 48.881 95.4071 47.9855 94.3025 47.9855V49.9855ZM92.9716 49.9855L90.9899 49.7153C90.9119 50.2876 91.0851 50.8656 91.4649 51.3007C91.8447 51.7359 92.394 51.9855 92.9716 51.9855V49.9855ZM77.3222 50.1191L76.8696 52.0672C77.5162 52.2174 78.1952 52.0371 78.6819 51.5858C79.1687 51.1345 79.3999 50.4711 79.299 49.8151L77.3222 50.1191ZM76.2119 60.2886L77.781 61.5287C78.259 60.9239 78.3468 60.0984 78.0069 59.4066C77.667 58.7148 76.9598 58.2799 76.189 58.2887L76.2119 60.2886ZM76.2116 60.2889L74.6425 59.0489C74.1671 59.6504 74.0774 60.4707 74.4116 61.1607C74.7458 61.8507 75.445 62.2889 76.2116 62.2889V60.2889ZM94.3025 60.2889V62.2889C95.4071 62.2889 96.3025 61.3935 96.3025 60.2889H94.3025ZM94.2797 62.2885C94.3072 62.2888 94.3348 62.2889 94.3624 62.2889V58.2889C94.35 58.2889 94.3376 58.2889 94.3253 58.2887L94.2797 62.2885ZM94.3624 62.2889C98.3122 62.2889 101.514 59.087 101.514 55.1372H97.5141C97.5141 56.8779 96.103 58.2889 94.3624 58.2889V62.2889ZM101.514 55.1372C101.514 51.1875 98.3122 47.9855 94.3624 47.9855V51.9855C96.103 51.9855 97.5141 53.3966 97.5141 55.1372H101.514ZM94.3624 47.9855C94.3348 47.9855 94.3072 47.9857 94.2797 47.986L94.3253 51.9857C94.3376 51.9856 94.35 51.9855 94.3624 51.9855V47.9855ZM92.3025 49.9855V49.9859H96.3025V49.9855H92.3025ZM92.9716 51.9855H94.3025V47.9855H92.9716V51.9855ZM94.9533 50.2557C95.0135 49.8139 95.0445 49.3637 95.0445 48.9073H91.0445C91.0445 49.1824 91.0258 49.4521 90.9899 49.7153L94.9533 50.2557ZM95.0445 48.9073C95.0445 43.4356 90.6089 39 85.1372 39V43C88.3997 43 91.0445 45.6448 91.0445 48.9073H95.0445ZM85.1372 39C79.6656 39 75.23 43.4356 75.23 48.9073H79.23C79.23 45.6448 81.8747 43 85.1372 43V39ZM75.23 48.9073C75.23 49.4215 75.2693 49.9278 75.3455 50.4231L79.299 49.8151C79.2537 49.5203 79.23 49.2172 79.23 48.9073H75.23ZM77.7749 48.171C77.2515 48.0494 76.7078 47.9855 76.1517 47.9855V51.9855C76.4009 51.9855 76.6409 52.0141 76.8696 52.0672L77.7749 48.171ZM76.1517 47.9855C72.2019 47.9855 69 51.1875 69 55.1372H73C73 53.3966 74.4111 51.9855 76.1517 51.9855V47.9855ZM69 55.1372C69 59.087 72.2019 62.2889 76.1517 62.2889V58.2889C74.4111 58.2889 73 56.8779 73 55.1372H69ZM76.1517 62.2889C76.1794 62.2889 76.2071 62.2888 76.2347 62.2885L76.189 58.2887C76.1766 58.2889 76.1642 58.2889 76.1517 58.2889V62.2889ZM77.7808 61.529L77.781 61.5287L74.6427 59.0485L74.6425 59.0489L77.7808 61.529ZM94.3025 58.2889H76.2116V62.2889H94.3025V58.2889ZM92.3025 60.2886V60.2889H96.3025V60.2886H92.3025Z" fill="url(#paint1_linear_39_10214)" mask="url(#path-1-inside-1_39_10214)"/>
</g>
<g filter="url(#filter1_bd_39_10214)">
<mask id="path-3-inside-2_39_10214" fill="white">
<path fill-rule="evenodd" clip-rule="evenodd" d="M109.875 73.4923C109.903 73.4926 109.93 73.4928 109.958 73.4928C113.895 73.4928 117.087 70.3012 117.087 66.3642C117.087 62.4273 113.895 59.2357 109.958 59.2357C109.93 59.2357 109.903 59.2359 109.875 59.2362V59.2357H108.034C108.1 58.7479 108.135 58.2498 108.135 57.7437C108.135 51.7009 103.236 46.8022 97.1931 46.8022C91.1503 46.8022 86.2516 51.7009 86.2516 57.7437C86.2516 58.3139 86.2953 58.8739 86.3793 59.4205C85.859 59.2996 85.3168 59.2357 84.7596 59.2357C80.8227 59.2357 77.6311 62.4273 77.6311 66.3642C77.6311 70.3012 80.8227 73.4928 84.7596 73.4928C84.7874 73.4928 84.8152 73.4926 84.8429 73.4923L84.8425 73.4928H109.875V73.4923Z"/>
</mask>
<path fill-rule="evenodd" clip-rule="evenodd" d="M109.875 73.4923C109.903 73.4926 109.93 73.4928 109.958 73.4928C113.895 73.4928 117.087 70.3012 117.087 66.3642C117.087 62.4273 113.895 59.2357 109.958 59.2357C109.93 59.2357 109.903 59.2359 109.875 59.2362V59.2357H108.034C108.1 58.7479 108.135 58.2498 108.135 57.7437C108.135 51.7009 103.236 46.8022 97.1931 46.8022C91.1503 46.8022 86.2516 51.7009 86.2516 57.7437C86.2516 58.3139 86.2953 58.8739 86.3793 59.4205C85.859 59.2996 85.3168 59.2357 84.7596 59.2357C80.8227 59.2357 77.6311 62.4273 77.6311 66.3642C77.6311 70.3012 80.8227 73.4928 84.7596 73.4928C84.7874 73.4928 84.8152 73.4926 84.8429 73.4923L84.8425 73.4928H109.875V73.4923Z" fill="url(#paint2_linear_39_10214)" shape-rendering="crispEdges"/>
<path d="M109.875 73.4923L109.898 71.4924C109.364 71.4863 108.849 71.6943 108.469 72.07C108.089 72.4457 107.875 72.9579 107.875 73.4923H109.875ZM109.875 59.2362H107.875C107.875 59.7706 108.089 60.2827 108.469 60.6584C108.849 61.0341 109.364 61.2422 109.898 61.2361L109.875 59.2362ZM109.875 59.2357H111.875C111.875 58.1311 110.98 57.2357 109.875 57.2357V59.2357ZM108.034 59.2357L106.052 58.9655C105.974 59.5378 106.147 60.1158 106.527 60.5509C106.907 60.986 107.456 61.2357 108.034 61.2357V59.2357ZM86.3793 59.4205L85.9267 61.3686C86.5733 61.5189 87.2522 61.3385 87.739 60.8872C88.2258 60.436 88.457 59.7726 88.3561 59.1165L86.3793 59.4205ZM84.8429 73.4923L86.4138 74.7301C86.8905 74.1251 86.9775 73.3001 86.6373 72.609C86.2971 71.9179 85.5903 71.4836 84.82 71.4924L84.8429 73.4923ZM84.8425 73.4928L83.2716 72.2549C82.7974 72.8567 82.7087 73.6765 83.0431 74.3658C83.3775 75.0551 84.0764 75.4928 84.8425 75.4928V73.4928ZM109.875 73.4928V75.4928C110.98 75.4928 111.875 74.5973 111.875 73.4928H109.875ZM109.852 75.4922C109.888 75.4926 109.923 75.4928 109.958 75.4928V71.4928C109.938 71.4928 109.918 71.4926 109.898 71.4924L109.852 75.4922ZM109.958 75.4928C115 75.4928 119.087 71.4058 119.087 66.3642H115.087C115.087 69.1966 112.791 71.4928 109.958 71.4928V75.4928ZM119.087 66.3642C119.087 61.3227 115 57.2357 109.958 57.2357V61.2357C112.791 61.2357 115.087 63.5318 115.087 66.3642H119.087ZM109.958 57.2357C109.923 57.2357 109.888 57.2359 109.852 57.2363L109.898 61.2361C109.918 61.2358 109.938 61.2357 109.958 61.2357V57.2357ZM107.875 59.2357V59.2362H111.875V59.2357H107.875ZM108.034 61.2357H109.875V57.2357H108.034V61.2357ZM110.015 59.5059C110.094 58.9288 110.135 58.3404 110.135 57.7437H106.135C106.135 58.1592 106.106 58.567 106.052 58.9655L110.015 59.5059ZM110.135 57.7437C110.135 50.5963 104.34 44.8022 97.1931 44.8022V48.8022C102.131 48.8022 106.135 52.8055 106.135 57.7437H110.135ZM97.1931 44.8022C90.0457 44.8022 84.2516 50.5963 84.2516 57.7437H88.2516C88.2516 52.8055 92.2549 48.8022 97.1931 48.8022V44.8022ZM84.2516 57.7437C84.2516 58.416 84.3031 59.0776 84.4026 59.7245L88.3561 59.1165C88.2874 58.6701 88.2516 58.2117 88.2516 57.7437H84.2516ZM86.832 57.4724C86.1642 57.3173 85.4702 57.2357 84.7596 57.2357V61.2357C85.1633 61.2357 85.5537 61.282 85.9267 61.3686L86.832 57.4724ZM84.7596 57.2357C79.7181 57.2357 75.6311 61.3227 75.6311 66.3642H79.6311C79.6311 63.5318 81.9272 61.2357 84.7596 61.2357V57.2357ZM75.6311 66.3642C75.6311 71.4058 79.7181 75.4928 84.7596 75.4928V71.4928C81.9272 71.4928 79.6311 69.1966 79.6311 66.3642H75.6311ZM84.7596 75.4928C84.7951 75.4928 84.8305 75.4926 84.8657 75.4922L84.82 71.4924C84.7999 71.4926 84.7797 71.4928 84.7596 71.4928V75.4928ZM86.4134 74.7306L86.4138 74.7301L83.272 72.2544L83.2716 72.2549L86.4134 74.7306ZM109.875 71.4928H84.8425V75.4928H109.875V71.4928ZM107.875 73.4923V73.4928H111.875V73.4923H107.875Z" fill="url(#paint3_linear_39_10214)" mask="url(#path-3-inside-2_39_10214)"/>
</g>
<g filter="url(#filter2_bdd_39_10214)">
<path d="M105.939 73.6007L112.042 62.4318C112.393 61.79 113.066 61.3909 113.797 61.3909H117.843C119.346 61.3909 120.312 62.9872 119.615 64.3189L117.132 69.058C116.471 70.321 117.387 71.835 118.813 71.835C120.452 71.835 121.319 73.7747 120.226 74.9966L111.818 84.3942C110.343 86.0422 107.68 84.432 108.454 82.3605L109.612 79.2598C110.101 77.9526 109.114 76.5597 107.718 76.5597C106.199 76.5597 105.21 74.9334 105.939 73.6007Z" fill="url(#paint4_linear_39_10214)"/>
<path d="M106.816 74.0802L112.919 62.9113C113.095 62.5905 113.431 62.3909 113.797 62.3909H117.843C118.595 62.3909 119.078 63.189 118.729 63.8549L116.246 68.594C115.236 70.5228 116.635 72.835 118.813 72.835C119.588 72.835 119.998 73.7521 119.481 74.3298L111.072 83.7274C110.335 84.5514 109.003 83.7463 109.39 82.7106L110.549 79.6098C111.287 77.6342 109.795 75.5597 107.718 75.5597C106.938 75.5597 106.462 74.7287 106.816 74.0802Z" stroke="url(#paint5_linear_39_10214)" stroke-width="2"/>
</g>
<g filter="url(#filter3_bd_39_10214)">
<mask id="path-7-inside-3_39_10214" fill="white">
<path fill-rule="evenodd" clip-rule="evenodd" d="M122.817 66.0908C122.837 66.0911 122.857 66.0912 122.877 66.0912C125.722 66.0912 128.028 63.7847 128.028 60.9395C128.028 58.0943 125.722 55.7878 122.877 55.7878C122.857 55.7878 122.837 55.7879 122.817 55.7881V55.7878H121.486C121.534 55.4352 121.559 55.0753 121.559 54.7095C121.559 50.3425 118.018 46.8022 113.651 46.8022C109.284 46.8022 105.744 50.3425 105.744 54.7095C105.744 55.1216 105.776 55.5263 105.836 55.9213C105.46 55.834 105.069 55.7878 104.666 55.7878C101.821 55.7878 99.5142 58.0943 99.5142 60.9395C99.5142 63.7847 101.821 66.0912 104.666 66.0912C104.686 66.0912 104.706 66.0911 104.726 66.0908L104.726 66.0912H122.817V66.0908Z"/>
</mask>
<path fill-rule="evenodd" clip-rule="evenodd" d="M122.817 66.0908C122.837 66.0911 122.857 66.0912 122.877 66.0912C125.722 66.0912 128.028 63.7847 128.028 60.9395C128.028 58.0943 125.722 55.7878 122.877 55.7878C122.857 55.7878 122.837 55.7879 122.817 55.7881V55.7878H121.486C121.534 55.4352 121.559 55.0753 121.559 54.7095C121.559 50.3425 118.018 46.8022 113.651 46.8022C109.284 46.8022 105.744 50.3425 105.744 54.7095C105.744 55.1216 105.776 55.5263 105.836 55.9213C105.46 55.834 105.069 55.7878 104.666 55.7878C101.821 55.7878 99.5142 58.0943 99.5142 60.9395C99.5142 63.7847 101.821 66.0912 104.666 66.0912C104.686 66.0912 104.706 66.0911 104.726 66.0908L104.726 66.0912H122.817V66.0908Z" fill="url(#paint6_linear_39_10214)" shape-rendering="crispEdges"/>
<path d="M122.817 66.0908L122.839 64.091C122.305 64.0849 121.791 64.2929 121.411 64.6686C121.03 65.0443 120.817 65.5565 120.817 66.0908H122.817ZM122.817 55.7881H120.817C120.817 56.3225 121.03 56.8346 121.411 57.2104C121.791 57.5861 122.305 57.7941 122.839 57.788L122.817 55.7881ZM122.817 55.7878H124.817C124.817 54.6832 123.921 53.7878 122.817 53.7878V55.7878ZM121.486 55.7878L119.504 55.5176C119.426 56.0898 119.599 56.6679 119.979 57.103C120.359 57.5381 120.908 57.7878 121.486 57.7878V55.7878ZM105.836 55.9213L105.384 57.8694C106.03 58.0197 106.709 57.8393 107.196 57.388C107.683 56.9368 107.914 56.2734 107.813 55.6173L105.836 55.9213ZM104.726 66.0908L106.299 67.3267C106.774 66.7214 106.86 65.8969 106.52 65.2064C106.179 64.516 105.473 64.0822 104.703 64.091L104.726 66.0908ZM104.726 66.0912L103.153 64.8554C102.68 65.4574 102.592 66.2767 102.927 66.9654C103.262 67.654 103.96 68.0912 104.726 68.0912V66.0912ZM122.817 66.0912V68.0912C123.921 68.0912 124.817 67.1958 124.817 66.0912H122.817ZM122.794 68.0907C122.821 68.091 122.849 68.0912 122.877 68.0912V64.0912C122.864 64.0912 122.852 64.0911 122.839 64.091L122.794 68.0907ZM122.877 68.0912C126.826 68.0912 130.028 64.8893 130.028 60.9395H126.028C126.028 62.6801 124.617 64.0912 122.877 64.0912V68.0912ZM130.028 60.9395C130.028 56.9897 126.826 53.7878 122.877 53.7878V57.7878C124.617 57.7878 126.028 59.1988 126.028 60.9395H130.028ZM122.877 53.7878C122.849 53.7878 122.821 53.7879 122.794 53.7882L122.839 57.788C122.852 57.7878 122.864 57.7878 122.877 57.7878V53.7878ZM120.817 55.7878V55.7881H124.817V55.7878H120.817ZM121.486 57.7878H122.817V53.7878H121.486V57.7878ZM123.467 56.058C123.528 55.6161 123.559 55.1659 123.559 54.7095H119.559C119.559 54.9846 119.54 55.2543 119.504 55.5176L123.467 56.058ZM123.559 54.7095C123.559 49.2379 119.123 44.8022 113.651 44.8022V48.8022C116.914 48.8022 119.559 51.447 119.559 54.7095H123.559ZM113.651 44.8022C108.18 44.8022 103.744 49.2379 103.744 54.7095H107.744C107.744 51.447 110.389 48.8022 113.651 48.8022V44.8022ZM103.744 54.7095C103.744 55.2237 103.783 55.73 103.86 56.2254L107.813 55.6173C107.768 55.3225 107.744 55.0194 107.744 54.7095H103.744ZM106.289 53.9732C105.766 53.8516 105.222 53.7878 104.666 53.7878V57.7878C104.915 57.7878 105.155 57.8163 105.384 57.8694L106.289 53.9732ZM104.666 53.7878C100.716 53.7878 97.5142 56.9897 97.5142 60.9395H101.514C101.514 59.1988 102.925 57.7878 104.666 57.7878V53.7878ZM97.5142 60.9395C97.5142 64.8893 100.716 68.0912 104.666 68.0912V64.0912C102.925 64.0912 101.514 62.6801 101.514 60.9395H97.5142ZM104.666 68.0912C104.694 68.0912 104.721 68.091 104.749 68.0907L104.703 64.091C104.691 64.0911 104.678 64.0912 104.666 64.0912V68.0912ZM106.298 67.327L106.299 67.3267L103.154 64.855L103.153 64.8554L106.298 67.327ZM122.817 64.0912H104.726V68.0912H122.817V64.0912ZM120.817 66.0908V66.0912H124.817V66.0908H120.817Z" fill="url(#paint7_linear_39_10214)" mask="url(#path-7-inside-3_39_10214)"/>
</g>
<g filter="url(#filter4_bdd_39_10214)">
<path d="M77.9514 78.6723L79.0501 77.2621L79.1774 79.0452C79.2117 79.5254 78.7537 79.8908 78.2931 79.7507C77.8325 79.6105 77.6555 79.0521 77.9514 78.6723Z" fill="url(#paint8_linear_39_10214)" stroke="url(#paint9_linear_39_10214)" stroke-width="3"/>
<path d="M87.4851 78.6723L88.5838 77.2621L88.7111 79.0452C88.7454 79.5254 88.2874 79.8908 87.8268 79.7507C87.3662 79.6105 87.1892 79.0521 87.4851 78.6723Z" fill="url(#paint10_linear_39_10214)" stroke="url(#paint11_linear_39_10214)" stroke-width="3"/>
<path d="M97.0186 78.6723L98.1172 77.2621L98.2445 79.0452C98.2788 79.5254 97.8209 79.8908 97.3602 79.7507C96.8996 79.6105 96.7227 79.0521 97.0186 78.6723Z" fill="url(#paint12_linear_39_10214)" stroke="url(#paint13_linear_39_10214)" stroke-width="3"/>
</g>
<g filter="url(#filter5_bdd_39_10214)">
<path d="M81.5986 86.2186L82.6973 84.8085L82.8246 86.5916C82.8589 87.0718 82.4009 87.4372 81.9403 87.2971C81.4797 87.1569 81.3027 86.5984 81.5986 86.2186Z" fill="url(#paint14_linear_39_10214)" stroke="url(#paint15_linear_39_10214)" stroke-width="3"/>
<path d="M91.2139 86.2186L92.3125 84.8085L92.4398 86.5916C92.4741 87.0718 92.0162 87.4372 91.5555 87.2971C91.0949 87.1569 90.918 86.5984 91.2139 86.2186Z" fill="url(#paint16_linear_39_10214)" stroke="url(#paint17_linear_39_10214)" stroke-width="3"/>
</g>
<defs>
<filter id="filter0_bd_39_10214" x="0" y="6" width="128.514" height="119.289" filterUnits="userSpaceOnUse" color-interpolation-filters="sRGB">
<feFlood flood-opacity="0" result="BackgroundImageFix"/>
<feGaussianBlur in="BackgroundImageFix" stdDeviation="7"/>
<feComposite in2="SourceAlpha" operator="in" result="effect1_backgroundBlur_39_10214"/>
<feColorMatrix in="SourceAlpha" type="matrix" values="0 0 0 0 0 0 0 0 0 0 0 0 0 0 0 0 0 0 127 0" result="hardAlpha"/>
<feOffset dx="-21" dy="15"/>
<feGaussianBlur stdDeviation="25"/>
<feComposite in2="hardAlpha" operator="out"/>
<feColorMatrix type="matrix" values="0 0 0 0 0.113438 0 0 0 0 0.148981 0 0 0 0 0.275 0 0 0 0.25 0"/>
<feBlend mode="normal" in2="effect1_backgroundBlur_39_10214" result="effect2_dropShadow_39_10214"/>
<feBlend mode="normal" in="SourceGraphic" in2="effect2_dropShadow_39_10214" result="shape"/>
</filter>
<filter id="filter1_bd_39_10214" x="6.6311" y="11.8022" width="139.456" height="126.691" filterUnits="userSpaceOnUse" color-interpolation-filters="sRGB">
<feFlood flood-opacity="0" result="BackgroundImageFix"/>
<feGaussianBlur in="BackgroundImageFix" stdDeviation="7"/>
<feComposite in2="SourceAlpha" operator="in" result="effect1_backgroundBlur_39_10214"/>
<feColorMatrix in="SourceAlpha" type="matrix" values="0 0 0 0 0 0 0 0 0 0 0 0 0 0 0 0 0 0 127 0" result="hardAlpha"/>
<feOffset dx="-21" dy="15"/>
<feGaussianBlur stdDeviation="25"/>
<feComposite in2="hardAlpha" operator="out"/>
<feColorMatrix type="matrix" values="0 0 0 0 0.113725 0 0 0 0 0.14902 0 0 0 0 0.27451 0 0 0 0.25 0"/>
<feBlend mode="normal" in2="effect1_backgroundBlur_39_10214" result="effect2_dropShadow_39_10214"/>
<feBlend mode="normal" in="SourceGraphic" in2="effect2_dropShadow_39_10214" result="shape"/>
</filter>
<filter id="filter2_bdd_39_10214" x="34.6943" y="0.390869" width="147.019" height="149.683" filterUnits="userSpaceOnUse" color-interpolation-filters="sRGB">
<feFlood flood-opacity="0" result="BackgroundImageFix"/>
<feGaussianBlur in="BackgroundImageFix" stdDeviation="7"/>
<feComposite in2="SourceAlpha" operator="in" result="effect1_backgroundBlur_39_10214"/>
<feColorMatrix in="SourceAlpha" type="matrix" values="0 0 0 0 0 0 0 0 0 0 0 0 0 0 0 0 0 0 127 0" result="hardAlpha"/>
<feOffset dx="-21" dy="15"/>
<feGaussianBlur stdDeviation="25"/>
<feComposite in2="hardAlpha" operator="out"/>
<feColorMatrix type="matrix" values="0 0 0 0 0.113438 0 0 0 0 0.148981 0 0 0 0 0.275 0 0 0 0.25 0"/>
<feBlend mode="normal" in2="effect1_backgroundBlur_39_10214" result="effect2_dropShadow_39_10214"/>
<feColorMatrix in="SourceAlpha" type="matrix" values="0 0 0 0 0 0 0 0 0 0 0 0 0 0 0 0 0 0 127 0" result="hardAlpha"/>
<feOffset/>
<feGaussianBlur stdDeviation="30.5"/>
<feComposite in2="hardAlpha" operator="out"/>
<feColorMatrix type="matrix" values="0 0 0 0 1 0 0 0 0 0.721569 0 0 0 0 0.00392157 0 0 0 0.49 0"/>
<feBlend mode="normal" in2="effect2_dropShadow_39_10214" result="effect3_dropShadow_39_10214"/>
<feBlend mode="normal" in="SourceGraphic" in2="effect3_dropShadow_39_10214" result="shape"/>
</filter>
<filter id="filter3_bd_39_10214" x="28.5142" y="11.8022" width="128.514" height="119.289" filterUnits="userSpaceOnUse" color-interpolation-filters="sRGB">
<feFlood flood-opacity="0" result="BackgroundImageFix"/>
<feGaussianBlur in="BackgroundImageFix" stdDeviation="7"/>
<feComposite in2="SourceAlpha" operator="in" result="effect1_backgroundBlur_39_10214"/>
<feColorMatrix in="SourceAlpha" type="matrix" values="0 0 0 0 0 0 0 0 0 0 0 0 0 0 0 0 0 0 127 0" result="hardAlpha"/>
<feOffset dx="-21" dy="15"/>
<feGaussianBlur stdDeviation="25"/>
<feComposite in2="hardAlpha" operator="out"/>
<feColorMatrix type="matrix" values="0 0 0 0 0.113438 0 0 0 0 0.148981 0 0 0 0 0.275 0 0 0 0.25 0"/>
<feBlend mode="normal" in2="effect1_backgroundBlur_39_10214" result="effect2_dropShadow_39_10214"/>
<feBlend mode="normal" in="SourceGraphic" in2="effect2_dropShadow_39_10214" result="shape"/>
</filter>
<filter id="filter4_bdd_39_10214" x="5.30518" y="27.1558" width="135.441" height="119.126" filterUnits="userSpaceOnUse" color-interpolation-filters="sRGB">
<feFlood flood-opacity="0" result="BackgroundImageFix"/>
<feGaussianBlur in="BackgroundImageFix" stdDeviation="7"/>
<feComposite in2="SourceAlpha" operator="in" result="effect1_backgroundBlur_39_10214"/>
<feColorMatrix in="SourceAlpha" type="matrix" values="0 0 0 0 0 0 0 0 0 0 0 0 0 0 0 0 0 0 127 0" result="hardAlpha"/>
<feOffset dx="-21" dy="15"/>
<feGaussianBlur stdDeviation="25"/>
<feComposite in2="hardAlpha" operator="out"/>
<feColorMatrix type="matrix" values="0 0 0 0 0.113438 0 0 0 0 0.148981 0 0 0 0 0.275 0 0 0 0.25 0"/>
<feBlend mode="normal" in2="effect1_backgroundBlur_39_10214" result="effect2_dropShadow_39_10214"/>
<feColorMatrix in="SourceAlpha" type="matrix" values="0 0 0 0 0 0 0 0 0 0 0 0 0 0 0 0 0 0 127 0" result="hardAlpha"/>
<feOffset dy="-7"/>
<feGaussianBlur stdDeviation="20.5"/>
<feComposite in2="hardAlpha" operator="out"/>
<feColorMatrix type="matrix" values="0 0 0 0 0.1375 0 0 0 0 0.74125 0 0 0 0 1 0 0 0 0.3 0"/>
<feBlend mode="normal" in2="effect2_dropShadow_39_10214" result="effect3_dropShadow_39_10214"/>
<feBlend mode="normal" in="SourceGraphic" in2="effect3_dropShadow_39_10214" result="shape"/>
</filter>
<filter id="filter5_bdd_39_10214" x="8.95239" y="34.7021" width="125.99" height="119.126" filterUnits="userSpaceOnUse" color-interpolation-filters="sRGB">
<feFlood flood-opacity="0" result="BackgroundImageFix"/>
<feGaussianBlur in="BackgroundImageFix" stdDeviation="7"/>
<feComposite in2="SourceAlpha" operator="in" result="effect1_backgroundBlur_39_10214"/>
<feColorMatrix in="SourceAlpha" type="matrix" values="0 0 0 0 0 0 0 0 0 0 0 0 0 0 0 0 0 0 127 0" result="hardAlpha"/>
<feOffset dx="-21" dy="15"/>
<feGaussianBlur stdDeviation="25"/>
<feComposite in2="hardAlpha" operator="out"/>
<feColorMatrix type="matrix" values="0 0 0 0 0.113438 0 0 0 0 0.148981 0 0 0 0 0.275 0 0 0 0.25 0"/>
<feBlend mode="normal" in2="effect1_backgroundBlur_39_10214" result="effect2_dropShadow_39_10214"/>
<feColorMatrix in="SourceAlpha" type="matrix" values="0 0 0 0 0 0 0 0 0 0 0 0 0 0 0 0 0 0 127 0" result="hardAlpha"/>
<feOffset dy="-7"/>
<feGaussianBlur stdDeviation="20.5"/>
<feComposite in2="hardAlpha" operator="out"/>
<feColorMatrix type="matrix" values="0 0 0 0 0.1375 0 0 0 0 0.74125 0 0 0 0 1 0 0 0 0.3 0"/>
<feBlend mode="normal" in2="effect2_dropShadow_39_10214" result="effect3_dropShadow_39_10214"/>
<feBlend mode="normal" in="SourceGraphic" in2="effect3_dropShadow_39_10214" result="shape"/>
</filter>
<linearGradient id="paint0_linear_39_10214" x1="86.5833" y1="41.5802" x2="86.5833" y2="62.4685" gradientUnits="userSpaceOnUse">
<stop stop-color="white"/>
<stop offset="1" stop-color="white" stop-opacity="0"/>
</linearGradient>
<linearGradient id="paint1_linear_39_10214" x1="85.257" y1="41" x2="85.257" y2="60.2889" gradientUnits="userSpaceOnUse">
<stop stop-color="white"/>
<stop offset="1" stop-color="white" stop-opacity="0"/>
</linearGradient>
<linearGradient id="paint2_linear_39_10214" x1="97.3589" y1="38.2646" x2="97.3589" y2="77.2228" gradientUnits="userSpaceOnUse">
<stop stop-color="white"/>
<stop offset="1" stop-color="white" stop-opacity="0"/>
</linearGradient>
<linearGradient id="paint3_linear_39_10214" x1="97.3589" y1="46.8022" x2="97.3589" y2="73.4928" gradientUnits="userSpaceOnUse">
<stop stop-color="white"/>
<stop offset="1" stop-color="white" stop-opacity="0"/>
</linearGradient>
<linearGradient id="paint4_linear_39_10214" x1="115.512" y1="63.2144" x2="111.367" y2="81.2015" gradientUnits="userSpaceOnUse">
<stop stop-color="#FF4D00"/>
<stop offset="1" stop-color="#FFB800"/>
</linearGradient>
<linearGradient id="paint5_linear_39_10214" x1="109.958" y1="80.9529" x2="117.501" y2="64.7894" gradientUnits="userSpaceOnUse">
<stop stop-color="white"/>
<stop offset="1" stop-color="white" stop-opacity="0"/>
</linearGradient>
<linearGradient id="paint6_linear_39_10214" x1="115.097" y1="47.3825" x2="115.097" y2="68.2707" gradientUnits="userSpaceOnUse">
<stop stop-color="white"/>
<stop offset="1" stop-color="white" stop-opacity="0"/>
</linearGradient>
<linearGradient id="paint7_linear_39_10214" x1="113.771" y1="46.8022" x2="113.771" y2="66.0912" gradientUnits="userSpaceOnUse">
<stop stop-color="white"/>
<stop offset="1" stop-color="white" stop-opacity="0"/>
</linearGradient>
<linearGradient id="paint8_linear_39_10214" x1="80.268" y1="73.2582" x2="77.8566" y2="81.1857" gradientUnits="userSpaceOnUse">
<stop stop-color="#138EFF"/>
<stop offset="1" stop-color="#00E0FF"/>
</linearGradient>
<linearGradient id="paint9_linear_39_10214" x1="80.268" y1="73.2582" x2="77.8566" y2="81.1857" gradientUnits="userSpaceOnUse">
<stop stop-color="white"/>
<stop offset="1" stop-color="white" stop-opacity="0"/>
</linearGradient>
<linearGradient id="paint10_linear_39_10214" x1="89.8017" y1="73.2582" x2="87.3903" y2="81.1857" gradientUnits="userSpaceOnUse">
<stop stop-color="#138EFF"/>
<stop offset="1" stop-color="#00E0FF"/>
</linearGradient>
<linearGradient id="paint11_linear_39_10214" x1="89.8017" y1="73.2582" x2="87.3903" y2="81.1857" gradientUnits="userSpaceOnUse">
<stop stop-color="white"/>
<stop offset="1" stop-color="white" stop-opacity="0"/>
</linearGradient>
<linearGradient id="paint12_linear_39_10214" x1="99.3351" y1="73.2582" x2="96.9237" y2="81.1857" gradientUnits="userSpaceOnUse">
<stop stop-color="#138EFF"/>
<stop offset="1" stop-color="#00E0FF"/>
</linearGradient>
<linearGradient id="paint13_linear_39_10214" x1="99.3351" y1="73.2582" x2="96.9237" y2="81.1857" gradientUnits="userSpaceOnUse">
<stop stop-color="white"/>
<stop offset="1" stop-color="white" stop-opacity="0"/>
</linearGradient>
<linearGradient id="paint14_linear_39_10214" x1="83.9152" y1="80.8046" x2="81.5038" y2="88.7321" gradientUnits="userSpaceOnUse">
<stop stop-color="#138EFF"/>
<stop offset="1" stop-color="#00E0FF"/>
</linearGradient>
<linearGradient id="paint15_linear_39_10214" x1="83.9152" y1="80.8046" x2="81.5038" y2="88.7321" gradientUnits="userSpaceOnUse">
<stop stop-color="white"/>
<stop offset="1" stop-color="white" stop-opacity="0"/>
</linearGradient>
<linearGradient id="paint16_linear_39_10214" x1="93.5304" y1="80.8046" x2="91.119" y2="88.7321" gradientUnits="userSpaceOnUse">
<stop stop-color="#138EFF"/>
<stop offset="1" stop-color="#00E0FF"/>
</linearGradient>
<linearGradient id="paint17_linear_39_10214" x1="93.5304" y1="80.8046" x2="91.119" y2="88.7321" gradientUnits="userSpaceOnUse">
<stop stop-color="white"/>
<stop offset="1" stop-color="white" stop-opacity="0"/>
</linearGradient>
</defs>
</svg>
