<svg width="137" height="146" viewBox="0 0 137 146" fill="none" xmlns="http://www.w3.org/2000/svg">
<g filter="url(#filter0_f_39_10207)">
<circle cx="79.8574" cy="56.7021" r="12.7021" fill="#FFC701" fill-opacity="0.5"/>
</g>
<circle cx="79.8574" cy="57.1185" r="11.2856" fill="url(#paint0_linear_39_10207)" stroke="url(#paint1_linear_39_10207)" stroke-width="2"/>
<mask id="mask0_39_10207" style="mask-type:alpha" maskUnits="userSpaceOnUse" x="67" y="51" width="26" height="19">
<path d="M92.1431 57.1186C92.1431 63.9037 86.6426 69.4042 79.8574 69.4042C73.0722 69.4042 67.5718 63.9037 67.5718 57.1186C67.5718 50.3334 72.1352 51.9128 78.9204 51.9128C85.7056 51.9128 92.1431 50.3334 92.1431 57.1186Z" fill="url(#paint2_linear_39_10207)"/>
</mask>
<g mask="url(#mask0_39_10207)">
<g filter="url(#filter1_f_39_10207)">
<path fill-rule="evenodd" clip-rule="evenodd" d="M98.5984 79.6075C98.5984 84.5526 94.5895 88.5614 89.6444 88.5614C89.6097 88.5614 89.575 88.5612 89.5403 88.5608V88.5614H58.0974L58.0977 88.5611C58.0629 88.5615 58.0281 88.5617 57.9932 88.5617C53.0481 88.5617 49.0393 84.5529 49.0393 79.6077C49.0393 74.6626 53.0481 70.6538 57.9932 70.6538C62.2558 70.6538 65.8226 73.6323 66.7261 77.6215L69.7584 73.777L79.2329 70.6536H89.5403V70.6542C89.575 70.6538 89.6097 70.6536 89.6444 70.6536C94.5895 70.6536 98.5984 74.6624 98.5984 79.6075Z" fill="#E18700"/>
</g>
</g>
<g filter="url(#filter2_bd_39_10207)">
<mask id="path-5-inside-1_39_10207" fill="white">
<path fill-rule="evenodd" clip-rule="evenodd" d="M100.589 80.3053C100.614 80.3056 100.64 80.3058 100.665 80.3058C104.238 80.3058 107.136 77.4087 107.136 73.8349C107.136 70.2611 104.238 67.3639 100.665 67.3639C100.64 67.3639 100.614 67.3641 100.589 67.3644V67.3639H98.9177C98.9781 66.9211 99.0093 66.4689 99.0093 66.0095C99.0093 60.5241 94.5625 56.0774 89.0772 56.0774C83.5918 56.0774 79.1451 60.5241 79.1451 66.0095C79.1451 66.5271 79.1847 67.0355 79.261 67.5317C78.7887 67.422 78.2965 67.3639 77.7907 67.3639C74.217 67.3639 71.3198 70.2611 71.3198 73.8349C71.3198 77.4087 74.217 80.3058 77.7907 80.3058C77.8159 80.3058 77.8411 80.3056 77.8662 80.3053L77.8659 80.3058H100.589V80.3053Z"/>
</mask>
<path fill-rule="evenodd" clip-rule="evenodd" d="M100.589 80.3053C100.614 80.3056 100.64 80.3058 100.665 80.3058C104.238 80.3058 107.136 77.4087 107.136 73.8349C107.136 70.2611 104.238 67.3639 100.665 67.3639C100.64 67.3639 100.614 67.3641 100.589 67.3644V67.3639H98.9177C98.9781 66.9211 99.0093 66.4689 99.0093 66.0095C99.0093 60.5241 94.5625 56.0774 89.0772 56.0774C83.5918 56.0774 79.1451 60.5241 79.1451 66.0095C79.1451 66.5271 79.1847 67.0355 79.261 67.5317C78.7887 67.422 78.2965 67.3639 77.7907 67.3639C74.217 67.3639 71.3198 70.2611 71.3198 73.8349C71.3198 77.4087 74.217 80.3058 77.7907 80.3058C77.8159 80.3058 77.8411 80.3056 77.8662 80.3053L77.8659 80.3058H100.589V80.3053Z" fill="url(#paint3_linear_39_10207)" shape-rendering="crispEdges"/>
<path d="M100.589 80.3053L100.612 78.3055C100.078 78.2994 99.5632 78.5074 99.1831 78.8831C98.8031 79.2588 98.5893 79.771 98.5893 80.3053H100.589ZM100.589 67.3644H98.5893C98.5893 67.8988 98.8031 68.4109 99.1832 68.7866C99.5632 69.1624 100.078 69.3704 100.612 69.3642L100.589 67.3644ZM100.589 67.3639H102.589C102.589 66.2594 101.694 65.3639 100.589 65.3639V67.3639ZM98.9177 67.3639L96.936 67.0937C96.858 67.666 97.0312 68.244 97.411 68.6792C97.7908 69.1143 98.3402 69.3639 98.9177 69.3639V67.3639ZM79.261 67.5317L78.8084 69.4798C79.455 69.63 80.1339 69.4497 80.6207 68.9984C81.1075 68.5471 81.3387 67.8837 81.2378 67.2277L79.261 67.5317ZM77.8662 80.3053L79.4365 81.5439C79.9137 80.939 80.0009 80.1138 79.6608 79.4225C79.3207 78.7312 78.6138 78.2967 77.8434 78.3055L77.8662 80.3053ZM77.8659 80.3058L76.2955 79.0672C75.821 79.6689 75.7319 80.4889 76.0663 81.1784C76.4006 81.8679 77.0995 82.3058 77.8659 82.3058V80.3058ZM100.589 80.3058V82.3058C101.694 82.3058 102.589 81.4103 102.589 80.3058H100.589ZM100.566 82.3052C100.599 82.3056 100.632 82.3058 100.665 82.3058V78.3058C100.647 78.3058 100.63 78.3057 100.612 78.3055L100.566 82.3052ZM100.665 82.3058C105.343 82.3058 109.136 78.5132 109.136 73.8349H105.136C105.136 76.3041 103.134 78.3058 100.665 78.3058V82.3058ZM109.136 73.8349C109.136 69.1565 105.343 65.3639 100.665 65.3639V69.3639C103.134 69.3639 105.136 71.3656 105.136 73.8349H109.136ZM100.665 65.3639C100.632 65.3639 100.599 65.3641 100.566 65.3645L100.612 69.3642C100.63 69.364 100.647 69.3639 100.665 69.3639V65.3639ZM98.5893 67.3639V67.3644H102.589V67.3639H98.5893ZM98.9177 69.3639H100.589V65.3639H98.9177V69.3639ZM100.899 67.6342C100.972 67.102 101.009 66.5596 101.009 66.0095H97.0093C97.0093 66.3783 96.9843 66.7402 96.936 67.0937L100.899 67.6342ZM101.009 66.0095C101.009 59.4196 95.6671 54.0774 89.0772 54.0774V58.0774C93.458 58.0774 97.0093 61.6287 97.0093 66.0095H101.009ZM89.0772 54.0774C82.4873 54.0774 77.1451 59.4196 77.1451 66.0095H81.1451C81.1451 61.6287 84.6964 58.0774 89.0772 58.0774V54.0774ZM77.1451 66.0095C77.1451 66.6292 77.1925 67.2392 77.2843 67.8357L81.2378 67.2277C81.1769 66.8317 81.1451 66.425 81.1451 66.0095H77.1451ZM79.7136 65.5836C79.0939 65.4396 78.4499 65.3639 77.7907 65.3639V69.3639C78.143 69.3639 78.4834 69.4043 78.8084 69.4798L79.7136 65.5836ZM77.7907 65.3639C73.1124 65.3639 69.3198 69.1565 69.3198 73.8349H73.3198C73.3198 71.3656 75.3215 69.3639 77.7907 69.3639V65.3639ZM69.3198 73.8349C69.3198 78.5132 73.1124 82.3058 77.7907 82.3058V78.3058C75.3215 78.3058 73.3198 76.3041 73.3198 73.8349H69.3198ZM77.7907 82.3058C77.8236 82.3058 77.8563 82.3056 77.889 82.3052L77.8434 78.3055C77.8258 78.3057 77.8083 78.3058 77.7907 78.3058V82.3058ZM79.4362 81.5443L79.4365 81.5439L76.2959 79.0668L76.2955 79.0672L79.4362 81.5443ZM100.589 78.3058H77.8659V82.3058H100.589V78.3058ZM98.5893 80.3053V80.3058H102.589V80.3053H98.5893Z" fill="url(#paint4_linear_39_10207)" mask="url(#path-5-inside-1_39_10207)"/>
</g>
<defs>
<filter id="filter0_f_39_10207" x="23.1553" y="0" width="113.404" height="113.404" filterUnits="userSpaceOnUse" color-interpolation-filters="sRGB">
<feFlood flood-opacity="0" result="BackgroundImageFix"/>
<feBlend mode="normal" in="SourceGraphic" in2="BackgroundImageFix" result="shape"/>
<feGaussianBlur stdDeviation="22" result="effect1_foregroundBlur_39_10207"/>
</filter>
<filter id="filter1_f_39_10207" x="35.0393" y="56.6536" width="77.5591" height="45.9081" filterUnits="userSpaceOnUse" color-interpolation-filters="sRGB">
<feFlood flood-opacity="0" result="BackgroundImageFix"/>
<feBlend mode="normal" in="SourceGraphic" in2="BackgroundImageFix" result="shape"/>
<feGaussianBlur stdDeviation="7" result="effect1_foregroundBlur_39_10207"/>
</filter>
<filter id="filter2_bd_39_10207" x="0.319824" y="21.0774" width="135.816" height="124.228" filterUnits="userSpaceOnUse" color-interpolation-filters="sRGB">
<feFlood flood-opacity="0" result="BackgroundImageFix"/>
<feGaussianBlur in="BackgroundImageFix" stdDeviation="7"/>
<feComposite in2="SourceAlpha" operator="in" result="effect1_backgroundBlur_39_10207"/>
<feColorMatrix in="SourceAlpha" type="matrix" values="0 0 0 0 0 0 0 0 0 0 0 0 0 0 0 0 0 0 127 0" result="hardAlpha"/>
<feOffset dx="-21" dy="15"/>
<feGaussianBlur stdDeviation="25"/>
<feComposite in2="hardAlpha" operator="out"/>
<feColorMatrix type="matrix" values="0 0 0 0 0.113438 0 0 0 0 0.148981 0 0 0 0 0.275 0 0 0 0.25 0"/>
<feBlend mode="normal" in2="effect1_backgroundBlur_39_10207" result="effect2_dropShadow_39_10207"/>
<feBlend mode="normal" in="SourceGraphic" in2="effect2_dropShadow_39_10207" result="shape"/>
</filter>
<linearGradient id="paint0_linear_39_10207" x1="79.8574" y1="44.8329" x2="79.8574" y2="69.4042" gradientUnits="userSpaceOnUse">
<stop stop-color="#FFE600"/>
<stop offset="1" stop-color="#FF7A00"/>
</linearGradient>
<linearGradient id="paint1_linear_39_10207" x1="79.8574" y1="44.8329" x2="79.8574" y2="69.4042" gradientUnits="userSpaceOnUse">
<stop stop-color="white"/>
<stop offset="1" stop-color="white" stop-opacity="0"/>
</linearGradient>
<linearGradient id="paint2_linear_39_10207" x1="79.8574" y1="44.8329" x2="79.8574" y2="69.4042" gradientUnits="userSpaceOnUse">
<stop stop-color="#FFD600"/>
<stop offset="1" stop-color="#FF7A00"/>
</linearGradient>
<linearGradient id="paint3_linear_39_10207" x1="90.8936" y1="56.8062" x2="90.8936" y2="83.0434" gradientUnits="userSpaceOnUse">
<stop stop-color="white"/>
<stop offset="1" stop-color="white" stop-opacity="0"/>
</linearGradient>
<linearGradient id="paint4_linear_39_10207" x1="89.2277" y1="56.0774" x2="89.2277" y2="80.3057" gradientUnits="userSpaceOnUse">
<stop stop-color="white"/>
<stop offset="1" stop-color="white" stop-opacity="0"/>
</linearGradient>
</defs>
</svg>
