<svg width="155" height="146" viewBox="0 0 155 146" fill="none" xmlns="http://www.w3.org/2000/svg">
<g filter="url(#filter0_f_39_10203)">
<circle cx="100.336" cy="54.1126" r="10.1126" fill="#FFC701" fill-opacity="0.5"/>
</g>
<circle cx="100.336" cy="54.4441" r="8.781" fill="url(#paint0_linear_39_10203)" stroke="url(#paint1_linear_39_10203)" stroke-width="2"/>
<mask id="mask0_39_10203" style="mask-type:alpha" maskUnits="userSpaceOnUse" x="90" y="50" width="21" height="15">
<path d="M110.117 54.4441C110.117 59.846 105.738 64.2251 100.336 64.2251C94.9338 64.2251 90.5547 59.846 90.5547 54.4441C90.5547 49.0422 94.1878 50.2996 99.5897 50.2996C104.992 50.2996 110.117 49.0422 110.117 54.4441Z" fill="url(#paint2_linear_39_10203)"/>
</mask>
<g mask="url(#mask0_39_10203)">
<g filter="url(#filter1_f_39_10203)">
<path fill-rule="evenodd" clip-rule="evenodd" d="M108.044 79.4763C108.072 79.4766 108.1 79.4768 108.127 79.4768C112.064 79.4768 115.256 76.2852 115.256 72.3483C115.256 68.4113 112.064 65.2197 108.127 65.2197C108.1 65.2197 108.072 65.2199 108.044 65.2202V65.2197H103.5C103.599 64.6267 103.651 64.0175 103.651 63.3962C103.651 57.3534 98.7526 52.4547 92.7098 52.4547C86.667 52.4547 81.7684 57.3534 81.7684 63.3962C81.7684 64.0417 81.8243 64.6741 81.9315 65.289C78.4667 65.774 75.8003 68.7498 75.8003 72.3483C75.8003 76.2852 78.9918 79.4768 82.9288 79.4768C82.9566 79.4768 82.9844 79.4766 83.0121 79.4763L83.0117 79.4768H108.044V79.4763Z" fill="#E18700"/>
</g>
</g>
<g filter="url(#filter2_bd_39_10203)">
<mask id="path-5-inside-1_39_10203" fill="white">
<path fill-rule="evenodd" clip-rule="evenodd" d="M103.9 80.3053C103.927 80.3056 103.955 80.3057 103.983 80.3057C107.92 80.3057 111.111 77.1142 111.111 73.1772C111.111 69.2403 107.92 66.0487 103.983 66.0487C103.955 66.0487 103.927 66.0489 103.9 66.0492V66.0487H102.058C102.125 65.5609 102.159 65.0628 102.159 64.5567C102.159 58.5139 97.2606 53.6152 91.2178 53.6152C85.175 53.6152 80.2763 58.5139 80.2763 64.5567C80.2763 65.1269 80.3199 65.6869 80.404 66.2335C79.8836 66.1126 79.3414 66.0487 78.7843 66.0487C74.8473 66.0487 71.6558 69.2403 71.6558 73.1772C71.6558 77.1142 74.8473 80.3057 78.7843 80.3057C78.8121 80.3057 78.8398 80.3056 78.8675 80.3053L78.8672 80.3057H103.9V80.3053Z"/>
</mask>
<path fill-rule="evenodd" clip-rule="evenodd" d="M103.9 80.3053C103.927 80.3056 103.955 80.3057 103.983 80.3057C107.92 80.3057 111.111 77.1142 111.111 73.1772C111.111 69.2403 107.92 66.0487 103.983 66.0487C103.955 66.0487 103.927 66.0489 103.9 66.0492V66.0487H102.058C102.125 65.5609 102.159 65.0628 102.159 64.5567C102.159 58.5139 97.2606 53.6152 91.2178 53.6152C85.175 53.6152 80.2763 58.5139 80.2763 64.5567C80.2763 65.1269 80.3199 65.6869 80.404 66.2335C79.8836 66.1126 79.3414 66.0487 78.7843 66.0487C74.8473 66.0487 71.6558 69.2403 71.6558 73.1772C71.6558 77.1142 74.8473 80.3057 78.7843 80.3057C78.8121 80.3057 78.8398 80.3056 78.8675 80.3053L78.8672 80.3057H103.9V80.3053Z" fill="url(#paint3_linear_39_10203)" shape-rendering="crispEdges"/>
<path d="M103.9 80.3053L103.923 78.3054C103.388 78.2993 102.874 78.5073 102.494 78.883C102.114 79.2587 101.9 79.7709 101.9 80.3053H103.9ZM103.9 66.0492H101.9C101.9 66.5836 102.114 67.0957 102.494 67.4714C102.874 67.8471 103.388 68.0551 103.923 68.049L103.9 66.0492ZM103.9 66.0487H105.9C105.9 64.9441 105.004 64.0487 103.9 64.0487V66.0487ZM102.058 66.0487L100.077 65.7785C99.9986 66.3508 100.172 66.9288 100.552 67.3639C100.931 67.799 101.481 68.0487 102.058 68.0487V66.0487ZM80.404 66.2335L79.9514 68.1816C80.5979 68.3319 81.2769 68.1515 81.7637 67.7002C82.2505 67.249 82.4816 66.5856 82.3807 65.9295L80.404 66.2335ZM78.8675 80.3053L80.4384 81.5431C80.9152 80.9381 81.0021 80.1131 80.6619 79.422C80.3218 78.7309 79.6149 78.2966 78.8447 78.3054L78.8675 80.3053ZM78.8672 80.3057L77.2963 79.0679C76.8221 79.6697 76.7333 80.4894 77.0678 81.1788C77.4022 81.8681 78.101 82.3057 78.8672 82.3057V80.3057ZM103.9 80.3057V82.3057C105.004 82.3057 105.9 81.4103 105.9 80.3057H103.9ZM103.877 82.3051C103.912 82.3055 103.948 82.3057 103.983 82.3057V78.3057C103.963 78.3057 103.943 78.3056 103.923 78.3054L103.877 82.3051ZM103.983 82.3057C109.024 82.3057 113.111 78.2188 113.111 73.1772H109.111C109.111 76.0096 106.815 78.3057 103.983 78.3057V82.3057ZM113.111 73.1772C113.111 68.1357 109.024 64.0487 103.983 64.0487V68.0487C106.815 68.0487 109.111 70.3448 109.111 73.1772H113.111ZM103.983 64.0487C103.948 64.0487 103.912 64.0489 103.877 64.0493L103.923 68.049C103.943 68.0488 103.963 68.0487 103.983 68.0487V64.0487ZM101.9 66.0487V66.0492H105.9V66.0487H101.9ZM102.058 68.0487H103.9V64.0487H102.058V68.0487ZM104.04 66.3189C104.119 65.7418 104.159 65.1534 104.159 64.5567H100.159C100.159 64.9722 100.131 65.38 100.077 65.7785L104.04 66.3189ZM104.159 64.5567C104.159 57.4093 98.3651 51.6152 91.2178 51.6152V55.6152C96.156 55.6152 100.159 59.6185 100.159 64.5567H104.159ZM91.2178 51.6152C84.0704 51.6152 78.2763 57.4093 78.2763 64.5567H82.2763C82.2763 59.6185 86.2795 55.6152 91.2178 55.6152V51.6152ZM78.2763 64.5567C78.2763 65.229 78.3277 65.8906 78.4272 66.5375L82.3807 65.9295C82.3121 65.4831 82.2763 65.0247 82.2763 64.5567H78.2763ZM80.8566 64.2854C80.1889 64.1303 79.4949 64.0487 78.7843 64.0487V68.0487C79.188 68.0487 79.5784 68.095 79.9514 68.1816L80.8566 64.2854ZM78.7843 64.0487C73.7427 64.0487 69.6558 68.1357 69.6558 73.1772H73.6558C73.6558 70.3448 75.9519 68.0487 78.7843 68.0487V64.0487ZM69.6558 73.1772C69.6558 78.2188 73.7427 82.3057 78.7843 82.3057V78.3057C75.9519 78.3057 73.6558 76.0096 73.6558 73.1772H69.6558ZM78.7843 82.3057C78.8198 82.3057 78.8551 82.3055 78.8904 82.3051L78.8447 78.3054C78.8245 78.3056 78.8044 78.3057 78.7843 78.3057V82.3057ZM80.4381 81.5436L80.4384 81.5431L77.2967 79.0674L77.2963 79.0679L80.4381 81.5436ZM103.9 78.3057H78.8672V82.3057H103.9V78.3057ZM101.9 80.3053V80.3057H105.9V80.3053H101.9Z" fill="url(#paint4_linear_39_10203)" mask="url(#path-5-inside-1_39_10203)"/>
</g>
<g filter="url(#filter3_bd_39_10203)">
<mask id="path-7-inside-2_39_10203" fill="white">
<path fill-rule="evenodd" clip-rule="evenodd" d="M116.841 72.9038C116.861 72.9041 116.881 72.9042 116.901 72.9042C119.746 72.9042 122.053 70.5977 122.053 67.7525C122.053 64.9073 119.746 62.6008 116.901 62.6008C116.881 62.6008 116.861 62.6009 116.841 62.6011V62.6008H115.51C115.558 62.2482 115.583 61.8883 115.583 61.5225C115.583 57.1554 112.043 53.6152 107.676 53.6152C103.309 53.6152 99.7685 57.1554 99.7685 61.5225C99.7685 61.9346 99.8001 62.3393 99.8608 62.7343C99.4848 62.647 99.0929 62.6008 98.6903 62.6008C95.8451 62.6008 93.5386 64.9073 93.5386 67.7525C93.5386 70.5977 95.8451 72.9042 98.6903 72.9042C98.7104 72.9042 98.7304 72.9041 98.7505 72.9038L98.7502 72.9042H116.841V72.9038Z"/>
</mask>
<path fill-rule="evenodd" clip-rule="evenodd" d="M116.841 72.9038C116.861 72.9041 116.881 72.9042 116.901 72.9042C119.746 72.9042 122.053 70.5977 122.053 67.7525C122.053 64.9073 119.746 62.6008 116.901 62.6008C116.881 62.6008 116.861 62.6009 116.841 62.6011V62.6008H115.51C115.558 62.2482 115.583 61.8883 115.583 61.5225C115.583 57.1554 112.043 53.6152 107.676 53.6152C103.309 53.6152 99.7685 57.1554 99.7685 61.5225C99.7685 61.9346 99.8001 62.3393 99.8608 62.7343C99.4848 62.647 99.0929 62.6008 98.6903 62.6008C95.8451 62.6008 93.5386 64.9073 93.5386 67.7525C93.5386 70.5977 95.8451 72.9042 98.6903 72.9042C98.7104 72.9042 98.7304 72.9041 98.7505 72.9038L98.7502 72.9042H116.841V72.9038Z" fill="url(#paint5_linear_39_10203)" shape-rendering="crispEdges"/>
<path d="M116.841 72.9038L116.864 70.904C116.329 70.8979 115.815 71.1059 115.435 71.4816C115.055 71.8573 114.841 72.3695 114.841 72.9038H116.841ZM116.841 62.6011H114.841C114.841 63.1355 115.055 63.6476 115.435 64.0233C115.815 64.399 116.329 64.6071 116.864 64.601L116.841 62.6011ZM116.841 62.6008H118.841C118.841 61.4962 117.946 60.6008 116.841 60.6008V62.6008ZM115.51 62.6008L113.529 62.3306C113.45 62.9028 113.624 63.4809 114.003 63.916C114.383 64.3511 114.933 64.6008 115.51 64.6008V62.6008ZM99.8608 62.7343L99.4082 64.6824C100.055 64.8327 100.734 64.6523 101.221 64.201C101.707 63.7498 101.938 63.0864 101.838 62.4303L99.8608 62.7343ZM98.7505 72.9038L100.32 74.1439C100.798 73.5392 100.885 72.7136 100.545 72.0218C100.206 71.33 99.4983 70.8952 98.7276 70.904L98.7505 72.9038ZM98.7502 72.9042L97.181 71.6641C96.7057 72.2656 96.616 73.0859 96.9502 73.7759C97.2843 74.4659 97.9835 74.9042 98.7502 74.9042V72.9042ZM116.841 72.9042V74.9042C117.946 74.9042 118.841 74.0087 118.841 72.9042H116.841ZM116.818 74.9037C116.846 74.904 116.873 74.9042 116.901 74.9042V70.9042C116.889 70.9042 116.876 70.9041 116.864 70.904L116.818 74.9037ZM116.901 74.9042C120.851 74.9042 124.053 71.7022 124.053 67.7525H120.053C120.053 69.4931 118.642 70.9042 116.901 70.9042V74.9042ZM124.053 67.7525C124.053 63.8027 120.851 60.6008 116.901 60.6008V64.6008C118.642 64.6008 120.053 66.0118 120.053 67.7525H124.053ZM116.901 60.6008C116.873 60.6008 116.846 60.6009 116.818 60.6012L116.864 64.601C116.876 64.6008 116.889 64.6008 116.901 64.6008V60.6008ZM114.841 62.6008V62.6011H118.841V62.6008H114.841ZM115.51 64.6008H116.841V60.6008H115.51V64.6008ZM117.492 62.871C117.552 62.4291 117.583 61.9789 117.583 61.5225H113.583C113.583 61.7976 113.564 62.0673 113.529 62.3306L117.492 62.871ZM117.583 61.5225C117.583 56.0509 113.147 51.6152 107.676 51.6152V55.6152C110.938 55.6152 113.583 58.26 113.583 61.5225H117.583ZM107.676 51.6152C102.204 51.6152 97.7685 56.0509 97.7685 61.5225H101.769C101.769 58.26 104.413 55.6152 107.676 55.6152V51.6152ZM97.7685 61.5225C97.7685 62.0367 97.8079 62.543 97.8841 63.0383L101.838 62.4303C101.792 62.1355 101.769 61.8324 101.769 61.5225H97.7685ZM100.313 60.7862C99.79 60.6646 99.2464 60.6008 98.6903 60.6008V64.6008C98.9395 64.6008 99.1795 64.6293 99.4082 64.6824L100.313 60.7862ZM98.6903 60.6008C94.7405 60.6008 91.5386 63.8027 91.5386 67.7525H95.5386C95.5386 66.0118 96.9496 64.6008 98.6903 64.6008V60.6008ZM91.5386 67.7525C91.5386 71.7022 94.7405 74.9042 98.6903 74.9042V70.9042C96.9496 70.9042 95.5386 69.4931 95.5386 67.7525H91.5386ZM98.6903 74.9042C98.718 74.9042 98.7456 74.904 98.7733 74.9037L98.7276 70.904C98.7152 70.9041 98.7028 70.9042 98.6903 70.9042V74.9042ZM100.319 74.1442L100.32 74.1439L97.1813 71.6638L97.181 71.6641L100.319 74.1442ZM116.841 70.9042H98.7502V74.9042H116.841V70.9042ZM114.841 72.9038V72.9042H118.841V72.9038H114.841Z" fill="url(#paint6_linear_39_10203)" mask="url(#path-7-inside-2_39_10203)"/>
</g>
<defs>
<filter id="filter0_f_39_10203" x="46.2231" y="0" width="108.225" height="108.225" filterUnits="userSpaceOnUse" color-interpolation-filters="sRGB">
<feFlood flood-opacity="0" result="BackgroundImageFix"/>
<feBlend mode="normal" in="SourceGraphic" in2="BackgroundImageFix" result="shape"/>
<feGaussianBlur stdDeviation="22" result="effect1_foregroundBlur_39_10203"/>
</filter>
<filter id="filter1_f_39_10203" x="61.8003" y="38.4547" width="67.4556" height="55.0221" filterUnits="userSpaceOnUse" color-interpolation-filters="sRGB">
<feFlood flood-opacity="0" result="BackgroundImageFix"/>
<feBlend mode="normal" in="SourceGraphic" in2="BackgroundImageFix" result="shape"/>
<feGaussianBlur stdDeviation="7" result="effect1_foregroundBlur_39_10203"/>
</filter>
<filter id="filter2_bd_39_10203" x="0.655762" y="18.6152" width="139.456" height="126.691" filterUnits="userSpaceOnUse" color-interpolation-filters="sRGB">
<feFlood flood-opacity="0" result="BackgroundImageFix"/>
<feGaussianBlur in="BackgroundImageFix" stdDeviation="7"/>
<feComposite in2="SourceAlpha" operator="in" result="effect1_backgroundBlur_39_10203"/>
<feColorMatrix in="SourceAlpha" type="matrix" values="0 0 0 0 0 0 0 0 0 0 0 0 0 0 0 0 0 0 127 0" result="hardAlpha"/>
<feOffset dx="-21" dy="15"/>
<feGaussianBlur stdDeviation="25"/>
<feComposite in2="hardAlpha" operator="out"/>
<feColorMatrix type="matrix" values="0 0 0 0 0.113725 0 0 0 0 0.14902 0 0 0 0 0.27451 0 0 0 0.25 0"/>
<feBlend mode="normal" in2="effect1_backgroundBlur_39_10203" result="effect2_dropShadow_39_10203"/>
<feBlend mode="normal" in="SourceGraphic" in2="effect2_dropShadow_39_10203" result="shape"/>
</filter>
<filter id="filter3_bd_39_10203" x="22.5386" y="18.6152" width="128.514" height="119.289" filterUnits="userSpaceOnUse" color-interpolation-filters="sRGB">
<feFlood flood-opacity="0" result="BackgroundImageFix"/>
<feGaussianBlur in="BackgroundImageFix" stdDeviation="7"/>
<feComposite in2="SourceAlpha" operator="in" result="effect1_backgroundBlur_39_10203"/>
<feColorMatrix in="SourceAlpha" type="matrix" values="0 0 0 0 0 0 0 0 0 0 0 0 0 0 0 0 0 0 127 0" result="hardAlpha"/>
<feOffset dx="-21" dy="15"/>
<feGaussianBlur stdDeviation="25"/>
<feComposite in2="hardAlpha" operator="out"/>
<feColorMatrix type="matrix" values="0 0 0 0 0.113438 0 0 0 0 0.148981 0 0 0 0 0.275 0 0 0 0.25 0"/>
<feBlend mode="normal" in2="effect1_backgroundBlur_39_10203" result="effect2_dropShadow_39_10203"/>
<feBlend mode="normal" in="SourceGraphic" in2="effect2_dropShadow_39_10203" result="shape"/>
</filter>
<linearGradient id="paint0_linear_39_10203" x1="100.336" y1="44.6631" x2="100.336" y2="64.2251" gradientUnits="userSpaceOnUse">
<stop stop-color="#FFE600"/>
<stop offset="1" stop-color="#FF7A00"/>
</linearGradient>
<linearGradient id="paint1_linear_39_10203" x1="100.336" y1="44.6631" x2="100.336" y2="64.2251" gradientUnits="userSpaceOnUse">
<stop stop-color="white"/>
<stop offset="1" stop-color="white" stop-opacity="0"/>
</linearGradient>
<linearGradient id="paint2_linear_39_10203" x1="100.336" y1="44.6631" x2="100.336" y2="64.2251" gradientUnits="userSpaceOnUse">
<stop stop-color="#FFD600"/>
<stop offset="1" stop-color="#FF7A00"/>
</linearGradient>
<linearGradient id="paint3_linear_39_10203" x1="91.3835" y1="45.0776" x2="91.3835" y2="84.0358" gradientUnits="userSpaceOnUse">
<stop stop-color="white"/>
<stop offset="1" stop-color="white" stop-opacity="0"/>
</linearGradient>
<linearGradient id="paint4_linear_39_10203" x1="91.3835" y1="53.6152" x2="91.3835" y2="80.3057" gradientUnits="userSpaceOnUse">
<stop stop-color="white"/>
<stop offset="1" stop-color="white" stop-opacity="0"/>
</linearGradient>
<linearGradient id="paint5_linear_39_10203" x1="109.122" y1="54.1955" x2="109.122" y2="75.0837" gradientUnits="userSpaceOnUse">
<stop stop-color="white"/>
<stop offset="1" stop-color="white" stop-opacity="0"/>
</linearGradient>
<linearGradient id="paint6_linear_39_10203" x1="107.796" y1="53.6152" x2="107.796" y2="72.9042" gradientUnits="userSpaceOnUse">
<stop stop-color="white"/>
<stop offset="1" stop-color="white" stop-opacity="0"/>
</linearGradient>
</defs>
</svg>
