<svg width="161" height="151" viewBox="0 0 161 151" fill="none" xmlns="http://www.w3.org/2000/svg">
<g filter="url(#filter0_bdd_39_10208)">
<path d="M85.0664 73.5902L91.1696 62.4213C91.5203 61.7796 92.1933 61.3804 92.9247 61.3804H96.9707C98.474 61.3804 99.4399 62.9767 98.7424 64.3084L96.2599 69.0476C95.5984 70.3105 96.5145 71.8245 97.9402 71.8245C99.5798 71.8245 100.447 73.7642 99.3538 74.9861L90.9454 84.3837C89.4708 86.0317 86.8073 84.4215 87.5814 82.35L88.7401 79.2493C89.2286 77.9421 88.2413 76.5492 86.8458 76.5492C85.327 76.5492 84.3381 74.9229 85.0664 73.5902Z" fill="url(#paint0_linear_39_10208)"/>
<path d="M85.944 74.0697L92.0471 62.9008C92.2225 62.58 92.559 62.3804 92.9247 62.3804H96.9707C97.7224 62.3804 98.2053 63.1785 97.8565 63.8444L95.3741 68.5835C94.3638 70.5123 95.7628 72.8245 97.9402 72.8245C98.7154 72.8245 99.1254 73.7416 98.6085 74.3193L90.2001 83.7169C89.4629 84.5409 88.1311 83.7358 88.5181 82.7001L89.6768 79.5993C90.4151 77.6237 88.923 75.5492 86.8458 75.5492C86.066 75.5492 85.5896 74.7182 85.944 74.0697Z" stroke="url(#paint1_linear_39_10208)" stroke-width="2"/>
</g>
<g filter="url(#filter1_bd_39_10208)">
<mask id="path-3-inside-1_39_10208" fill="white">
<path fill-rule="evenodd" clip-rule="evenodd" d="M103.26 69.8347C103.288 69.835 103.315 69.8352 103.343 69.8352C107.28 69.8352 110.472 66.6436 110.472 62.7066C110.472 58.7697 107.28 55.5781 103.343 55.5781C103.315 55.5781 103.288 55.5783 103.26 55.5786V55.5781H101.419C101.485 55.0903 101.52 54.5922 101.52 54.0861C101.52 48.0433 96.6209 43.1447 90.5781 43.1447C84.5353 43.1447 79.6367 48.0433 79.6367 54.0861C79.6367 54.6563 79.6803 55.2163 79.7643 55.7629C79.244 55.642 78.7018 55.5781 78.1446 55.5781C74.2077 55.5781 71.0161 58.7697 71.0161 62.7066C71.0161 66.6436 74.2077 69.8352 78.1446 69.8352C78.1724 69.8352 78.2002 69.835 78.2279 69.8347L78.2275 69.8352H103.26V69.8347Z"/>
</mask>
<path fill-rule="evenodd" clip-rule="evenodd" d="M103.26 69.8347C103.288 69.835 103.315 69.8352 103.343 69.8352C107.28 69.8352 110.472 66.6436 110.472 62.7066C110.472 58.7697 107.28 55.5781 103.343 55.5781C103.315 55.5781 103.288 55.5783 103.26 55.5786V55.5781H101.419C101.485 55.0903 101.52 54.5922 101.52 54.0861C101.52 48.0433 96.6209 43.1447 90.5781 43.1447C84.5353 43.1447 79.6367 48.0433 79.6367 54.0861C79.6367 54.6563 79.6803 55.2163 79.7643 55.7629C79.244 55.642 78.7018 55.5781 78.1446 55.5781C74.2077 55.5781 71.0161 58.7697 71.0161 62.7066C71.0161 66.6436 74.2077 69.8352 78.1446 69.8352C78.1724 69.8352 78.2002 69.835 78.2279 69.8347L78.2275 69.8352H103.26V69.8347Z" fill="url(#paint2_linear_39_10208)" shape-rendering="crispEdges"/>
<path d="M103.26 69.8347L103.283 67.8348C102.749 67.8287 102.234 68.0367 101.854 68.4124C101.474 68.7881 101.26 69.3003 101.26 69.8347H103.26ZM103.26 55.5786H101.26C101.26 56.113 101.474 56.6251 101.854 57.0009C102.234 57.3766 102.749 57.5846 103.283 57.5785L103.26 55.5786ZM103.26 55.5781H105.26C105.26 54.4736 104.365 53.5781 103.26 53.5781V55.5781ZM101.419 55.5781L99.437 55.3079C99.359 55.8802 99.5322 56.4582 99.912 56.8933C100.292 57.3284 100.841 57.5781 101.419 57.5781V55.5781ZM79.7643 55.7629L79.3117 57.711C79.9583 57.8613 80.6372 57.6809 81.124 57.2296C81.6108 56.7784 81.842 56.115 81.7411 55.4589L79.7643 55.7629ZM78.2279 69.8347L79.7988 71.0726C80.2755 70.4675 80.3625 69.6425 80.0223 68.9514C79.6821 68.2603 78.9753 67.826 78.2051 67.8348L78.2279 69.8347ZM78.2275 69.8352L76.6566 68.5973C76.1824 69.1991 76.0937 70.0189 76.4281 70.7082C76.7625 71.3975 77.4614 71.8352 78.2275 71.8352V69.8352ZM103.26 69.8352V71.8352C104.365 71.8352 105.26 70.9397 105.26 69.8352H103.26ZM103.237 71.8346C103.273 71.835 103.308 71.8352 103.343 71.8352V67.8352C103.323 67.8352 103.303 67.8351 103.283 67.8348L103.237 71.8346ZM103.343 71.8352C108.385 71.8352 112.472 67.7482 112.472 62.7066H108.472C108.472 65.5391 106.176 67.8352 103.343 67.8352V71.8352ZM112.472 62.7066C112.472 57.6651 108.385 53.5781 103.343 53.5781V57.5781C106.176 57.5781 108.472 59.8742 108.472 62.7066H112.472ZM103.343 53.5781C103.308 53.5781 103.273 53.5783 103.237 53.5787L103.283 57.5785C103.303 57.5782 103.323 57.5781 103.343 57.5781V53.5781ZM101.26 55.5781V55.5786H105.26V55.5781H101.26ZM101.419 57.5781H103.26V53.5781H101.419V57.5781ZM103.4 55.8483C103.479 55.2712 103.52 54.6828 103.52 54.0861H99.5196C99.5196 54.5016 99.4914 54.9094 99.437 55.3079L103.4 55.8483ZM103.52 54.0861C103.52 46.9387 97.7255 41.1447 90.5781 41.1447V45.1447C95.5163 45.1447 99.5196 49.1479 99.5196 54.0861H103.52ZM90.5781 41.1447C83.4307 41.1447 77.6367 46.9387 77.6367 54.0861H81.6367C81.6367 49.1479 85.6399 45.1447 90.5781 45.1447V41.1447ZM77.6367 54.0861C77.6367 54.7584 77.6881 55.4201 77.7876 56.067L81.7411 55.4589C81.6724 55.0125 81.6367 54.5541 81.6367 54.0861H77.6367ZM80.217 53.8148C79.5493 53.6597 78.8552 53.5781 78.1446 53.5781V57.5781C78.5483 57.5781 78.9387 57.6244 79.3117 57.711L80.217 53.8148ZM78.1446 53.5781C73.1031 53.5781 69.0161 57.6651 69.0161 62.7066H73.0161C73.0161 59.8742 75.3122 57.5781 78.1446 57.5781V53.5781ZM69.0161 62.7066C69.0161 67.7482 73.1031 71.8352 78.1446 71.8352V67.8352C75.3122 67.8352 73.0161 65.539 73.0161 62.7066H69.0161ZM78.1446 71.8352C78.1801 71.8352 78.2155 71.835 78.2507 71.8346L78.2051 67.8348C78.1849 67.8351 78.1647 67.8352 78.1446 67.8352V71.8352ZM79.7984 71.073L79.7988 71.0726L76.657 68.5968L76.6566 68.5973L79.7984 71.073ZM103.26 67.8352H78.2275V71.8352H103.26V67.8352ZM101.26 69.8347V69.8352H105.26V69.8347H101.26Z" fill="url(#paint3_linear_39_10208)" mask="url(#path-3-inside-1_39_10208)"/>
</g>
<g filter="url(#filter2_bd_39_10208)">
<mask id="path-5-inside-2_39_10208" fill="white">
<path fill-rule="evenodd" clip-rule="evenodd" d="M116.201 62.4333C116.221 62.4335 116.241 62.4336 116.261 62.4336C119.107 62.4336 121.413 60.1271 121.413 57.2819C121.413 54.4367 119.107 52.1302 116.261 52.1302C116.241 52.1302 116.221 52.1303 116.201 52.1305V52.1302H114.871C114.919 51.7776 114.943 51.4177 114.943 51.0519C114.943 46.6849 111.403 43.1447 107.036 43.1447C102.669 43.1447 99.1289 46.6849 99.1289 51.0519C99.1289 51.464 99.1604 51.8687 99.2212 52.2637C98.8451 52.1764 98.4533 52.1302 98.0506 52.1302C95.2054 52.1302 92.8989 54.4367 92.8989 57.2819C92.8989 60.1271 95.2054 62.4336 98.0506 62.4336C98.0707 62.4336 98.0908 62.4335 98.1108 62.4333L98.1105 62.4336H116.201V62.4333Z"/>
</mask>
<path fill-rule="evenodd" clip-rule="evenodd" d="M116.201 62.4333C116.221 62.4335 116.241 62.4336 116.261 62.4336C119.107 62.4336 121.413 60.1271 121.413 57.2819C121.413 54.4367 119.107 52.1302 116.261 52.1302C116.241 52.1302 116.221 52.1303 116.201 52.1305V52.1302H114.871C114.919 51.7776 114.943 51.4177 114.943 51.0519C114.943 46.6849 111.403 43.1447 107.036 43.1447C102.669 43.1447 99.1289 46.6849 99.1289 51.0519C99.1289 51.464 99.1604 51.8687 99.2212 52.2637C98.8451 52.1764 98.4533 52.1302 98.0506 52.1302C95.2054 52.1302 92.8989 54.4367 92.8989 57.2819C92.8989 60.1271 95.2054 62.4336 98.0506 62.4336C98.0707 62.4336 98.0908 62.4335 98.1108 62.4333L98.1105 62.4336H116.201V62.4333Z" fill="url(#paint4_linear_39_10208)" shape-rendering="crispEdges"/>
<path d="M116.201 62.4333L116.224 60.4334C115.69 60.4273 115.175 60.6353 114.795 61.011C114.415 61.3867 114.201 61.8989 114.201 62.4333H116.201ZM116.201 52.1305H114.201C114.201 52.6649 114.415 53.1771 114.795 53.5528C115.175 53.9285 115.69 54.1365 116.224 54.1304L116.201 52.1305ZM116.201 52.1302H118.201C118.201 51.0256 117.306 50.1302 116.201 50.1302V52.1302ZM114.871 52.1302L112.889 51.86C112.811 52.4322 112.984 53.0103 113.364 53.4454C113.744 53.8805 114.293 54.1302 114.871 54.1302V52.1302ZM99.2212 52.2637L98.7685 54.2119C99.4151 54.3621 100.094 54.1817 100.581 53.7305C101.068 53.2792 101.299 52.6158 101.198 51.9597L99.2212 52.2637ZM98.1108 62.4333L99.68 63.6733C100.158 63.0686 100.246 62.243 99.9058 61.5512C99.5659 60.8595 98.8587 60.4246 98.0879 60.4334L98.1108 62.4333ZM98.1105 62.4336L96.5414 61.1935C96.066 61.795 95.9763 62.6153 96.3105 63.3053C96.6447 63.9953 97.3439 64.4336 98.1105 64.4336V62.4336ZM116.201 62.4336V64.4336C117.306 64.4336 118.201 63.5382 118.201 62.4336H116.201ZM116.179 64.4331C116.206 64.4334 116.234 64.4336 116.261 64.4336V60.4336C116.249 60.4336 116.237 60.4335 116.224 60.4334L116.179 64.4331ZM116.261 64.4336C120.211 64.4336 123.413 61.2317 123.413 57.2819H119.413C119.413 59.0225 118.002 60.4336 116.261 60.4336V64.4336ZM123.413 57.2819C123.413 53.3321 120.211 50.1302 116.261 50.1302V54.1302C118.002 54.1302 119.413 55.5412 119.413 57.2819H123.413ZM116.261 50.1302C116.234 50.1302 116.206 50.1303 116.179 50.1307L116.224 54.1304C116.237 54.1303 116.249 54.1302 116.261 54.1302V50.1302ZM114.201 52.1302V52.1305H118.201V52.1302H114.201ZM114.871 54.1302H116.201V50.1302H114.871V54.1302ZM116.852 52.4004C116.912 51.9585 116.943 51.5083 116.943 51.0519H112.943C112.943 51.327 112.925 51.5967 112.889 51.86L116.852 52.4004ZM116.943 51.0519C116.943 45.5803 112.508 41.1447 107.036 41.1447V45.1447C110.299 45.1447 112.943 47.7894 112.943 51.0519H116.943ZM107.036 41.1447C101.565 41.1447 97.1289 45.5803 97.1289 51.0519H101.129C101.129 47.7894 103.774 45.1447 107.036 45.1447V41.1447ZM97.1289 51.0519C97.1289 51.5661 97.1682 52.0725 97.2444 52.5678L101.198 51.9597C101.153 51.6649 101.129 51.3618 101.129 51.0519H97.1289ZM99.6738 50.3156C99.1504 50.194 98.6067 50.1302 98.0506 50.1302V54.1302C98.2998 54.1302 98.5399 54.1587 98.7685 54.2119L99.6738 50.3156ZM98.0506 50.1302C94.1009 50.1302 90.8989 53.3321 90.8989 57.2819H94.8989C94.8989 55.5412 96.31 54.1302 98.0506 54.1302V50.1302ZM90.8989 57.2819C90.8989 61.2317 94.1009 64.4336 98.0506 64.4336V60.4336C96.31 60.4336 94.8989 59.0225 94.8989 57.2819H90.8989ZM98.0506 64.4336C98.0783 64.4336 98.106 64.4334 98.1337 64.4331L98.0879 60.4334C98.0756 60.4335 98.0631 60.4336 98.0506 60.4336V64.4336ZM99.6797 63.6737L99.68 63.6733L96.5416 61.1932L96.5414 61.1935L99.6797 63.6737ZM116.201 60.4336H98.1105V64.4336H116.201V60.4336ZM114.201 62.4333V62.4336H118.201V62.4333H114.201Z" fill="url(#paint5_linear_39_10208)" mask="url(#path-5-inside-2_39_10208)"/>
</g>
<defs>
<filter id="filter0_bdd_39_10208" x="13.822" y="0.380371" width="147.019" height="149.683" filterUnits="userSpaceOnUse" color-interpolation-filters="sRGB">
<feFlood flood-opacity="0" result="BackgroundImageFix"/>
<feGaussianBlur in="BackgroundImageFix" stdDeviation="7"/>
<feComposite in2="SourceAlpha" operator="in" result="effect1_backgroundBlur_39_10208"/>
<feColorMatrix in="SourceAlpha" type="matrix" values="0 0 0 0 0 0 0 0 0 0 0 0 0 0 0 0 0 0 127 0" result="hardAlpha"/>
<feOffset dx="-21" dy="15"/>
<feGaussianBlur stdDeviation="25"/>
<feComposite in2="hardAlpha" operator="out"/>
<feColorMatrix type="matrix" values="0 0 0 0 0.113438 0 0 0 0 0.148981 0 0 0 0 0.275 0 0 0 0.25 0"/>
<feBlend mode="normal" in2="effect1_backgroundBlur_39_10208" result="effect2_dropShadow_39_10208"/>
<feColorMatrix in="SourceAlpha" type="matrix" values="0 0 0 0 0 0 0 0 0 0 0 0 0 0 0 0 0 0 127 0" result="hardAlpha"/>
<feOffset/>
<feGaussianBlur stdDeviation="30.5"/>
<feComposite in2="hardAlpha" operator="out"/>
<feColorMatrix type="matrix" values="0 0 0 0 1 0 0 0 0 0.721569 0 0 0 0 0.00392157 0 0 0 0.49 0"/>
<feBlend mode="normal" in2="effect2_dropShadow_39_10208" result="effect3_dropShadow_39_10208"/>
<feBlend mode="normal" in="SourceGraphic" in2="effect3_dropShadow_39_10208" result="shape"/>
</filter>
<filter id="filter1_bd_39_10208" x="0.0161133" y="8.14465" width="139.456" height="126.691" filterUnits="userSpaceOnUse" color-interpolation-filters="sRGB">
<feFlood flood-opacity="0" result="BackgroundImageFix"/>
<feGaussianBlur in="BackgroundImageFix" stdDeviation="7"/>
<feComposite in2="SourceAlpha" operator="in" result="effect1_backgroundBlur_39_10208"/>
<feColorMatrix in="SourceAlpha" type="matrix" values="0 0 0 0 0 0 0 0 0 0 0 0 0 0 0 0 0 0 127 0" result="hardAlpha"/>
<feOffset dx="-21" dy="15"/>
<feGaussianBlur stdDeviation="25"/>
<feComposite in2="hardAlpha" operator="out"/>
<feColorMatrix type="matrix" values="0 0 0 0 0.113725 0 0 0 0 0.14902 0 0 0 0 0.27451 0 0 0 0.25 0"/>
<feBlend mode="normal" in2="effect1_backgroundBlur_39_10208" result="effect2_dropShadow_39_10208"/>
<feBlend mode="normal" in="SourceGraphic" in2="effect2_dropShadow_39_10208" result="shape"/>
</filter>
<filter id="filter2_bd_39_10208" x="21.8989" y="8.14465" width="128.514" height="119.289" filterUnits="userSpaceOnUse" color-interpolation-filters="sRGB">
<feFlood flood-opacity="0" result="BackgroundImageFix"/>
<feGaussianBlur in="BackgroundImageFix" stdDeviation="7"/>
<feComposite in2="SourceAlpha" operator="in" result="effect1_backgroundBlur_39_10208"/>
<feColorMatrix in="SourceAlpha" type="matrix" values="0 0 0 0 0 0 0 0 0 0 0 0 0 0 0 0 0 0 127 0" result="hardAlpha"/>
<feOffset dx="-21" dy="15"/>
<feGaussianBlur stdDeviation="25"/>
<feComposite in2="hardAlpha" operator="out"/>
<feColorMatrix type="matrix" values="0 0 0 0 0.113438 0 0 0 0 0.148981 0 0 0 0 0.275 0 0 0 0.25 0"/>
<feBlend mode="normal" in2="effect1_backgroundBlur_39_10208" result="effect2_dropShadow_39_10208"/>
<feBlend mode="normal" in="SourceGraphic" in2="effect2_dropShadow_39_10208" result="shape"/>
</filter>
<linearGradient id="paint0_linear_39_10208" x1="94.6396" y1="63.2039" x2="90.4951" y2="81.191" gradientUnits="userSpaceOnUse">
<stop stop-color="#FF4D00"/>
<stop offset="1" stop-color="#FFB800"/>
</linearGradient>
<linearGradient id="paint1_linear_39_10208" x1="89.086" y1="80.9424" x2="96.6289" y2="64.7789" gradientUnits="userSpaceOnUse">
<stop stop-color="white"/>
<stop offset="1" stop-color="white" stop-opacity="0"/>
</linearGradient>
<linearGradient id="paint2_linear_39_10208" x1="90.7439" y1="34.607" x2="90.7439" y2="73.5652" gradientUnits="userSpaceOnUse">
<stop stop-color="white"/>
<stop offset="1" stop-color="white" stop-opacity="0"/>
</linearGradient>
<linearGradient id="paint3_linear_39_10208" x1="90.7439" y1="43.1447" x2="90.7439" y2="69.8352" gradientUnits="userSpaceOnUse">
<stop stop-color="white"/>
<stop offset="1" stop-color="white" stop-opacity="0"/>
</linearGradient>
<linearGradient id="paint4_linear_39_10208" x1="108.482" y1="43.7249" x2="108.482" y2="64.6131" gradientUnits="userSpaceOnUse">
<stop stop-color="white"/>
<stop offset="1" stop-color="white" stop-opacity="0"/>
</linearGradient>
<linearGradient id="paint5_linear_39_10208" x1="107.156" y1="43.1447" x2="107.156" y2="62.4336" gradientUnits="userSpaceOnUse">
<stop stop-color="white"/>
<stop offset="1" stop-color="white" stop-opacity="0"/>
</linearGradient>
</defs>
</svg>
