<svg width="234" height="177" viewBox="0 0 234 177" fill="none" xmlns="http://www.w3.org/2000/svg">
<g filter="url(#filter0_bd_38_9807)">
<mask id="path-1-inside-1_38_9807" fill="white">
<path fill-rule="evenodd" clip-rule="evenodd" d="M125.659 80.2435C125.705 80.2441 125.752 80.2443 125.799 80.2443C132.473 80.2443 137.883 74.8342 137.883 68.1604C137.883 61.4867 132.473 56.0765 125.799 56.0765C125.752 56.0765 125.705 56.0768 125.659 56.0773V56.0765H122.537C122.65 55.2496 122.708 54.4053 122.708 53.5474C122.708 43.3039 114.404 35 104.16 35C93.917 35 85.6131 43.3039 85.6131 53.5474C85.6131 54.5139 85.687 55.4632 85.8295 56.3898C84.9475 56.1849 84.0283 56.0765 83.0839 56.0765C76.4101 56.0765 71 61.4867 71 68.1604C71 74.8342 76.4101 80.2443 83.0839 80.2443C83.131 80.2443 83.178 80.2441 83.225 80.2435L83.2244 80.2443H125.659V80.2435Z"/>
</mask>
<path fill-rule="evenodd" clip-rule="evenodd" d="M125.659 80.2435C125.705 80.2441 125.752 80.2443 125.799 80.2443C132.473 80.2443 137.883 74.8342 137.883 68.1604C137.883 61.4867 132.473 56.0765 125.799 56.0765C125.752 56.0765 125.705 56.0768 125.659 56.0773V56.0765H122.537C122.65 55.2496 122.708 54.4053 122.708 53.5474C122.708 43.3039 114.404 35 104.16 35C93.917 35 85.6131 43.3039 85.6131 53.5474C85.6131 54.5139 85.687 55.4632 85.8295 56.3898C84.9475 56.1849 84.0283 56.0765 83.0839 56.0765C76.4101 56.0765 71 61.4867 71 68.1604C71 74.8342 76.4101 80.2443 83.0839 80.2443C83.131 80.2443 83.178 80.2441 83.225 80.2435L83.2244 80.2443H125.659V80.2435Z" fill="url(#paint0_linear_38_9807)" shape-rendering="crispEdges"/>
<path d="M125.659 80.2435L125.681 78.2437C125.147 78.2376 124.632 78.4456 124.252 78.8213C123.872 79.197 123.659 79.7091 123.659 80.2435H125.659ZM125.659 56.0773H123.659C123.659 56.6117 123.872 57.1239 124.252 57.4996C124.632 57.8753 125.147 58.0833 125.681 58.0772L125.659 56.0773ZM125.659 56.0765H127.659C127.659 54.972 126.763 54.0765 125.659 54.0765V56.0765ZM122.537 56.0765L120.555 55.8063C120.477 56.3786 120.65 56.9567 121.03 57.3918C121.41 57.8269 121.959 58.0765 122.537 58.0765V56.0765ZM85.8295 56.3898L85.3769 58.3379C86.0235 58.4882 86.7024 58.3078 87.1892 57.8565C87.676 57.4053 87.9072 56.7419 87.8063 56.0858L85.8295 56.3898ZM83.225 80.2435L84.7962 81.481C85.2728 80.8759 85.3595 80.0509 85.0193 79.36C84.679 78.669 83.9723 78.2348 83.2021 78.2437L83.225 80.2435ZM83.2244 80.2443L81.6531 79.0069C81.1792 79.6087 81.0906 80.4284 81.4251 81.1176C81.7596 81.8068 82.4583 82.2443 83.2244 82.2443V80.2443ZM125.659 80.2443V82.2443C126.763 82.2443 127.659 81.3489 127.659 80.2443H125.659ZM125.636 82.2434C125.69 82.244 125.745 82.2443 125.799 82.2443V78.2443C125.76 78.2443 125.721 78.2441 125.681 78.2437L125.636 82.2434ZM125.799 82.2443C133.577 82.2443 139.883 75.9388 139.883 68.1604H135.883C135.883 73.7296 131.368 78.2443 125.799 78.2443V82.2443ZM139.883 68.1604C139.883 60.3821 133.577 54.0765 125.799 54.0765V58.0765C131.368 58.0765 135.883 62.5913 135.883 68.1604H139.883ZM125.799 54.0765C125.745 54.0765 125.69 54.0768 125.636 54.0775L125.681 58.0772C125.72 58.0768 125.76 58.0765 125.799 58.0765V54.0765ZM123.659 56.0765V56.0773H127.659V56.0765H123.659ZM122.537 58.0765H125.659V54.0765H122.537V58.0765ZM124.519 56.3467C124.643 55.4305 124.708 54.4959 124.708 53.5474H120.708C120.708 54.3147 120.656 55.0687 120.555 55.8063L124.519 56.3467ZM124.708 53.5474C124.708 42.1994 115.508 33 104.16 33V37C113.299 37 120.708 44.4085 120.708 53.5474H124.708ZM104.16 33C92.8125 33 83.6131 42.1994 83.6131 53.5474H87.6131C87.6131 44.4085 95.0216 37 104.16 37V33ZM83.6131 53.5474C83.6131 54.616 83.6948 55.6669 83.8528 56.6938L87.8063 56.0858C87.6792 55.2594 87.6131 54.4118 87.6131 53.5474H83.6131ZM86.2822 54.4417C85.2527 54.2025 84.1818 54.0765 83.0839 54.0765V58.0765C83.8749 58.0765 84.6422 58.1672 85.3769 58.3379L86.2822 54.4417ZM83.0839 54.0765C75.3056 54.0765 69 60.3821 69 68.1604H73C73 62.5913 77.5147 58.0765 83.0839 58.0765V54.0765ZM69 68.1604C69 75.9388 75.3056 82.2443 83.0839 82.2443V78.2443C77.5147 78.2443 73 73.7296 73 68.1604H69ZM83.0839 82.2443C83.1387 82.2443 83.1933 82.244 83.2479 82.2434L83.2021 78.2437C83.1627 78.2441 83.1233 78.2443 83.0839 78.2443V82.2443ZM84.7956 81.4818L84.7962 81.481L81.6538 79.0061L81.6531 79.0069L84.7956 81.4818ZM125.659 78.2443H83.2244V82.2443H125.659V78.2443ZM123.659 80.2435V80.2443H127.659V80.2435H123.659Z" fill="url(#paint1_linear_38_9807)" mask="url(#path-1-inside-1_38_9807)"/>
</g>
<g filter="url(#filter1_bd_38_9807)">
<mask id="path-3-inside-2_38_9807" fill="white">
<path fill-rule="evenodd" clip-rule="evenodd" d="M162.186 111.214C162.251 111.215 162.315 111.216 162.38 111.216C171.615 111.216 179.101 103.729 179.101 94.4948C179.101 85.2602 171.615 77.774 162.38 77.774C162.315 77.774 162.251 77.7744 162.186 77.7751V77.774H157.866C158.022 76.6297 158.103 75.4614 158.103 74.2743C158.103 60.1002 146.613 48.6099 132.439 48.6099C118.265 48.6099 106.774 60.1002 106.774 74.2743C106.774 75.6117 106.876 76.9253 107.074 78.2075C105.853 77.9239 104.581 77.774 103.274 77.774C94.0398 77.774 86.5537 85.2602 86.5537 94.4948C86.5537 103.729 94.0398 111.216 103.274 111.216C103.34 111.216 103.405 111.215 103.47 111.214L103.469 111.216H162.186V111.214Z"/>
</mask>
<path fill-rule="evenodd" clip-rule="evenodd" d="M162.186 111.214C162.251 111.215 162.315 111.216 162.38 111.216C171.615 111.216 179.101 103.729 179.101 94.4948C179.101 85.2602 171.615 77.774 162.38 77.774C162.315 77.774 162.251 77.7744 162.186 77.7751V77.774H157.866C158.022 76.6297 158.103 75.4614 158.103 74.2743C158.103 60.1002 146.613 48.6099 132.439 48.6099C118.265 48.6099 106.774 60.1002 106.774 74.2743C106.774 75.6117 106.876 76.9253 107.074 78.2075C105.853 77.9239 104.581 77.774 103.274 77.774C94.0398 77.774 86.5537 85.2602 86.5537 94.4948C86.5537 103.729 94.0398 111.216 103.274 111.216C103.34 111.216 103.405 111.215 103.47 111.214L103.469 111.216H162.186V111.214Z" fill="url(#paint2_linear_38_9807)" shape-rendering="crispEdges"/>
<path d="M162.186 111.214L162.209 109.215C161.674 109.208 161.16 109.416 160.78 109.792C160.4 110.168 160.186 110.68 160.186 111.214H162.186ZM162.186 77.7751H160.186C160.186 78.3095 160.4 78.8217 160.78 79.1974C161.16 79.5731 161.674 79.7811 162.209 79.775L162.186 77.7751ZM162.186 77.774H164.186C164.186 76.6694 163.29 75.774 162.186 75.774V77.774ZM157.866 77.774L155.885 77.5038C155.807 78.0761 155.98 78.6541 156.36 79.0892C156.739 79.5243 157.289 79.774 157.866 79.774V77.774ZM107.074 78.2075L106.621 80.1556C107.268 80.3059 107.947 80.1255 108.433 79.6742C108.92 79.223 109.151 78.5596 109.05 77.9035L107.074 78.2075ZM103.47 111.214L105.04 112.453C105.517 111.848 105.604 111.023 105.264 110.331C104.924 109.64 104.217 109.206 103.447 109.215L103.47 111.214ZM103.469 111.216L101.898 109.977C101.424 110.579 101.335 111.399 101.669 112.088C102.004 112.778 102.703 113.216 103.469 113.216V111.216ZM162.186 111.216V113.216C163.29 113.216 164.186 112.32 164.186 111.216H162.186ZM162.163 113.214C162.235 113.215 162.308 113.216 162.38 113.216V109.216C162.323 109.216 162.266 109.215 162.209 109.215L162.163 113.214ZM162.38 113.216C172.72 113.216 181.101 104.834 181.101 94.4948H177.101C177.101 102.625 170.51 109.216 162.38 109.216V113.216ZM181.101 94.4948C181.101 84.1556 172.72 75.774 162.38 75.774V79.774C170.51 79.774 177.101 86.3647 177.101 94.4948H181.101ZM162.38 75.774C162.308 75.774 162.235 75.7744 162.163 75.7753L162.209 79.775C162.266 79.7743 162.323 79.774 162.38 79.774V75.774ZM160.186 77.774V77.7751H164.186V77.774H160.186ZM157.866 79.774H162.186V75.774H157.866V79.774ZM159.848 78.0442C160.016 76.8106 160.103 75.552 160.103 74.2743H156.103C156.103 75.3708 156.029 76.4488 155.885 77.5038L159.848 78.0442ZM160.103 74.2743C160.103 58.9956 147.717 46.6099 132.439 46.6099V50.6099C145.508 50.6099 156.103 61.2048 156.103 74.2743H160.103ZM132.439 46.6099C117.16 46.6099 104.774 58.9956 104.774 74.2743H108.774C108.774 61.2048 119.369 50.6099 132.439 50.6099V46.6099ZM104.774 74.2743C104.774 75.7138 104.884 77.129 105.097 78.5116L109.05 77.9035C108.869 76.7215 108.774 75.5096 108.774 74.2743H104.774ZM107.526 76.2594C106.158 75.9416 104.735 75.774 103.274 75.774V79.774C104.428 79.774 105.548 79.9063 106.621 80.1556L107.526 76.2594ZM103.274 75.774C92.9353 75.774 84.5537 84.1556 84.5537 94.4948H88.5537C88.5537 86.3647 95.1444 79.774 103.274 79.774V75.774ZM84.5537 94.4948C84.5537 104.834 92.9353 113.216 103.274 113.216V109.216C95.1444 109.216 88.5537 102.625 88.5537 94.4948H84.5537ZM103.274 113.216C103.347 113.216 103.42 113.215 103.493 113.214L103.447 109.215C103.389 109.215 103.332 109.216 103.274 109.216V113.216ZM105.039 112.454L105.04 112.453L101.899 109.976L101.898 109.977L105.039 112.454ZM162.186 109.216H103.469V113.216H162.186V109.216ZM160.186 111.214V111.216H164.186V111.214H160.186Z" fill="url(#paint3_linear_38_9807)" mask="url(#path-3-inside-2_38_9807)"/>
</g>
<g filter="url(#filter2_bd_38_9807)">
<mask id="path-5-inside-3_38_9807" fill="white">
<path fill-rule="evenodd" clip-rule="evenodd" d="M192.541 93.8535C192.588 93.854 192.635 93.8543 192.682 93.8543C199.356 93.8543 204.766 88.4441 204.766 81.7704C204.766 75.0966 199.356 69.6865 192.682 69.6865C192.635 69.6865 192.588 69.6868 192.541 69.6873V69.6865H189.42C189.532 68.8595 189.591 68.0152 189.591 67.1572C189.591 56.9138 181.287 48.6099 171.043 48.6099C160.8 48.6099 152.496 56.9138 152.496 67.1572C152.496 68.1238 152.57 69.0731 152.712 69.9998C151.83 69.7948 150.911 69.6865 149.967 69.6865C143.293 69.6865 137.883 75.0966 137.883 81.7704C137.883 88.4441 143.293 93.8543 149.967 93.8543C150.014 93.8543 150.061 93.854 150.108 93.8535L150.107 93.8543H192.541V93.8535Z"/>
</mask>
<path fill-rule="evenodd" clip-rule="evenodd" d="M192.541 93.8535C192.588 93.854 192.635 93.8543 192.682 93.8543C199.356 93.8543 204.766 88.4441 204.766 81.7704C204.766 75.0966 199.356 69.6865 192.682 69.6865C192.635 69.6865 192.588 69.6868 192.541 69.6873V69.6865H189.42C189.532 68.8595 189.591 68.0152 189.591 67.1572C189.591 56.9138 181.287 48.6099 171.043 48.6099C160.8 48.6099 152.496 56.9138 152.496 67.1572C152.496 68.1238 152.57 69.0731 152.712 69.9998C151.83 69.7948 150.911 69.6865 149.967 69.6865C143.293 69.6865 137.883 75.0966 137.883 81.7704C137.883 88.4441 143.293 93.8543 149.967 93.8543C150.014 93.8543 150.061 93.854 150.108 93.8535L150.107 93.8543H192.541V93.8535Z" fill="url(#paint4_linear_38_9807)" shape-rendering="crispEdges"/>
<path d="M192.541 93.8535L192.564 91.8536C192.03 91.8475 191.515 92.0555 191.135 92.4312C190.755 92.8069 190.541 93.3191 190.541 93.8535H192.541ZM192.541 69.6873H190.541C190.541 70.2217 190.755 70.7338 191.135 71.1095C191.515 71.4852 192.03 71.6932 192.564 71.6872L192.541 69.6873ZM192.541 69.6865H194.541C194.541 68.5819 193.646 67.6865 192.541 67.6865V69.6865ZM189.42 69.6865L187.438 69.4163C187.36 69.9886 187.533 70.5666 187.913 71.0017C188.293 71.4368 188.842 71.6865 189.42 71.6865V69.6865ZM152.712 69.9998L152.26 71.9479C152.906 72.0981 153.585 71.9178 154.072 71.4665C154.559 71.0152 154.79 70.3518 154.689 69.6958L152.712 69.9998ZM150.108 93.8535L151.679 95.0909C152.156 94.4858 152.242 93.6609 151.902 92.97C151.562 92.279 150.855 91.8448 150.085 91.8536L150.108 93.8535ZM150.107 93.8543L148.536 92.6169C148.062 93.2187 147.974 94.0384 148.308 94.7275C148.642 95.4167 149.341 95.8543 150.107 95.8543V93.8543ZM192.541 93.8543V95.8543C193.646 95.8543 194.541 94.9589 194.541 93.8543H192.541ZM192.519 95.8534C192.573 95.854 192.627 95.8543 192.682 95.8543V91.8543C192.642 91.8543 192.603 91.8541 192.564 91.8536L192.519 95.8534ZM192.682 95.8543C200.46 95.8543 206.766 89.5487 206.766 81.7704H202.766C202.766 87.3396 198.251 91.8543 192.682 91.8543V95.8543ZM206.766 81.7704C206.766 73.9921 200.46 67.6865 192.682 67.6865V71.6865C198.251 71.6865 202.766 76.2012 202.766 81.7704H206.766ZM192.682 67.6865C192.627 67.6865 192.573 67.6868 192.519 67.6874L192.564 71.6872C192.603 71.6867 192.643 71.6865 192.682 71.6865V67.6865ZM190.541 69.6865V69.6873H194.541V69.6865H190.541ZM189.42 71.6865H192.541V67.6865H189.42V71.6865ZM191.401 69.9567C191.526 69.0404 191.591 68.1058 191.591 67.1572H187.591C187.591 67.9245 187.539 68.6786 187.438 69.4163L191.401 69.9567ZM191.591 67.1572C191.591 55.8092 182.391 46.6099 171.043 46.6099V50.6099C180.182 50.6099 187.591 58.0184 187.591 67.1572H191.591ZM171.043 46.6099C159.695 46.6099 150.496 55.8092 150.496 67.1572H154.496C154.496 58.0184 161.904 50.6099 171.043 50.6099V46.6099ZM150.496 67.1572C150.496 68.2259 150.578 69.2769 150.736 70.3038L154.689 69.6958C154.562 68.8693 154.496 68.0217 154.496 67.1572H150.496ZM153.165 68.0517C152.136 67.8125 151.065 67.6865 149.967 67.6865V71.6865C150.758 71.6865 151.525 71.7772 152.26 71.9479L153.165 68.0517ZM149.967 67.6865C142.188 67.6865 135.883 73.9921 135.883 81.7704H139.883C139.883 76.2012 144.398 71.6865 149.967 71.6865V67.6865ZM135.883 81.7704C135.883 89.5487 142.188 95.8543 149.967 95.8543V91.8543C144.398 91.8543 139.883 87.3396 139.883 81.7704H135.883ZM149.967 95.8543C150.022 95.8543 150.076 95.854 150.131 95.8534L150.085 91.8536C150.046 91.8541 150.006 91.8543 149.967 91.8543V95.8543ZM151.679 95.0917L151.679 95.0909L148.537 92.6161L148.536 92.6169L151.679 95.0917ZM192.541 91.8543H150.107V95.8543H192.541V91.8543ZM190.541 93.8535V93.8543H194.541V93.8535H190.541Z" fill="url(#paint5_linear_38_9807)" mask="url(#path-5-inside-3_38_9807)"/>
</g>
<defs>
<filter id="filter0_bd_38_9807" x="0" y="0" width="166.883" height="145.244" filterUnits="userSpaceOnUse" color-interpolation-filters="sRGB">
<feFlood flood-opacity="0" result="BackgroundImageFix"/>
<feGaussianBlur in="BackgroundImageFix" stdDeviation="7"/>
<feComposite in2="SourceAlpha" operator="in" result="effect1_backgroundBlur_38_9807"/>
<feColorMatrix in="SourceAlpha" type="matrix" values="0 0 0 0 0 0 0 0 0 0 0 0 0 0 0 0 0 0 127 0" result="hardAlpha"/>
<feOffset dx="-21" dy="15"/>
<feGaussianBlur stdDeviation="25"/>
<feComposite in2="hardAlpha" operator="out"/>
<feColorMatrix type="matrix" values="0 0 0 0 0.113438 0 0 0 0 0.148981 0 0 0 0 0.275 0 0 0 0.25 0"/>
<feBlend mode="normal" in2="effect1_backgroundBlur_38_9807" result="effect2_dropShadow_38_9807"/>
<feBlend mode="normal" in="SourceGraphic" in2="effect2_dropShadow_38_9807" result="shape"/>
</filter>
<filter id="filter1_bd_38_9807" x="15.5537" y="13.6099" width="192.548" height="162.606" filterUnits="userSpaceOnUse" color-interpolation-filters="sRGB">
<feFlood flood-opacity="0" result="BackgroundImageFix"/>
<feGaussianBlur in="BackgroundImageFix" stdDeviation="7"/>
<feComposite in2="SourceAlpha" operator="in" result="effect1_backgroundBlur_38_9807"/>
<feColorMatrix in="SourceAlpha" type="matrix" values="0 0 0 0 0 0 0 0 0 0 0 0 0 0 0 0 0 0 127 0" result="hardAlpha"/>
<feOffset dx="-21" dy="15"/>
<feGaussianBlur stdDeviation="25"/>
<feComposite in2="hardAlpha" operator="out"/>
<feColorMatrix type="matrix" values="0 0 0 0 0.113725 0 0 0 0 0.14902 0 0 0 0 0.27451 0 0 0 0.25 0"/>
<feBlend mode="normal" in2="effect1_backgroundBlur_38_9807" result="effect2_dropShadow_38_9807"/>
<feBlend mode="normal" in="SourceGraphic" in2="effect2_dropShadow_38_9807" result="shape"/>
</filter>
<filter id="filter2_bd_38_9807" x="66.8828" y="13.6099" width="166.883" height="145.244" filterUnits="userSpaceOnUse" color-interpolation-filters="sRGB">
<feFlood flood-opacity="0" result="BackgroundImageFix"/>
<feGaussianBlur in="BackgroundImageFix" stdDeviation="7"/>
<feComposite in2="SourceAlpha" operator="in" result="effect1_backgroundBlur_38_9807"/>
<feColorMatrix in="SourceAlpha" type="matrix" values="0 0 0 0 0 0 0 0 0 0 0 0 0 0 0 0 0 0 127 0" result="hardAlpha"/>
<feOffset dx="-21" dy="15"/>
<feGaussianBlur stdDeviation="25"/>
<feComposite in2="hardAlpha" operator="out"/>
<feColorMatrix type="matrix" values="0 0 0 0 0.113438 0 0 0 0 0.148981 0 0 0 0 0.275 0 0 0 0.25 0"/>
<feBlend mode="normal" in2="effect1_backgroundBlur_38_9807" result="effect2_dropShadow_38_9807"/>
<feBlend mode="normal" in="SourceGraphic" in2="effect2_dropShadow_38_9807" result="shape"/>
</filter>
<linearGradient id="paint0_linear_38_9807" x1="107.552" y1="36.361" x2="107.552" y2="85.3567" gradientUnits="userSpaceOnUse">
<stop stop-color="white"/>
<stop offset="1" stop-color="white" stop-opacity="0"/>
</linearGradient>
<linearGradient id="paint1_linear_38_9807" x1="104.441" y1="35" x2="104.441" y2="80.2444" gradientUnits="userSpaceOnUse">
<stop stop-color="white"/>
<stop offset="1" stop-color="white" stop-opacity="0"/>
</linearGradient>
<linearGradient id="paint2_linear_38_9807" x1="132.827" y1="28.5839" x2="132.827" y2="119.965" gradientUnits="userSpaceOnUse">
<stop stop-color="white"/>
<stop offset="1" stop-color="white" stop-opacity="0"/>
</linearGradient>
<linearGradient id="paint3_linear_38_9807" x1="132.827" y1="48.6099" x2="132.827" y2="111.215" gradientUnits="userSpaceOnUse">
<stop stop-color="white"/>
<stop offset="1" stop-color="white" stop-opacity="0"/>
</linearGradient>
<linearGradient id="paint4_linear_38_9807" x1="174.435" y1="49.9709" x2="174.435" y2="98.9665" gradientUnits="userSpaceOnUse">
<stop stop-color="white"/>
<stop offset="1" stop-color="white" stop-opacity="0"/>
</linearGradient>
<linearGradient id="paint5_linear_38_9807" x1="171.324" y1="48.6099" x2="171.324" y2="93.8542" gradientUnits="userSpaceOnUse">
<stop stop-color="white"/>
<stop offset="1" stop-color="white" stop-opacity="0"/>
</linearGradient>
</defs>
</svg>
