<svg width="260" height="260" viewBox="0 0 260 260" fill="none" xmlns="http://www.w3.org/2000/svg">
<g filter="url(#filter0_f_38_9798)">
<circle cx="129.794" cy="129.794" r="29.7942" fill="#FFC701" fill-opacity="0.35"/>
</g>
<circle cx="129.794" cy="130.771" r="27.8173" fill="url(#paint0_linear_38_9798)" stroke="url(#paint1_linear_38_9798)" stroke-width="2"/>
<mask id="mask0_38_9798" style="mask-type:alpha" maskUnits="userSpaceOnUse" x="100" y="118" width="59" height="42">
<path d="M158.611 130.771C158.611 146.686 145.709 159.588 129.794 159.588C113.879 159.588 100.977 146.686 100.977 130.771C100.977 114.856 111.681 118.56 127.596 118.56C143.511 118.56 158.611 114.856 158.611 130.771Z" fill="url(#paint2_linear_38_9798)"/>
</mask>
<g mask="url(#mask0_38_9798)">
<g filter="url(#filter1_f_38_9798)">
<path fill-rule="evenodd" clip-rule="evenodd" d="M173.753 183.521C173.753 195.121 164.35 204.524 152.751 204.524C152.669 204.524 152.588 204.523 152.506 204.523V204.524H78.7536L78.7543 204.523C78.6728 204.524 78.5911 204.524 78.5093 204.524C66.91 204.524 57.5068 195.121 57.5068 183.522C57.5068 171.923 66.91 162.52 78.5093 162.52C88.5075 162.52 96.8739 169.506 98.9932 178.863L106.106 169.845L128.329 162.519H152.506V162.52C152.588 162.52 152.669 162.519 152.751 162.519C164.35 162.519 173.753 171.922 173.753 183.521Z" fill="#E18700"/>
</g>
</g>
<defs>
<filter id="filter0_f_38_9798" x="0" y="0" width="259.588" height="259.588" filterUnits="userSpaceOnUse" color-interpolation-filters="sRGB">
<feFlood flood-opacity="0" result="BackgroundImageFix"/>
<feBlend mode="normal" in="SourceGraphic" in2="BackgroundImageFix" result="shape"/>
<feGaussianBlur stdDeviation="50" result="effect1_foregroundBlur_38_9798"/>
</filter>
<filter id="filter1_f_38_9798" x="43.5068" y="148.519" width="144.246" height="70.0054" filterUnits="userSpaceOnUse" color-interpolation-filters="sRGB">
<feFlood flood-opacity="0" result="BackgroundImageFix"/>
<feBlend mode="normal" in="SourceGraphic" in2="BackgroundImageFix" result="shape"/>
<feGaussianBlur stdDeviation="7" result="effect1_foregroundBlur_38_9798"/>
</filter>
<linearGradient id="paint0_linear_38_9798" x1="129.794" y1="101.954" x2="129.794" y2="159.588" gradientUnits="userSpaceOnUse">
<stop stop-color="#FFE600"/>
<stop offset="1" stop-color="#FF7A00"/>
</linearGradient>
<linearGradient id="paint1_linear_38_9798" x1="129.794" y1="101.954" x2="129.794" y2="159.588" gradientUnits="userSpaceOnUse">
<stop stop-color="white"/>
<stop offset="1" stop-color="white" stop-opacity="0"/>
</linearGradient>
<linearGradient id="paint2_linear_38_9798" x1="129.794" y1="101.954" x2="129.794" y2="159.588" gradientUnits="userSpaceOnUse">
<stop stop-color="#FFD600"/>
<stop offset="1" stop-color="#FF7A00"/>
</linearGradient>
</defs>
</svg>
