<svg width="212" height="190" viewBox="0 0 212 190" fill="none" xmlns="http://www.w3.org/2000/svg">
<g filter="url(#filter0_bdd_38_9935)">
<mask id="path-1-inside-1_38_9935" fill="white">
<path fill-rule="evenodd" clip-rule="evenodd" d="M140.832 38.202C141.7 38.1093 142.206 39.1298 141.693 39.8365C136.032 47.6488 134.869 58.2887 139.583 67.4551C145.731 79.4074 159.729 84.6866 172.042 80.2349C172.864 79.9379 173.705 80.7072 173.374 81.5158C170.63 88.229 165.568 94.0341 158.613 97.6115C143.125 105.578 124.111 99.4808 116.145 83.9926C108.178 68.5044 114.275 49.4905 129.764 41.5238C133.326 39.6916 137.074 38.6032 140.832 38.202Z"/>
</mask>
<path fill-rule="evenodd" clip-rule="evenodd" d="M140.832 38.202C141.7 38.1093 142.206 39.1298 141.693 39.8365C136.032 47.6488 134.869 58.2887 139.583 67.4551C145.731 79.4074 159.729 84.6866 172.042 80.2349C172.864 79.9379 173.705 80.7072 173.374 81.5158C170.63 88.229 165.568 94.0341 158.613 97.6115C143.125 105.578 124.111 99.4808 116.145 83.9926C108.178 68.5044 114.275 49.4905 129.764 41.5238C133.326 39.6916 137.074 38.6032 140.832 38.202Z" fill="url(#paint0_linear_38_9935)"/>
<path d="M172.042 80.2349L171.362 78.354L172.042 80.2349ZM173.374 81.5158L171.523 80.7589L173.374 81.5158ZM141.693 39.8365L140.074 38.6629L141.693 39.8365ZM141.362 66.5403C137.005 58.0701 138.076 48.2357 143.313 41.0101L140.074 38.6629C133.987 47.0619 132.732 58.5073 137.805 68.3699L141.362 66.5403ZM171.362 78.354C159.983 82.4682 147.044 77.5867 141.362 66.5403L137.805 68.3699C144.419 81.2281 159.476 86.905 172.722 82.1157L171.362 78.354ZM171.523 80.7589C168.952 87.0475 164.214 92.4817 157.699 95.833L159.528 99.39C166.923 95.5864 172.307 89.4104 175.226 82.2726L171.523 80.7589ZM157.699 95.833C143.193 103.294 125.385 97.5837 117.923 83.0778L114.366 84.9074C122.838 101.378 143.058 107.862 159.528 99.39L157.699 95.833ZM117.923 83.0778C110.462 68.5718 116.172 50.7638 130.678 43.3023L128.849 39.7453C112.378 48.2172 105.894 68.437 114.366 84.9074L117.923 83.0778ZM130.678 43.3023C134.018 41.5846 137.528 40.5662 141.045 40.1907L140.62 36.2133C136.621 36.6403 132.634 37.7985 128.849 39.7453L130.678 43.3023ZM172.722 82.1157C172.369 82.2435 172.002 82.1362 171.768 81.9157C171.514 81.6758 171.338 81.2118 171.523 80.7589L175.226 82.2726C175.741 81.0112 175.31 79.7583 174.513 79.0058C173.735 78.2727 172.537 77.9292 171.362 78.354L172.722 82.1157ZM143.313 41.0101C144.045 39.9994 144.047 38.7538 143.559 37.8042C143.057 36.8297 141.974 36.0687 140.62 36.2133L141.045 40.1907C140.559 40.2426 140.162 39.9455 140.002 39.6347C139.855 39.3489 139.854 38.9669 140.074 38.6629L143.313 41.0101Z" fill="url(#paint1_linear_38_9935)" mask="url(#path-1-inside-1_38_9935)"/>
</g>
<g filter="url(#filter1_bd_38_9935)">
<mask id="path-3-inside-2_38_9935" fill="white">
<path fill-rule="evenodd" clip-rule="evenodd" d="M139.655 124.751C139.714 124.752 139.773 124.752 139.832 124.752C148.214 124.752 155.01 117.957 155.01 109.574C155.01 101.191 148.214 94.3959 139.832 94.3959C139.773 94.3959 139.714 94.3962 139.655 94.3969V94.3959H135.734C135.876 93.3571 135.949 92.2965 135.949 91.2188C135.949 78.3524 125.518 67.922 112.652 67.922C99.7854 67.922 89.355 78.3524 89.355 91.2188C89.355 92.433 89.4479 93.6254 89.6269 94.7894C88.519 94.532 87.3645 94.3959 86.1783 94.3959C77.7955 94.3959 71 101.191 71 109.574C71 117.957 77.7955 124.752 86.1783 124.752C86.2374 124.752 86.2964 124.752 86.3553 124.751L86.3545 124.752H139.655V124.751Z"/>
</mask>
<path fill-rule="evenodd" clip-rule="evenodd" d="M139.655 124.751C139.714 124.752 139.773 124.752 139.832 124.752C148.214 124.752 155.01 117.957 155.01 109.574C155.01 101.191 148.214 94.3959 139.832 94.3959C139.773 94.3959 139.714 94.3962 139.655 94.3969V94.3959H135.734C135.876 93.3571 135.949 92.2965 135.949 91.2188C135.949 78.3524 125.518 67.922 112.652 67.922C99.7854 67.922 89.355 78.3524 89.355 91.2188C89.355 92.433 89.4479 93.6254 89.6269 94.7894C88.519 94.532 87.3645 94.3959 86.1783 94.3959C77.7955 94.3959 71 101.191 71 109.574C71 117.957 77.7955 124.752 86.1783 124.752C86.2374 124.752 86.2964 124.752 86.3553 124.751L86.3545 124.752H139.655V124.751Z" fill="url(#paint2_linear_38_9935)" shape-rendering="crispEdges"/>
<path d="M139.655 124.751L139.678 122.752C139.143 122.745 138.629 122.953 138.249 123.329C137.869 123.705 137.655 124.217 137.655 124.751H139.655ZM139.655 94.3969H137.655C137.655 94.9313 137.869 95.4434 138.249 95.8191C138.629 96.1949 139.143 96.4029 139.678 96.3968L139.655 94.3969ZM139.655 94.3959H141.655C141.655 93.2913 140.759 92.3959 139.655 92.3959V94.3959ZM135.734 94.3959L133.752 94.1257C133.674 94.6979 133.847 95.276 134.227 95.7111C134.607 96.1462 135.156 96.3959 135.734 96.3959V94.3959ZM89.6269 94.7894L89.1743 96.7375C89.8209 96.8877 90.4998 96.7074 90.9866 96.2561C91.4734 95.8048 91.7046 95.1414 91.6037 94.4853L89.6269 94.7894ZM86.3553 124.751L87.925 125.991C88.4026 125.386 88.4902 124.561 88.1501 123.869C87.8101 123.177 87.103 122.743 86.3324 122.752L86.3553 124.751ZM86.3545 124.752L84.7849 123.513C84.3099 124.115 84.2204 124.935 84.5547 125.625C84.8889 126.314 85.588 126.752 86.3545 126.752V124.752ZM139.655 124.752V126.752C140.759 126.752 141.655 125.857 141.655 124.752H139.655ZM139.632 126.751C139.698 126.752 139.765 126.752 139.832 126.752V122.752C139.78 122.752 139.729 122.752 139.678 122.752L139.632 126.751ZM139.832 126.752C149.319 126.752 157.01 119.061 157.01 109.574H153.01C153.01 116.852 147.11 122.752 139.832 122.752V126.752ZM157.01 109.574C157.01 100.087 149.319 92.3959 139.832 92.3959V96.3959C147.11 96.3959 153.01 102.296 153.01 109.574H157.01ZM139.832 92.3959C139.765 92.3959 139.698 92.3963 139.632 92.397L139.678 96.3968C139.729 96.3962 139.78 96.3959 139.832 96.3959V92.3959ZM137.655 94.3959V94.3969H141.655V94.3959H137.655ZM135.734 96.3959H139.655V92.3959H135.734V96.3959ZM137.716 94.6661C137.869 93.538 137.949 92.3872 137.949 91.2188H133.949C133.949 92.2059 133.882 93.1762 133.752 94.1257L137.716 94.6661ZM137.949 91.2188C137.949 77.2478 126.623 65.922 112.652 65.922V69.922C124.414 69.922 133.949 79.4569 133.949 91.2188H137.949ZM112.652 65.922C98.6808 65.922 87.355 77.2478 87.355 91.2188H91.355C91.355 79.4569 100.89 69.922 112.652 69.922V65.922ZM87.355 91.2188C87.355 92.5351 87.4557 93.8292 87.6502 95.0934L91.6037 94.4853C91.4401 93.4216 91.355 92.3308 91.355 91.2188H87.355ZM90.0795 92.8413C88.8243 92.5496 87.518 92.3959 86.1783 92.3959V96.3959C87.2111 96.3959 88.2137 96.5143 89.1743 96.7375L90.0795 92.8413ZM86.1783 92.3959C76.691 92.3959 69 100.087 69 109.574H73C73 102.296 78.9001 96.3959 86.1783 96.3959V92.3959ZM69 109.574C69 119.061 76.691 126.752 86.1783 126.752V122.752C78.9001 122.752 73 116.852 73 109.574H69ZM86.1783 126.752C86.2449 126.752 86.3116 126.752 86.3782 126.751L86.3324 122.752C86.2812 122.752 86.2298 122.752 86.1783 122.752V126.752ZM87.9242 125.992L87.925 125.991L84.7857 123.512L84.7849 123.513L87.9242 125.992ZM139.655 122.752H86.3545V126.752H139.655V122.752ZM137.655 124.751V124.752H141.655V124.751H137.655Z" fill="url(#paint3_linear_38_9935)" mask="url(#path-3-inside-2_38_9935)"/>
</g>
<defs>
<filter id="filter0_bdd_38_9935" x="41.6455" y="0.196045" width="169.803" height="165.915" filterUnits="userSpaceOnUse" color-interpolation-filters="sRGB">
<feFlood flood-opacity="0" result="BackgroundImageFix"/>
<feGaussianBlur in="BackgroundImageFix" stdDeviation="7"/>
<feComposite in2="SourceAlpha" operator="in" result="effect1_backgroundBlur_38_9935"/>
<feColorMatrix in="SourceAlpha" type="matrix" values="0 0 0 0 0 0 0 0 0 0 0 0 0 0 0 0 0 0 127 0" result="hardAlpha"/>
<feOffset dx="-21" dy="15"/>
<feGaussianBlur stdDeviation="25"/>
<feComposite in2="hardAlpha" operator="out"/>
<feColorMatrix type="matrix" values="0 0 0 0 0.113438 0 0 0 0 0.148981 0 0 0 0 0.275 0 0 0 0.25 0"/>
<feBlend mode="normal" in2="effect1_backgroundBlur_38_9935" result="effect2_dropShadow_38_9935"/>
<feColorMatrix in="SourceAlpha" type="matrix" values="0 0 0 0 0 0 0 0 0 0 0 0 0 0 0 0 0 0 127 0" result="hardAlpha"/>
<feOffset/>
<feGaussianBlur stdDeviation="19"/>
<feComposite in2="hardAlpha" operator="out"/>
<feColorMatrix type="matrix" values="0 0 0 0 0.619608 0 0 0 0 0.423529 0 0 0 0 1 0 0 0 0.4 0"/>
<feBlend mode="normal" in2="effect2_dropShadow_38_9935" result="effect3_dropShadow_38_9935"/>
<feBlend mode="normal" in="SourceGraphic" in2="effect3_dropShadow_38_9935" result="shape"/>
</filter>
<filter id="filter1_bd_38_9935" x="0" y="32.922" width="184.01" height="156.83" filterUnits="userSpaceOnUse" color-interpolation-filters="sRGB">
<feFlood flood-opacity="0" result="BackgroundImageFix"/>
<feGaussianBlur in="BackgroundImageFix" stdDeviation="7"/>
<feComposite in2="SourceAlpha" operator="in" result="effect1_backgroundBlur_38_9935"/>
<feColorMatrix in="SourceAlpha" type="matrix" values="0 0 0 0 0 0 0 0 0 0 0 0 0 0 0 0 0 0 127 0" result="hardAlpha"/>
<feOffset dx="-21" dy="15"/>
<feGaussianBlur stdDeviation="25"/>
<feComposite in2="hardAlpha" operator="out"/>
<feColorMatrix type="matrix" values="0 0 0 0 0.113438 0 0 0 0 0.148981 0 0 0 0 0.275 0 0 0 0.25 0"/>
<feBlend mode="normal" in2="effect1_backgroundBlur_38_9935" result="effect2_dropShadow_38_9935"/>
<feBlend mode="normal" in="SourceGraphic" in2="effect2_dropShadow_38_9935" result="shape"/>
</filter>
<linearGradient id="paint0_linear_38_9935" x1="124.196" y1="45.0122" x2="153.046" y2="101.1" gradientUnits="userSpaceOnUse">
<stop offset="0.0001" stop-color="#D4C0FF"/>
<stop offset="1" stop-color="#7E2FFF"/>
</linearGradient>
<linearGradient id="paint1_linear_38_9935" x1="127.562" y1="14.056" x2="145.767" y2="87.6653" gradientUnits="userSpaceOnUse">
<stop stop-color="white"/>
<stop offset="1" stop-color="white" stop-opacity="0"/>
</linearGradient>
<linearGradient id="paint2_linear_38_9935" x1="116.912" y1="69.6315" x2="116.912" y2="131.174" gradientUnits="userSpaceOnUse">
<stop stop-color="white"/>
<stop offset="1" stop-color="white" stop-opacity="0"/>
</linearGradient>
<linearGradient id="paint3_linear_38_9935" x1="113.005" y1="67.922" x2="113.005" y2="124.752" gradientUnits="userSpaceOnUse">
<stop stop-color="white"/>
<stop offset="1" stop-color="white" stop-opacity="0"/>
</linearGradient>
</defs>
</svg>
