<svg width="185" height="195" viewBox="0 0 185 195" fill="none" xmlns="http://www.w3.org/2000/svg">
<g filter="url(#filter0_f_38_9784)">
<circle cx="91.7942" cy="73.7942" r="29.7942" fill="#FFC701" fill-opacity="0.5"/>
</g>
<circle cx="91.7939" cy="74.7711" r="27.8173" fill="url(#paint0_linear_38_9784)" stroke="url(#paint1_linear_38_9784)" stroke-width="2"/>
<mask id="mask0_38_9784" style="mask-type:alpha" maskUnits="userSpaceOnUse" x="62" y="62" width="59" height="42">
<path d="M120.611 74.771C120.611 90.6863 107.709 103.588 91.7939 103.588C75.8785 103.588 62.9766 90.6863 62.9766 74.771C62.9766 58.8556 73.6806 62.5602 89.596 62.5602C105.511 62.5602 120.611 58.8556 120.611 74.771Z" fill="url(#paint2_linear_38_9784)"/>
</mask>
<g mask="url(#mask0_38_9784)">
<g filter="url(#filter1_f_38_9784)">
<path fill-rule="evenodd" clip-rule="evenodd" d="M135.753 127.521C135.753 139.121 126.35 148.524 114.751 148.524C114.669 148.524 114.588 148.523 114.507 148.522V148.524H40.7537L40.7544 148.523C40.6728 148.524 40.5911 148.524 40.5093 148.524C28.91 148.524 19.5068 139.121 19.5068 127.522C19.5068 115.922 28.91 106.519 40.5093 106.519C50.5075 106.519 58.874 113.506 60.9932 122.863L68.1057 113.845L90.3293 106.519H114.507V106.52C114.588 106.519 114.669 106.519 114.751 106.519C126.35 106.519 135.753 115.922 135.753 127.521Z" fill="#E18700"/>
</g>
</g>
<g filter="url(#filter2_bd_38_9784)">
<mask id="path-5-inside-1_38_9784" fill="white">
<path fill-rule="evenodd" clip-rule="evenodd" d="M140.423 129.158C140.482 129.159 140.541 129.159 140.6 129.159C148.983 129.159 155.778 122.364 155.778 113.981C155.778 105.598 148.983 98.8026 140.6 98.8026C140.541 98.8026 140.482 98.803 140.423 98.8036V98.8026H136.502C136.644 97.7638 136.717 96.7033 136.717 95.6256C136.717 82.7591 126.287 72.3287 113.42 72.3287C100.554 72.3287 90.1236 82.7591 90.1236 95.6256C90.1236 96.8397 90.2164 98.0321 90.3955 99.1961C89.2875 98.9387 88.1331 98.8026 86.9468 98.8026C78.5641 98.8026 71.7686 105.598 71.7686 113.981C71.7686 122.364 78.5641 129.159 86.9468 129.159C87.0059 129.159 87.0649 129.159 87.1238 129.158L87.123 129.159H140.423V129.158Z"/>
</mask>
<path fill-rule="evenodd" clip-rule="evenodd" d="M140.423 129.158C140.482 129.159 140.541 129.159 140.6 129.159C148.983 129.159 155.778 122.364 155.778 113.981C155.778 105.598 148.983 98.8026 140.6 98.8026C140.541 98.8026 140.482 98.803 140.423 98.8036V98.8026H136.502C136.644 97.7638 136.717 96.7033 136.717 95.6256C136.717 82.7591 126.287 72.3287 113.42 72.3287C100.554 72.3287 90.1236 82.7591 90.1236 95.6256C90.1236 96.8397 90.2164 98.0321 90.3955 99.1961C89.2875 98.9387 88.1331 98.8026 86.9468 98.8026C78.5641 98.8026 71.7686 105.598 71.7686 113.981C71.7686 122.364 78.5641 129.159 86.9468 129.159C87.0059 129.159 87.0649 129.159 87.1238 129.158L87.123 129.159H140.423V129.158Z" fill="url(#paint3_linear_38_9784)" shape-rendering="crispEdges"/>
<path d="M140.423 129.158L140.446 127.158C139.912 127.152 139.397 127.36 139.017 127.736C138.637 128.112 138.423 128.624 138.423 129.158H140.423ZM140.423 98.8036H138.423C138.423 99.338 138.637 99.8502 139.017 100.226C139.397 100.602 139.912 100.81 140.446 100.804L140.423 98.8036ZM140.423 98.8026H142.423C142.423 97.6981 141.528 96.8026 140.423 96.8026V98.8026ZM136.502 98.8026L134.521 98.5324C134.443 99.1047 134.616 99.6827 134.996 100.118C135.376 100.553 135.925 100.803 136.502 100.803V98.8026ZM90.3955 99.1961L89.9429 101.144C90.5894 101.294 91.2684 101.114 91.7552 100.663C92.242 100.212 92.4731 99.5482 92.3722 98.8921L90.3955 99.1961ZM87.1238 129.158L88.6942 130.397C89.1712 129.792 89.2585 128.967 88.9184 128.275C88.5783 127.584 87.8714 127.149 87.101 127.158L87.1238 129.158ZM87.123 129.159L85.5526 127.921C85.0781 128.522 84.9891 129.342 85.3234 130.032C85.6577 130.721 86.3567 131.159 87.123 131.159V129.159ZM140.423 129.159V131.159C141.528 131.159 142.423 130.264 142.423 129.159H140.423ZM140.4 131.158C140.467 131.159 140.533 131.159 140.6 131.159V127.159C140.549 127.159 140.497 127.159 140.446 127.158L140.4 131.158ZM140.6 131.159C150.087 131.159 157.778 123.468 157.778 113.981H153.778C153.778 121.259 147.878 127.159 140.6 127.159V131.159ZM157.778 113.981C157.778 104.494 150.087 96.8026 140.6 96.8026V100.803C147.878 100.803 153.778 106.703 153.778 113.981H157.778ZM140.6 96.8026C140.533 96.8026 140.467 96.803 140.4 96.8038L140.446 100.804C140.497 100.803 140.549 100.803 140.6 100.803V96.8026ZM138.423 98.8026V98.8036H142.423V98.8026H138.423ZM136.502 100.803H140.423V96.8026H136.502V100.803ZM138.484 99.0728C138.638 97.9447 138.717 96.7939 138.717 95.6256H134.717C134.717 96.6126 134.65 97.5829 134.521 98.5324L138.484 99.0728ZM138.717 95.6256C138.717 81.6545 127.391 70.3287 113.42 70.3287V74.3287C125.182 74.3287 134.717 83.8637 134.717 95.6256H138.717ZM113.42 70.3287C99.4494 70.3287 88.1236 81.6545 88.1236 95.6256H92.1236C92.1236 83.8637 101.658 74.3287 113.42 74.3287V70.3287ZM88.1236 95.6256C88.1236 96.9418 88.2243 98.2359 88.4187 99.5002L92.3722 98.8921C92.2086 97.8283 92.1236 96.7375 92.1236 95.6256H88.1236ZM90.8481 97.248C89.5928 96.9564 88.2865 96.8026 86.9468 96.8026V100.803C87.9796 100.803 88.9823 100.921 89.9429 101.144L90.8481 97.248ZM86.9468 96.8026C77.4595 96.8026 69.7686 104.494 69.7686 113.981H73.7686C73.7686 106.703 79.6687 100.803 86.9468 100.803V96.8026ZM69.7686 113.981C69.7686 123.468 77.4595 131.159 86.9468 131.159V127.159C79.6687 127.159 73.7686 121.259 73.7686 113.981H69.7686ZM86.9468 131.159C87.0135 131.159 87.0801 131.159 87.1466 131.158L87.101 127.158C87.0496 127.159 86.9982 127.159 86.9468 127.159V131.159ZM88.6934 130.398L88.6942 130.397L85.5534 127.92L85.5526 127.921L88.6934 130.398ZM140.423 127.159H87.123V131.159H140.423V127.159ZM138.423 129.158V129.159H142.423V129.158H138.423Z" fill="url(#paint4_linear_38_9784)" mask="url(#path-5-inside-1_38_9784)"/>
</g>
<defs>
<filter id="filter0_f_38_9784" x="18" y="0" width="147.588" height="147.588" filterUnits="userSpaceOnUse" color-interpolation-filters="sRGB">
<feFlood flood-opacity="0" result="BackgroundImageFix"/>
<feBlend mode="normal" in="SourceGraphic" in2="BackgroundImageFix" result="shape"/>
<feGaussianBlur stdDeviation="22" result="effect1_foregroundBlur_38_9784"/>
</filter>
<filter id="filter1_f_38_9784" x="5.50684" y="92.5188" width="144.246" height="70.0054" filterUnits="userSpaceOnUse" color-interpolation-filters="sRGB">
<feFlood flood-opacity="0" result="BackgroundImageFix"/>
<feBlend mode="normal" in="SourceGraphic" in2="BackgroundImageFix" result="shape"/>
<feGaussianBlur stdDeviation="7" result="effect1_foregroundBlur_38_9784"/>
</filter>
<filter id="filter2_bd_38_9784" x="0.768555" y="37.3287" width="184.01" height="156.83" filterUnits="userSpaceOnUse" color-interpolation-filters="sRGB">
<feFlood flood-opacity="0" result="BackgroundImageFix"/>
<feGaussianBlur in="BackgroundImageFix" stdDeviation="7"/>
<feComposite in2="SourceAlpha" operator="in" result="effect1_backgroundBlur_38_9784"/>
<feColorMatrix in="SourceAlpha" type="matrix" values="0 0 0 0 0 0 0 0 0 0 0 0 0 0 0 0 0 0 127 0" result="hardAlpha"/>
<feOffset dx="-21" dy="15"/>
<feGaussianBlur stdDeviation="25"/>
<feComposite in2="hardAlpha" operator="out"/>
<feColorMatrix type="matrix" values="0 0 0 0 0.113438 0 0 0 0 0.148981 0 0 0 0 0.275 0 0 0 0.25 0"/>
<feBlend mode="normal" in2="effect1_backgroundBlur_38_9784" result="effect2_dropShadow_38_9784"/>
<feBlend mode="normal" in="SourceGraphic" in2="effect2_dropShadow_38_9784" result="shape"/>
</filter>
<linearGradient id="paint0_linear_38_9784" x1="91.7939" y1="45.9537" x2="91.7939" y2="103.588" gradientUnits="userSpaceOnUse">
<stop stop-color="#FFE600"/>
<stop offset="1" stop-color="#FF7A00"/>
</linearGradient>
<linearGradient id="paint1_linear_38_9784" x1="91.7939" y1="45.9537" x2="91.7939" y2="103.588" gradientUnits="userSpaceOnUse">
<stop stop-color="white"/>
<stop offset="1" stop-color="white" stop-opacity="0"/>
</linearGradient>
<linearGradient id="paint2_linear_38_9784" x1="91.7939" y1="45.9536" x2="91.7939" y2="103.588" gradientUnits="userSpaceOnUse">
<stop stop-color="#FFD600"/>
<stop offset="1" stop-color="#FF7A00"/>
</linearGradient>
<linearGradient id="paint3_linear_38_9784" x1="117.681" y1="74.0382" x2="117.681" y2="135.58" gradientUnits="userSpaceOnUse">
<stop stop-color="white"/>
<stop offset="1" stop-color="white" stop-opacity="0"/>
</linearGradient>
<linearGradient id="paint4_linear_38_9784" x1="113.773" y1="72.3287" x2="113.773" y2="129.159" gradientUnits="userSpaceOnUse">
<stop stop-color="white"/>
<stop offset="1" stop-color="white" stop-opacity="0"/>
</linearGradient>
</defs>
</svg>
