<svg width="219" height="221" viewBox="0 0 219 221" fill="none" xmlns="http://www.w3.org/2000/svg">
<g filter="url(#filter0_bdd_38_9957)">
<mask id="path-1-inside-1_38_9957" fill="white">
<path fill-rule="evenodd" clip-rule="evenodd" d="M130.976 38.668C134.193 37.3138 136.508 41.3509 135.539 44.7049C134.095 49.7029 134.483 55.2408 137.05 60.2322C140.789 67.5004 148.158 71.6826 155.803 71.703C159.297 71.7123 162.542 75.0597 160.347 77.778C158.206 80.4288 155.491 82.6864 152.266 84.3451C139.882 90.7152 124.679 85.8397 118.308 73.4555C111.938 61.0713 116.814 45.8679 129.198 39.4978C129.785 39.1961 130.378 38.9196 130.976 38.668Z"/>
</mask>
<path fill-rule="evenodd" clip-rule="evenodd" d="M130.976 38.668C134.193 37.3138 136.508 41.3509 135.539 44.7049C134.095 49.7029 134.483 55.2408 137.05 60.2322C140.789 67.5004 148.158 71.6826 155.803 71.703C159.297 71.7123 162.542 75.0597 160.347 77.778C158.206 80.4288 155.491 82.6864 152.266 84.3451C139.882 90.7152 124.679 85.8397 118.308 73.4555C111.938 61.0713 116.814 45.8679 129.198 39.4978C129.785 39.1961 130.378 38.9196 130.976 38.668Z" fill="url(#paint0_linear_38_9957)"/>
<path d="M160.347 77.778L158.791 76.5215L160.347 77.778ZM138.829 59.3174C136.504 54.7975 136.152 49.7873 137.46 45.2599L133.617 44.1498C132.038 49.6186 132.462 55.684 135.272 61.147L138.829 59.3174ZM155.809 69.703C148.881 69.6845 142.212 65.8952 138.829 59.3174L135.272 61.147C139.365 69.1056 147.434 73.6806 155.798 73.703L155.809 69.703ZM158.791 76.5215C156.822 78.9597 154.323 81.0378 151.351 82.5666L153.181 86.1236C156.658 84.335 159.591 81.8979 161.903 79.0345L158.791 76.5215ZM151.351 82.5666C139.949 88.4314 125.952 83.9427 120.087 72.5407L116.53 74.3703C123.405 87.7368 139.814 92.9989 153.181 86.1236L151.351 82.5666ZM120.087 72.5407C114.222 61.1387 118.711 47.1412 130.113 41.2763L128.283 37.7193C114.917 44.5946 109.655 61.0038 116.53 74.3703L120.087 72.5407ZM130.113 41.2763C130.654 40.9981 131.2 40.7432 131.751 40.5114L130.2 36.8246C129.555 37.096 128.915 37.3942 128.283 37.7193L130.113 41.2763ZM155.798 73.703C156.957 73.7061 158.076 74.2842 158.667 74.9988C158.949 75.34 159.045 75.6307 159.059 75.8269C159.071 75.9864 159.042 76.2111 158.791 76.5215L161.903 79.0345C162.75 77.9858 163.138 76.7727 163.049 75.5398C162.963 74.3435 162.442 73.2871 161.75 72.4505C160.394 70.8095 158.144 69.7092 155.809 69.703L155.798 73.703ZM137.46 45.2599C138.108 43.0161 137.678 40.5504 136.479 38.7932C135.867 37.8974 134.997 37.1045 133.872 36.691C132.713 36.2651 131.441 36.3022 130.2 36.8246L131.751 40.5114C132.119 40.3566 132.343 40.3906 132.492 40.4455C132.676 40.513 132.927 40.6851 133.175 41.0485C133.695 41.8099 133.938 43.0397 133.617 44.1498L137.46 45.2599Z" fill="url(#paint1_linear_38_9957)" mask="url(#path-1-inside-1_38_9957)"/>
</g>
<g filter="url(#filter1_bd_38_9957)">
<mask id="path-3-inside-2_38_9957" fill="white">
<path fill-rule="evenodd" clip-rule="evenodd" d="M146.632 128.411C146.697 128.412 146.762 128.412 146.827 128.412C156.061 128.412 163.547 120.926 163.547 111.691C163.547 102.457 156.061 94.9707 146.827 94.9707C146.762 94.9707 146.697 94.971 146.632 94.9718V94.9707H142.313C142.469 93.8264 142.549 92.6581 142.549 91.471C142.549 77.297 131.059 65.8066 116.885 65.8066C102.711 65.8066 91.2204 77.297 91.2204 91.471C91.2204 92.8084 91.3227 94.1219 91.5199 95.4041C90.2994 95.1206 89.0276 94.9707 87.7207 94.9707C78.4861 94.9707 71 102.457 71 111.691C71 120.926 78.4861 128.412 87.7207 128.412C87.7859 128.412 87.851 128.412 87.916 128.411L87.9151 128.412H146.632V128.411Z"/>
</mask>
<path fill-rule="evenodd" clip-rule="evenodd" d="M146.632 128.411C146.697 128.412 146.762 128.412 146.827 128.412C156.061 128.412 163.547 120.926 163.547 111.691C163.547 102.457 156.061 94.9707 146.827 94.9707C146.762 94.9707 146.697 94.971 146.632 94.9718V94.9707H142.313C142.469 93.8264 142.549 92.6581 142.549 91.471C142.549 77.297 131.059 65.8066 116.885 65.8066C102.711 65.8066 91.2204 77.297 91.2204 91.471C91.2204 92.8084 91.3227 94.1219 91.5199 95.4041C90.2994 95.1206 89.0276 94.9707 87.7207 94.9707C78.4861 94.9707 71 102.457 71 111.691C71 120.926 78.4861 128.412 87.7207 128.412C87.7859 128.412 87.851 128.412 87.916 128.411L87.9151 128.412H146.632V128.411Z" fill="url(#paint2_linear_38_9957)" shape-rendering="crispEdges"/>
<path d="M146.632 128.411L146.655 126.411C146.121 126.405 145.606 126.613 145.226 126.989C144.846 127.365 144.632 127.877 144.632 128.411H146.632ZM146.632 94.9718H144.632C144.632 95.5061 144.846 96.0183 145.226 96.394C145.606 96.7697 146.121 96.9777 146.655 96.9716L146.632 94.9718ZM146.632 94.9707H148.632C148.632 93.8661 147.737 92.9707 146.632 92.9707V94.9707ZM142.313 94.9707L140.331 94.7005C140.253 95.2727 140.426 95.8508 140.806 96.2859C141.186 96.721 141.735 96.9707 142.313 96.9707V94.9707ZM91.5199 95.4041L91.0673 97.3523C91.7138 97.5025 92.3928 97.3221 92.8796 96.8708C93.3664 96.4196 93.5975 95.7562 93.4966 95.1001L91.5199 95.4041ZM87.916 128.411L89.4866 129.649C89.9636 129.044 90.0506 128.219 89.7105 127.528C89.3704 126.837 88.6634 126.402 87.8931 126.411L87.916 128.411ZM87.9151 128.412L86.3445 127.174C85.8701 127.776 85.7812 128.595 86.1156 129.285C86.45 129.974 87.1489 130.412 87.9151 130.412V128.412ZM146.632 128.412V130.412C147.737 130.412 148.632 129.517 148.632 128.412H146.632ZM146.609 130.411C146.682 130.412 146.754 130.412 146.827 130.412V126.412C146.769 126.412 146.712 126.412 146.655 126.411L146.609 130.411ZM146.827 130.412C157.166 130.412 165.547 122.031 165.547 111.691H161.547C161.547 119.821 154.957 126.412 146.827 126.412V130.412ZM165.547 111.691C165.547 101.352 157.166 92.9707 146.827 92.9707V96.9707C154.957 96.9707 161.547 103.561 161.547 111.691H165.547ZM146.827 92.9707C146.754 92.9707 146.682 92.9711 146.609 92.9719L146.655 96.9716C146.712 96.971 146.769 96.9707 146.827 96.9707V92.9707ZM144.632 94.9707V94.9718H148.632V94.9707H144.632ZM142.313 96.9707H146.632V92.9707H142.313V96.9707ZM144.294 95.2408C144.462 94.0073 144.549 92.7488 144.549 91.471H140.549C140.549 92.5675 140.475 93.6455 140.331 94.7005L144.294 95.2408ZM144.549 91.471C144.549 76.1924 132.163 63.8066 116.885 63.8066V67.8066C129.954 67.8066 140.549 78.4016 140.549 91.471H144.549ZM116.885 63.8066C101.606 63.8066 89.2204 76.1924 89.2204 91.471H93.2204C93.2204 78.4016 103.815 67.8066 116.885 67.8066V63.8066ZM89.2204 91.471C89.2204 92.9106 89.3305 94.3257 89.5431 95.7082L93.4966 95.1001C93.3149 93.9182 93.2204 92.7063 93.2204 91.471H89.2204ZM91.9725 93.456C90.6046 93.1382 89.181 92.9707 87.7207 92.9707V96.9707C88.8741 96.9707 89.9941 97.1029 91.0673 97.3523L91.9725 93.456ZM87.7207 92.9707C77.3816 92.9707 69 101.352 69 111.691H73C73 103.561 79.5907 96.9707 87.7207 96.9707V92.9707ZM69 111.691C69 122.031 77.3816 130.412 87.7207 130.412V126.412C79.5907 126.412 73 119.821 73 111.691H69ZM87.7207 130.412C87.7936 130.412 87.8663 130.412 87.9389 130.411L87.8931 126.411C87.8357 126.412 87.7783 126.412 87.7207 126.412V130.412ZM89.4857 129.65L89.4866 129.649L86.3454 127.173L86.3445 127.174L89.4857 129.65ZM146.632 126.412H87.9151V130.412H146.632V126.412ZM144.632 128.411V128.412H148.632V128.411H144.632Z" fill="url(#paint3_linear_38_9957)" mask="url(#path-3-inside-2_38_9957)"/>
</g>
<g filter="url(#filter2_bd_38_9957)">
<mask id="path-5-inside-3_38_9957" fill="white">
<path fill-rule="evenodd" clip-rule="evenodd" d="M176.988 111.05C177.034 111.051 177.081 111.051 177.128 111.051C183.802 111.051 189.212 105.641 189.212 98.9671C189.212 92.2934 183.802 86.8832 177.128 86.8832C177.081 86.8832 177.034 86.8835 176.988 86.884V86.8832H173.866C173.979 86.0563 174.037 85.2119 174.037 84.354C174.037 74.1106 165.733 65.8066 155.49 65.8066C145.246 65.8066 136.942 74.1106 136.942 84.354C136.942 85.3206 137.016 86.2699 137.159 87.1965C136.277 86.9916 135.357 86.8832 134.413 86.8832C127.739 86.8832 122.329 92.2934 122.329 98.9671C122.329 105.641 127.739 111.051 134.413 111.051C134.46 111.051 134.507 111.051 134.554 111.05L134.553 111.051H176.988V111.05Z"/>
</mask>
<path fill-rule="evenodd" clip-rule="evenodd" d="M176.988 111.05C177.034 111.051 177.081 111.051 177.128 111.051C183.802 111.051 189.212 105.641 189.212 98.9671C189.212 92.2934 183.802 86.8832 177.128 86.8832C177.081 86.8832 177.034 86.8835 176.988 86.884V86.8832H173.866C173.979 86.0563 174.037 85.2119 174.037 84.354C174.037 74.1106 165.733 65.8066 155.49 65.8066C145.246 65.8066 136.942 74.1106 136.942 84.354C136.942 85.3206 137.016 86.2699 137.159 87.1965C136.277 86.9916 135.357 86.8832 134.413 86.8832C127.739 86.8832 122.329 92.2934 122.329 98.9671C122.329 105.641 127.739 111.051 134.413 111.051C134.46 111.051 134.507 111.051 134.554 111.05L134.553 111.051H176.988V111.05Z" fill="url(#paint4_linear_38_9957)" shape-rendering="crispEdges"/>
<path d="M176.988 111.05L177.01 109.05C176.476 109.044 175.962 109.252 175.582 109.628C175.201 110.004 174.988 110.516 174.988 111.05H176.988ZM176.988 86.884H174.988C174.988 87.4184 175.201 87.9306 175.582 88.3063C175.962 88.682 176.476 88.89 177.01 88.8839L176.988 86.884ZM176.988 86.8832H178.988C178.988 85.7787 178.092 84.8832 176.988 84.8832V86.8832ZM173.866 86.8832L171.884 86.613C171.806 87.1853 171.979 87.7633 172.359 88.1984C172.739 88.6336 173.288 88.8832 173.866 88.8832V86.8832ZM137.159 87.1965L136.706 89.1446C137.353 89.2949 138.032 89.1145 138.518 88.6632C139.005 88.212 139.236 87.5486 139.135 86.8925L137.159 87.1965ZM134.554 111.05L136.126 112.287C136.602 111.681 136.688 110.857 136.348 110.166C136.008 109.475 135.301 109.042 134.531 109.05L134.554 111.05ZM134.553 111.051L132.981 109.815C132.508 110.417 132.42 111.236 132.754 111.925C133.089 112.614 133.788 113.051 134.553 113.051V111.051ZM176.988 111.051V113.051C178.092 113.051 178.988 112.156 178.988 111.051H176.988ZM176.965 113.05C177.019 113.051 177.074 113.051 177.128 113.051V109.051C177.089 109.051 177.05 109.051 177.01 109.05L176.965 113.05ZM177.128 113.051C184.907 113.051 191.212 106.745 191.212 98.9671H187.212C187.212 104.536 182.697 109.051 177.128 109.051V113.051ZM191.212 98.9671C191.212 91.1888 184.907 84.8832 177.128 84.8832V88.8832C182.697 88.8832 187.212 93.3979 187.212 98.9671H191.212ZM177.128 84.8832C177.074 84.8832 177.019 84.8835 176.965 84.8842L177.01 88.8839C177.05 88.8835 177.089 88.8832 177.128 88.8832V84.8832ZM174.988 86.8832V86.884H178.988V86.8832H174.988ZM173.866 88.8832H176.988V84.8832H173.866V88.8832ZM175.848 87.1534C175.973 86.2372 176.037 85.3026 176.037 84.354H172.037C172.037 85.1213 171.985 85.8753 171.884 86.613L175.848 87.1534ZM176.037 84.354C176.037 73.006 166.838 63.8066 155.49 63.8066V67.8066C164.628 67.8066 172.037 75.2152 172.037 84.354H176.037ZM155.49 63.8066C144.142 63.8066 134.942 73.006 134.942 84.354H138.942C138.942 75.2152 146.351 67.8066 155.49 67.8066V63.8066ZM134.942 84.354C134.942 85.4227 135.024 86.4736 135.182 87.5006L139.135 86.8925C139.008 86.0661 138.942 85.2184 138.942 84.354H134.942ZM137.611 85.2484C136.582 85.0092 135.511 84.8832 134.413 84.8832V88.8832C135.204 88.8832 135.971 88.9739 136.706 89.1446L137.611 85.2484ZM134.413 84.8832C126.635 84.8832 120.329 91.1888 120.329 98.9671H124.329C124.329 93.3979 128.844 88.8832 134.413 88.8832V84.8832ZM120.329 98.9671C120.329 106.745 126.635 113.051 134.413 113.051V109.051C128.844 109.051 124.329 104.536 124.329 98.9671H120.329ZM134.413 113.051C134.468 113.051 134.522 113.051 134.577 113.05L134.531 109.05C134.492 109.051 134.452 109.051 134.413 109.051V113.051ZM136.125 112.287L136.126 112.287L132.982 109.814L132.981 109.815L136.125 112.287ZM176.988 109.051H134.553V113.051H176.988V109.051ZM174.988 111.05V111.051H178.988V111.05H174.988Z" fill="url(#paint5_linear_38_9957)" mask="url(#path-5-inside-3_38_9957)"/>
</g>
<g filter="url(#filter3_bdd_38_9957)">
<path d="M97.292 125.534L97.7483 131.924C97.9546 134.813 95.1999 137.01 92.4292 136.168C89.6585 135.325 88.5941 131.965 90.374 129.681L94.3113 124.627C95.251 123.421 97.1831 124.009 97.292 125.534Z" fill="url(#paint6_linear_38_9957)" stroke="url(#paint7_linear_38_9957)" stroke-width="2"/>
<path d="M119.654 125.534L120.111 131.924C120.317 134.813 117.562 137.01 114.791 136.168C112.021 135.325 110.956 131.965 112.736 129.681L116.674 124.627C117.613 123.421 119.545 124.009 119.654 125.534Z" fill="url(#paint8_linear_38_9957)" stroke="url(#paint9_linear_38_9957)" stroke-width="2"/>
<path d="M142.016 125.534L142.472 131.924C142.678 134.813 139.924 137.01 137.153 136.168C134.382 135.325 133.318 131.965 135.098 129.681L139.035 124.627C139.975 123.421 141.907 124.009 142.016 125.534Z" fill="url(#paint10_linear_38_9957)" stroke="url(#paint11_linear_38_9957)" stroke-width="2"/>
</g>
<g filter="url(#filter4_bdd_38_9957)">
<path d="M103.192 143.235L103.649 149.625C103.855 152.513 101.1 154.711 98.3296 153.868C95.5589 153.025 94.4945 149.666 96.2744 147.382L100.212 142.328C101.151 141.122 103.084 141.709 103.192 143.235Z" fill="url(#paint12_linear_38_9957)" stroke="url(#paint13_linear_38_9957)" stroke-width="2"/>
<path d="M122.086 143.235L122.542 149.625C122.749 152.513 119.994 154.711 117.223 153.868C114.452 153.025 113.388 149.666 115.168 147.382L119.105 142.328C120.045 141.122 121.977 141.709 122.086 143.235Z" fill="url(#paint14_linear_38_9957)" stroke="url(#paint15_linear_38_9957)" stroke-width="2"/>
</g>
<defs>
<filter id="filter0_bdd_38_9957" x="44.5107" y="0.399292" width="154.551" height="151.744" filterUnits="userSpaceOnUse" color-interpolation-filters="sRGB">
<feFlood flood-opacity="0" result="BackgroundImageFix"/>
<feGaussianBlur in="BackgroundImageFix" stdDeviation="7"/>
<feComposite in2="SourceAlpha" operator="in" result="effect1_backgroundBlur_38_9957"/>
<feColorMatrix in="SourceAlpha" type="matrix" values="0 0 0 0 0 0 0 0 0 0 0 0 0 0 0 0 0 0 127 0" result="hardAlpha"/>
<feOffset dx="-21" dy="15"/>
<feGaussianBlur stdDeviation="25"/>
<feComposite in2="hardAlpha" operator="out"/>
<feColorMatrix type="matrix" values="0 0 0 0 0.113438 0 0 0 0 0.148981 0 0 0 0 0.275 0 0 0 0.25 0"/>
<feBlend mode="normal" in2="effect1_backgroundBlur_38_9957" result="effect2_dropShadow_38_9957"/>
<feColorMatrix in="SourceAlpha" type="matrix" values="0 0 0 0 0 0 0 0 0 0 0 0 0 0 0 0 0 0 127 0" result="hardAlpha"/>
<feOffset/>
<feGaussianBlur stdDeviation="19"/>
<feComposite in2="hardAlpha" operator="out"/>
<feColorMatrix type="matrix" values="0 0 0 0 0.619608 0 0 0 0 0.423529 0 0 0 0 1 0 0 0 0.4 0"/>
<feBlend mode="normal" in2="effect2_dropShadow_38_9957" result="effect3_dropShadow_38_9957"/>
<feBlend mode="normal" in="SourceGraphic" in2="effect3_dropShadow_38_9957" result="shape"/>
</filter>
<filter id="filter1_bd_38_9957" x="0" y="30.8066" width="192.547" height="162.605" filterUnits="userSpaceOnUse" color-interpolation-filters="sRGB">
<feFlood flood-opacity="0" result="BackgroundImageFix"/>
<feGaussianBlur in="BackgroundImageFix" stdDeviation="7"/>
<feComposite in2="SourceAlpha" operator="in" result="effect1_backgroundBlur_38_9957"/>
<feColorMatrix in="SourceAlpha" type="matrix" values="0 0 0 0 0 0 0 0 0 0 0 0 0 0 0 0 0 0 127 0" result="hardAlpha"/>
<feOffset dx="-21" dy="15"/>
<feGaussianBlur stdDeviation="25"/>
<feComposite in2="hardAlpha" operator="out"/>
<feColorMatrix type="matrix" values="0 0 0 0 0.113725 0 0 0 0 0.14902 0 0 0 0 0.27451 0 0 0 0.25 0"/>
<feBlend mode="normal" in2="effect1_backgroundBlur_38_9957" result="effect2_dropShadow_38_9957"/>
<feBlend mode="normal" in="SourceGraphic" in2="effect2_dropShadow_38_9957" result="shape"/>
</filter>
<filter id="filter2_bd_38_9957" x="51.3291" y="30.8066" width="166.883" height="145.244" filterUnits="userSpaceOnUse" color-interpolation-filters="sRGB">
<feFlood flood-opacity="0" result="BackgroundImageFix"/>
<feGaussianBlur in="BackgroundImageFix" stdDeviation="7"/>
<feComposite in2="SourceAlpha" operator="in" result="effect1_backgroundBlur_38_9957"/>
<feColorMatrix in="SourceAlpha" type="matrix" values="0 0 0 0 0 0 0 0 0 0 0 0 0 0 0 0 0 0 127 0" result="hardAlpha"/>
<feOffset dx="-21" dy="15"/>
<feGaussianBlur stdDeviation="25"/>
<feComposite in2="hardAlpha" operator="out"/>
<feColorMatrix type="matrix" values="0 0 0 0 0.113438 0 0 0 0 0.148981 0 0 0 0 0.275 0 0 0 0.25 0"/>
<feBlend mode="normal" in2="effect1_backgroundBlur_38_9957" result="effect2_dropShadow_38_9957"/>
<feBlend mode="normal" in="SourceGraphic" in2="effect2_dropShadow_38_9957" result="shape"/>
</filter>
<filter id="filter3_bdd_38_9957" x="17.499" y="74.9803" width="166.984" height="127.37" filterUnits="userSpaceOnUse" color-interpolation-filters="sRGB">
<feFlood flood-opacity="0" result="BackgroundImageFix"/>
<feGaussianBlur in="BackgroundImageFix" stdDeviation="7"/>
<feComposite in2="SourceAlpha" operator="in" result="effect1_backgroundBlur_38_9957"/>
<feColorMatrix in="SourceAlpha" type="matrix" values="0 0 0 0 0 0 0 0 0 0 0 0 0 0 0 0 0 0 127 0" result="hardAlpha"/>
<feOffset dx="-21" dy="15"/>
<feGaussianBlur stdDeviation="25"/>
<feComposite in2="hardAlpha" operator="out"/>
<feColorMatrix type="matrix" values="0 0 0 0 0.113438 0 0 0 0 0.148981 0 0 0 0 0.275 0 0 0 0.25 0"/>
<feBlend mode="normal" in2="effect1_backgroundBlur_38_9957" result="effect2_dropShadow_38_9957"/>
<feColorMatrix in="SourceAlpha" type="matrix" values="0 0 0 0 0 0 0 0 0 0 0 0 0 0 0 0 0 0 127 0" result="hardAlpha"/>
<feOffset dy="-7"/>
<feGaussianBlur stdDeviation="20.5"/>
<feComposite in2="hardAlpha" operator="out"/>
<feColorMatrix type="matrix" values="0 0 0 0 0.1375 0 0 0 0 0.74125 0 0 0 0 1 0 0 0 0.3 0"/>
<feBlend mode="normal" in2="effect2_dropShadow_38_9957" result="effect3_dropShadow_38_9957"/>
<feBlend mode="normal" in="SourceGraphic" in2="effect3_dropShadow_38_9957" result="shape"/>
</filter>
<filter id="filter4_bdd_38_9957" x="23.3994" y="92.681" width="141.154" height="127.37" filterUnits="userSpaceOnUse" color-interpolation-filters="sRGB">
<feFlood flood-opacity="0" result="BackgroundImageFix"/>
<feGaussianBlur in="BackgroundImageFix" stdDeviation="7"/>
<feComposite in2="SourceAlpha" operator="in" result="effect1_backgroundBlur_38_9957"/>
<feColorMatrix in="SourceAlpha" type="matrix" values="0 0 0 0 0 0 0 0 0 0 0 0 0 0 0 0 0 0 127 0" result="hardAlpha"/>
<feOffset dx="-21" dy="15"/>
<feGaussianBlur stdDeviation="25"/>
<feComposite in2="hardAlpha" operator="out"/>
<feColorMatrix type="matrix" values="0 0 0 0 0.113438 0 0 0 0 0.148981 0 0 0 0 0.275 0 0 0 0.25 0"/>
<feBlend mode="normal" in2="effect1_backgroundBlur_38_9957" result="effect2_dropShadow_38_9957"/>
<feColorMatrix in="SourceAlpha" type="matrix" values="0 0 0 0 0 0 0 0 0 0 0 0 0 0 0 0 0 0 127 0" result="hardAlpha"/>
<feOffset dy="-7"/>
<feGaussianBlur stdDeviation="20.5"/>
<feComposite in2="hardAlpha" operator="out"/>
<feColorMatrix type="matrix" values="0 0 0 0 0.1375 0 0 0 0 0.74125 0 0 0 0 1 0 0 0 0.3 0"/>
<feBlend mode="normal" in2="effect2_dropShadow_38_9957" result="effect3_dropShadow_38_9957"/>
<feBlend mode="normal" in="SourceGraphic" in2="effect3_dropShadow_38_9957" result="shape"/>
</filter>
<linearGradient id="paint0_linear_38_9957" x1="122.782" y1="43.2977" x2="145.85" y2="88.1449" gradientUnits="userSpaceOnUse">
<stop offset="0.0001" stop-color="#D4C0FF"/>
<stop offset="1" stop-color="#7E2FFF"/>
</linearGradient>
<linearGradient id="paint1_linear_38_9957" x1="124.124" y1="19.239" x2="136.955" y2="78.0655" gradientUnits="userSpaceOnUse">
<stop stop-color="white"/>
<stop offset="1" stop-color="white" stop-opacity="0"/>
</linearGradient>
<linearGradient id="paint2_linear_38_9957" x1="117.274" y1="45.7806" x2="117.274" y2="137.161" gradientUnits="userSpaceOnUse">
<stop stop-color="white"/>
<stop offset="1" stop-color="white" stop-opacity="0"/>
</linearGradient>
<linearGradient id="paint3_linear_38_9957" x1="117.274" y1="65.8066" x2="117.274" y2="128.412" gradientUnits="userSpaceOnUse">
<stop stop-color="white"/>
<stop offset="1" stop-color="white" stop-opacity="0"/>
</linearGradient>
<linearGradient id="paint4_linear_38_9957" x1="158.881" y1="67.1676" x2="158.881" y2="116.163" gradientUnits="userSpaceOnUse">
<stop stop-color="white"/>
<stop offset="1" stop-color="white" stop-opacity="0"/>
</linearGradient>
<linearGradient id="paint5_linear_38_9957" x1="155.771" y1="65.8066" x2="155.771" y2="111.051" gradientUnits="userSpaceOnUse">
<stop stop-color="white"/>
<stop offset="1" stop-color="white" stop-opacity="0"/>
</linearGradient>
<linearGradient id="paint6_linear_38_9957" x1="97.7944" y1="118.529" x2="92.1382" y2="137.124" gradientUnits="userSpaceOnUse">
<stop stop-color="#138EFF"/>
<stop offset="1" stop-color="#00E0FF"/>
</linearGradient>
<linearGradient id="paint7_linear_38_9957" x1="97.7944" y1="118.529" x2="92.1382" y2="137.124" gradientUnits="userSpaceOnUse">
<stop stop-color="white"/>
<stop offset="1" stop-color="white" stop-opacity="0"/>
</linearGradient>
<linearGradient id="paint8_linear_38_9957" x1="120.157" y1="118.529" x2="114.5" y2="137.124" gradientUnits="userSpaceOnUse">
<stop stop-color="#138EFF"/>
<stop offset="1" stop-color="#00E0FF"/>
</linearGradient>
<linearGradient id="paint9_linear_38_9957" x1="120.157" y1="118.529" x2="114.5" y2="137.124" gradientUnits="userSpaceOnUse">
<stop stop-color="white"/>
<stop offset="1" stop-color="white" stop-opacity="0"/>
</linearGradient>
<linearGradient id="paint10_linear_38_9957" x1="142.518" y1="118.529" x2="136.862" y2="137.124" gradientUnits="userSpaceOnUse">
<stop stop-color="#138EFF"/>
<stop offset="1" stop-color="#00E0FF"/>
</linearGradient>
<linearGradient id="paint11_linear_38_9957" x1="142.518" y1="118.529" x2="136.862" y2="137.124" gradientUnits="userSpaceOnUse">
<stop stop-color="white"/>
<stop offset="1" stop-color="white" stop-opacity="0"/>
</linearGradient>
<linearGradient id="paint12_linear_38_9957" x1="103.695" y1="136.23" x2="98.0386" y2="154.825" gradientUnits="userSpaceOnUse">
<stop stop-color="#138EFF"/>
<stop offset="1" stop-color="#00E0FF"/>
</linearGradient>
<linearGradient id="paint13_linear_38_9957" x1="103.695" y1="136.23" x2="98.0386" y2="154.825" gradientUnits="userSpaceOnUse">
<stop stop-color="white"/>
<stop offset="1" stop-color="white" stop-opacity="0"/>
</linearGradient>
<linearGradient id="paint14_linear_38_9957" x1="122.588" y1="136.23" x2="116.932" y2="154.825" gradientUnits="userSpaceOnUse">
<stop stop-color="#138EFF"/>
<stop offset="1" stop-color="#00E0FF"/>
</linearGradient>
<linearGradient id="paint15_linear_38_9957" x1="122.588" y1="136.23" x2="116.932" y2="154.825" gradientUnits="userSpaceOnUse">
<stop stop-color="white"/>
<stop offset="1" stop-color="white" stop-opacity="0"/>
</linearGradient>
</defs>
</svg>
