<svg width="219" height="207" viewBox="0 0 219 207" fill="none" xmlns="http://www.w3.org/2000/svg">
<g filter="url(#filter0_bdd_38_9914)">
<mask id="path-1-inside-1_38_9914" fill="white">
<path fill-rule="evenodd" clip-rule="evenodd" d="M127.093 38.8854C127.959 38.7768 128.469 39.7962 127.973 40.5139C123.676 46.7232 122.856 55.039 126.551 62.2229C131.395 71.6397 142.332 75.8761 152.07 72.5932C152.898 72.3142 153.737 73.0875 153.392 73.8899C151.16 79.0777 147.181 83.5509 141.767 86.3358C129.383 92.7059 114.179 87.8304 107.809 75.4462C101.439 63.062 106.315 47.8586 118.699 41.4886C121.403 40.0976 124.242 39.2428 127.093 38.8854Z"/>
</mask>
<path fill-rule="evenodd" clip-rule="evenodd" d="M127.093 38.8854C127.959 38.7768 128.469 39.7962 127.973 40.5139C123.676 46.7232 122.856 55.039 126.551 62.2229C131.395 71.6397 142.332 75.8761 152.07 72.5932C152.898 72.3142 153.737 73.0875 153.392 73.8899C151.16 79.0777 147.181 83.5509 141.767 86.3358C129.383 92.7059 114.179 87.8304 107.809 75.4462C101.439 63.062 106.315 47.8586 118.699 41.4886C121.403 40.0976 124.242 39.2428 127.093 38.8854Z" fill="url(#paint0_linear_38_9914)"/>
<path d="M152.07 72.5932L151.432 70.698L152.07 72.5932ZM153.392 73.8899L151.555 73.0996L153.392 73.8899ZM128.329 61.3081C124.985 54.8066 125.724 47.2784 129.617 41.652L126.328 39.3758C121.628 46.168 120.726 55.2715 124.772 63.1378L128.329 61.3081ZM151.432 70.698C142.617 73.6697 132.714 69.8321 128.329 61.3081L124.772 63.1378C130.075 73.4473 142.048 78.0826 152.709 74.4884L151.432 70.698ZM151.555 73.0996C149.5 77.8767 145.839 81.9925 140.852 84.5573L142.682 88.1143C148.524 85.1094 152.821 80.2788 155.229 74.6803L151.555 73.0996ZM140.852 84.5573C129.45 90.4221 115.453 85.9334 109.588 74.5314L106.031 76.361C112.906 89.7275 129.315 94.9896 142.682 88.1143L140.852 84.5573ZM109.588 74.5314C103.723 63.1294 108.212 49.1319 119.614 43.2671L117.784 39.71C104.418 46.5853 99.1556 62.9945 106.031 76.361L109.588 74.5314ZM119.614 43.2671C122.107 41.9848 124.719 41.1986 127.342 40.8698L126.845 36.9009C123.764 37.2871 120.7 38.2104 117.784 39.71L119.614 43.2671ZM152.709 74.4884C152.367 74.604 152.015 74.4982 151.787 74.2801C151.535 74.038 151.356 73.5616 151.555 73.0996L155.229 74.6803C155.773 73.4159 155.347 72.1516 154.555 71.392C153.787 70.6563 152.602 70.3034 151.432 70.698L152.709 74.4884ZM129.617 41.652C130.32 40.6371 130.309 39.4017 129.815 38.4606C129.305 37.4889 128.209 36.7298 126.845 36.9009L127.342 40.8698C126.843 40.9324 126.436 40.6287 126.273 40.3189C126.127 40.0399 126.122 39.673 126.328 39.3758L129.617 41.652Z" fill="url(#paint1_linear_38_9914)" mask="url(#path-1-inside-1_38_9914)"/>
</g>
<mask id="mask0_38_9914" style="mask-type:alpha" maskUnits="userSpaceOnUse" x="115" y="70" width="47" height="34">
<path d="M161.214 81.0184C161.214 93.6891 150.942 103.961 138.272 103.961C125.601 103.961 115.329 93.6891 115.329 81.0184C115.329 68.3476 123.851 71.297 136.522 71.297C149.192 71.297 161.214 68.3476 161.214 81.0184Z" fill="url(#paint2_linear_38_9914)"/>
</mask>
<g mask="url(#mask0_38_9914)">
<g filter="url(#filter1_f_38_9914)">
<path fill-rule="evenodd" clip-rule="evenodd" d="M173.268 123.015C173.268 132.249 165.782 139.735 156.547 139.735C156.482 139.735 156.418 139.735 156.353 139.734V139.735H97.6358L97.6367 139.734C97.5717 139.735 97.5066 139.735 97.4414 139.735C88.2068 139.735 80.7207 132.249 80.7207 123.015C80.7207 113.78 88.2068 106.294 97.4414 106.294C105.401 106.294 112.062 111.856 113.749 119.306L119.412 112.127L137.105 106.294H156.353V106.295C156.418 106.294 156.482 106.294 156.547 106.294C165.782 106.294 173.268 113.78 173.268 123.015Z" fill="#E18700"/>
</g>
</g>
<g filter="url(#filter2_bd_38_9914)">
<mask id="path-5-inside-2_38_9914" fill="white">
<path fill-rule="evenodd" clip-rule="evenodd" d="M146.632 141.679C146.697 141.679 146.762 141.68 146.827 141.68C156.061 141.68 163.547 134.194 163.547 124.959C163.547 115.724 156.061 108.238 146.827 108.238C146.762 108.238 146.697 108.239 146.632 108.239V108.238H142.313C142.469 107.094 142.549 105.926 142.549 104.738C142.549 90.5644 131.059 79.0741 116.885 79.0741C102.711 79.0741 91.2204 90.5644 91.2204 104.738C91.2204 106.076 91.3227 107.389 91.5199 108.672C90.2994 108.388 89.0276 108.238 87.7207 108.238C78.4861 108.238 71 115.724 71 124.959C71 134.194 78.4861 141.68 87.7207 141.68C87.7859 141.68 87.851 141.679 87.916 141.679L87.9151 141.68H146.632V141.679Z"/>
</mask>
<path fill-rule="evenodd" clip-rule="evenodd" d="M146.632 141.679C146.697 141.679 146.762 141.68 146.827 141.68C156.061 141.68 163.547 134.194 163.547 124.959C163.547 115.724 156.061 108.238 146.827 108.238C146.762 108.238 146.697 108.239 146.632 108.239V108.238H142.313C142.469 107.094 142.549 105.926 142.549 104.738C142.549 90.5644 131.059 79.0741 116.885 79.0741C102.711 79.0741 91.2204 90.5644 91.2204 104.738C91.2204 106.076 91.3227 107.389 91.5199 108.672C90.2994 108.388 89.0276 108.238 87.7207 108.238C78.4861 108.238 71 115.724 71 124.959C71 134.194 78.4861 141.68 87.7207 141.68C87.7859 141.68 87.851 141.679 87.916 141.679L87.9151 141.68H146.632V141.679Z" fill="url(#paint3_linear_38_9914)" shape-rendering="crispEdges"/>
<path d="M146.632 141.679L146.655 139.679C146.121 139.673 145.606 139.881 145.226 140.256C144.846 140.632 144.632 141.144 144.632 141.679H146.632ZM146.632 108.239H144.632C144.632 108.774 144.846 109.286 145.226 109.662C145.606 110.037 146.121 110.245 146.655 110.239L146.632 108.239ZM146.632 108.238H148.632C148.632 107.134 147.737 106.238 146.632 106.238V108.238ZM142.313 108.238L140.331 107.968C140.253 108.54 140.426 109.118 140.806 109.553C141.186 109.989 141.735 110.238 142.313 110.238V108.238ZM91.5199 108.672L91.0673 110.62C91.7138 110.77 92.3928 110.59 92.8796 110.138C93.3664 109.687 93.5976 109.024 93.4966 108.368L91.5199 108.672ZM87.916 141.679L89.4866 142.917C89.9636 142.312 90.0506 141.487 89.7105 140.796C89.3704 140.104 88.6634 139.67 87.8931 139.679L87.916 141.679ZM87.9151 141.68L86.3445 140.441C85.8701 141.043 85.7812 141.863 86.1156 142.552C86.45 143.242 87.1489 143.68 87.9151 143.68V141.68ZM146.632 141.68V143.68C147.737 143.68 148.632 142.784 148.632 141.68H146.632ZM146.609 143.678C146.682 143.679 146.754 143.68 146.827 143.68V139.68C146.769 139.68 146.712 139.679 146.655 139.679L146.609 143.678ZM146.827 143.68C157.166 143.68 165.547 135.298 165.547 124.959H161.547C161.547 133.089 154.957 139.68 146.827 139.68V143.68ZM165.547 124.959C165.547 114.62 157.166 106.238 146.827 106.238V110.238C154.957 110.238 161.547 116.829 161.547 124.959H165.547ZM146.827 106.238C146.754 106.238 146.682 106.239 146.609 106.239L146.655 110.239C146.712 110.239 146.769 110.238 146.827 110.238V106.238ZM144.632 108.238V108.239H148.632V108.238H144.632ZM142.313 110.238H146.632V106.238H142.313V110.238ZM144.294 108.508C144.462 107.275 144.549 106.016 144.549 104.738H140.549C140.549 105.835 140.475 106.913 140.331 107.968L144.294 108.508ZM144.549 104.738C144.549 89.4599 132.163 77.0741 116.885 77.0741V81.0741C129.954 81.0741 140.549 91.669 140.549 104.738H144.549ZM116.885 77.0741C101.606 77.0741 89.2204 89.4599 89.2204 104.738H93.2204C93.2204 91.669 103.815 81.0741 116.885 81.0741V77.0741ZM89.2204 104.738C89.2204 106.178 89.3305 107.593 89.5431 108.976L93.4966 108.368C93.3149 107.186 93.2204 105.974 93.2204 104.738H89.2204ZM91.9725 106.724C90.6046 106.406 89.181 106.238 87.7207 106.238V110.238C88.8741 110.238 89.9941 110.37 91.0673 110.62L91.9725 106.724ZM87.7207 106.238C77.3816 106.238 69 114.62 69 124.959H73C73 116.829 79.5907 110.238 87.7207 110.238V106.238ZM69 124.959C69 135.298 77.3816 143.68 87.7207 143.68V139.68C79.5907 139.68 73 133.089 73 124.959H69ZM87.7207 143.68C87.7936 143.68 87.8663 143.679 87.9389 143.678L87.8931 139.679C87.8357 139.679 87.7783 139.68 87.7207 139.68V143.68ZM89.4857 142.918L89.4866 142.917L86.3454 140.44L86.3445 140.441L89.4857 142.918ZM146.632 139.68H87.9151V143.68H146.632V139.68ZM144.632 141.679V141.68H148.632V141.679H144.632Z" fill="url(#paint4_linear_38_9914)" mask="url(#path-5-inside-2_38_9914)"/>
</g>
<g filter="url(#filter3_bd_38_9914)">
<mask id="path-7-inside-3_38_9914" fill="white">
<path fill-rule="evenodd" clip-rule="evenodd" d="M176.988 124.318C177.034 124.318 177.081 124.318 177.128 124.318C183.802 124.318 189.212 118.908 189.212 112.235C189.212 105.561 183.802 100.151 177.128 100.151C177.081 100.151 177.034 100.151 176.988 100.151V100.151H173.866C173.979 99.3237 174.037 98.4794 174.037 97.6215C174.037 87.378 165.733 79.0741 155.49 79.0741C145.246 79.0741 136.942 87.378 136.942 97.6215C136.942 98.588 137.016 99.5373 137.159 100.464C136.277 100.259 135.357 100.151 134.413 100.151C127.739 100.151 122.329 105.561 122.329 112.235C122.329 118.908 127.739 124.318 134.413 124.318C134.46 124.318 134.507 124.318 134.554 124.318L134.553 124.318H176.988V124.318Z"/>
</mask>
<path fill-rule="evenodd" clip-rule="evenodd" d="M176.988 124.318C177.034 124.318 177.081 124.318 177.128 124.318C183.802 124.318 189.212 118.908 189.212 112.235C189.212 105.561 183.802 100.151 177.128 100.151C177.081 100.151 177.034 100.151 176.988 100.151V100.151H173.866C173.979 99.3237 174.037 98.4794 174.037 97.6215C174.037 87.378 165.733 79.0741 155.49 79.0741C145.246 79.0741 136.942 87.378 136.942 97.6215C136.942 98.588 137.016 99.5373 137.159 100.464C136.277 100.259 135.357 100.151 134.413 100.151C127.739 100.151 122.329 105.561 122.329 112.235C122.329 118.908 127.739 124.318 134.413 124.318C134.46 124.318 134.507 124.318 134.554 124.318L134.553 124.318H176.988V124.318Z" fill="url(#paint5_linear_38_9914)" shape-rendering="crispEdges"/>
<path d="M176.988 124.318L177.01 122.318C176.476 122.312 175.962 122.52 175.582 122.895C175.201 123.271 174.988 123.783 174.988 124.318H176.988ZM176.988 100.151H174.988C174.988 100.686 175.201 101.198 175.582 101.574C175.962 101.949 176.476 102.157 177.01 102.151L176.988 100.151ZM176.988 100.151H178.988C178.988 99.0461 178.092 98.1507 176.988 98.1507V100.151ZM173.866 100.151L171.884 99.8805C171.806 100.453 171.979 101.031 172.359 101.466C172.739 101.901 173.288 102.151 173.866 102.151V100.151ZM137.159 100.464L136.706 102.412C137.353 102.562 138.032 102.382 138.518 101.931C139.005 101.479 139.236 100.816 139.135 100.16L137.159 100.464ZM134.554 124.318L136.125 125.555C136.602 124.95 136.689 124.125 136.348 123.434C136.008 122.743 135.301 122.309 134.531 122.318L134.554 124.318ZM134.553 124.318L132.982 123.081C132.508 123.683 132.42 124.503 132.754 125.192C133.089 125.881 133.787 126.318 134.553 126.318V124.318ZM176.988 124.318V126.318C178.092 126.318 178.988 125.423 178.988 124.318H176.988ZM176.965 126.318C177.019 126.318 177.074 126.318 177.128 126.318V122.318C177.089 122.318 177.05 122.318 177.01 122.318L176.965 126.318ZM177.128 126.318C184.907 126.318 191.212 120.013 191.212 112.235H187.212C187.212 117.804 182.697 122.318 177.128 122.318V126.318ZM191.212 112.235C191.212 104.456 184.907 98.1507 177.128 98.1507V102.151C182.697 102.151 187.212 106.665 187.212 112.235H191.212ZM177.128 98.1507C177.074 98.1507 177.019 98.151 176.965 98.1516L177.01 102.151C177.05 102.151 177.089 102.151 177.128 102.151V98.1507ZM174.988 100.151V100.151H178.988V100.151H174.988ZM173.866 102.151H176.988V98.1507H173.866V102.151ZM175.848 100.421C175.973 99.5046 176.037 98.57 176.037 97.6215H172.037C172.037 98.3888 171.985 99.1428 171.884 99.8805L175.848 100.421ZM176.037 97.6215C176.037 86.2735 166.838 77.0741 155.49 77.0741V81.0741C164.628 81.0741 172.037 88.4826 172.037 97.6215H176.037ZM155.49 77.0741C144.142 77.0741 134.942 86.2735 134.942 97.6215H138.942C138.942 88.4826 146.351 81.0741 155.49 81.0741V77.0741ZM134.942 97.6215C134.942 98.6902 135.024 99.7411 135.182 100.768L139.135 100.16C139.008 99.3335 138.942 98.4859 138.942 97.6215H134.942ZM137.611 98.5159C136.582 98.2767 135.511 98.1507 134.413 98.1507V102.151C135.204 102.151 135.971 102.241 136.706 102.412L137.611 98.5159ZM134.413 98.1507C126.635 98.1507 120.329 104.456 120.329 112.235H124.329C124.329 106.665 128.844 102.151 134.413 102.151V98.1507ZM120.329 112.235C120.329 120.013 126.635 126.318 134.413 126.318V122.318C128.844 122.318 124.329 117.804 124.329 112.235H120.329ZM134.413 126.318C134.468 126.318 134.522 126.318 134.577 126.318L134.531 122.318C134.492 122.318 134.452 122.318 134.413 122.318V126.318ZM136.125 125.556L136.125 125.555L132.983 123.08L132.982 123.081L136.125 125.556ZM176.988 122.318H134.553V126.318H176.988V122.318ZM174.988 124.318V124.318H178.988V124.318H174.988Z" fill="url(#paint6_linear_38_9914)" mask="url(#path-7-inside-3_38_9914)"/>
</g>
<defs>
<filter id="filter0_bdd_38_9914" x="34.0117" y="0.877319" width="157.46" height="153.256" filterUnits="userSpaceOnUse" color-interpolation-filters="sRGB">
<feFlood flood-opacity="0" result="BackgroundImageFix"/>
<feGaussianBlur in="BackgroundImageFix" stdDeviation="7"/>
<feComposite in2="SourceAlpha" operator="in" result="effect1_backgroundBlur_38_9914"/>
<feColorMatrix in="SourceAlpha" type="matrix" values="0 0 0 0 0 0 0 0 0 0 0 0 0 0 0 0 0 0 127 0" result="hardAlpha"/>
<feOffset dx="-21" dy="15"/>
<feGaussianBlur stdDeviation="25"/>
<feComposite in2="hardAlpha" operator="out"/>
<feColorMatrix type="matrix" values="0 0 0 0 0.113438 0 0 0 0 0.148981 0 0 0 0 0.275 0 0 0 0.25 0"/>
<feBlend mode="normal" in2="effect1_backgroundBlur_38_9914" result="effect2_dropShadow_38_9914"/>
<feColorMatrix in="SourceAlpha" type="matrix" values="0 0 0 0 0 0 0 0 0 0 0 0 0 0 0 0 0 0 127 0" result="hardAlpha"/>
<feOffset/>
<feGaussianBlur stdDeviation="19"/>
<feComposite in2="hardAlpha" operator="out"/>
<feColorMatrix type="matrix" values="0 0 0 0 0.619608 0 0 0 0 0.423529 0 0 0 0 1 0 0 0 0.4 0"/>
<feBlend mode="normal" in2="effect2_dropShadow_38_9914" result="effect3_dropShadow_38_9914"/>
<feBlend mode="normal" in="SourceGraphic" in2="effect3_dropShadow_38_9914" result="shape"/>
</filter>
<filter id="filter1_f_38_9914" x="66.7207" y="92.2939" width="120.547" height="61.4415" filterUnits="userSpaceOnUse" color-interpolation-filters="sRGB">
<feFlood flood-opacity="0" result="BackgroundImageFix"/>
<feBlend mode="normal" in="SourceGraphic" in2="BackgroundImageFix" result="shape"/>
<feGaussianBlur stdDeviation="7" result="effect1_foregroundBlur_38_9914"/>
</filter>
<filter id="filter2_bd_38_9914" x="0" y="44.0741" width="192.547" height="162.606" filterUnits="userSpaceOnUse" color-interpolation-filters="sRGB">
<feFlood flood-opacity="0" result="BackgroundImageFix"/>
<feGaussianBlur in="BackgroundImageFix" stdDeviation="7"/>
<feComposite in2="SourceAlpha" operator="in" result="effect1_backgroundBlur_38_9914"/>
<feColorMatrix in="SourceAlpha" type="matrix" values="0 0 0 0 0 0 0 0 0 0 0 0 0 0 0 0 0 0 127 0" result="hardAlpha"/>
<feOffset dx="-21" dy="15"/>
<feGaussianBlur stdDeviation="25"/>
<feComposite in2="hardAlpha" operator="out"/>
<feColorMatrix type="matrix" values="0 0 0 0 0.113725 0 0 0 0 0.14902 0 0 0 0 0.27451 0 0 0 0.25 0"/>
<feBlend mode="normal" in2="effect1_backgroundBlur_38_9914" result="effect2_dropShadow_38_9914"/>
<feBlend mode="normal" in="SourceGraphic" in2="effect2_dropShadow_38_9914" result="shape"/>
</filter>
<filter id="filter3_bd_38_9914" x="51.3291" y="44.0741" width="166.883" height="145.244" filterUnits="userSpaceOnUse" color-interpolation-filters="sRGB">
<feFlood flood-opacity="0" result="BackgroundImageFix"/>
<feGaussianBlur in="BackgroundImageFix" stdDeviation="7"/>
<feComposite in2="SourceAlpha" operator="in" result="effect1_backgroundBlur_38_9914"/>
<feColorMatrix in="SourceAlpha" type="matrix" values="0 0 0 0 0 0 0 0 0 0 0 0 0 0 0 0 0 0 127 0" result="hardAlpha"/>
<feOffset dx="-21" dy="15"/>
<feGaussianBlur stdDeviation="25"/>
<feComposite in2="hardAlpha" operator="out"/>
<feColorMatrix type="matrix" values="0 0 0 0 0.113438 0 0 0 0 0.148981 0 0 0 0 0.275 0 0 0 0.25 0"/>
<feBlend mode="normal" in2="effect1_backgroundBlur_38_9914" result="effect2_dropShadow_38_9914"/>
<feBlend mode="normal" in="SourceGraphic" in2="effect2_dropShadow_38_9914" result="shape"/>
</filter>
<linearGradient id="paint0_linear_38_9914" x1="114.13" y1="44.3383" x2="137.198" y2="89.1855" gradientUnits="userSpaceOnUse">
<stop offset="0.0001" stop-color="#D4C0FF"/>
<stop offset="1" stop-color="#7E2FFF"/>
</linearGradient>
<linearGradient id="paint1_linear_38_9914" x1="116.74" y1="19.6274" x2="131.204" y2="78.4856" gradientUnits="userSpaceOnUse">
<stop stop-color="white"/>
<stop offset="1" stop-color="white" stop-opacity="0"/>
</linearGradient>
<linearGradient id="paint2_linear_38_9914" x1="138.272" y1="58.0759" x2="138.272" y2="103.961" gradientUnits="userSpaceOnUse">
<stop stop-color="#FFD600"/>
<stop offset="1" stop-color="#FF7A00"/>
</linearGradient>
<linearGradient id="paint3_linear_38_9914" x1="117.274" y1="59.0481" x2="117.274" y2="150.429" gradientUnits="userSpaceOnUse">
<stop stop-color="white"/>
<stop offset="1" stop-color="white" stop-opacity="0"/>
</linearGradient>
<linearGradient id="paint4_linear_38_9914" x1="117.274" y1="79.0741" x2="117.274" y2="141.68" gradientUnits="userSpaceOnUse">
<stop stop-color="white"/>
<stop offset="1" stop-color="white" stop-opacity="0"/>
</linearGradient>
<linearGradient id="paint5_linear_38_9914" x1="158.881" y1="80.4351" x2="158.881" y2="129.431" gradientUnits="userSpaceOnUse">
<stop stop-color="white"/>
<stop offset="1" stop-color="white" stop-opacity="0"/>
</linearGradient>
<linearGradient id="paint6_linear_38_9914" x1="155.771" y1="79.0741" x2="155.771" y2="124.318" gradientUnits="userSpaceOnUse">
<stop stop-color="white"/>
<stop offset="1" stop-color="white" stop-opacity="0"/>
</linearGradient>
</defs>
</svg>
