<svg width="219" height="209" viewBox="0 0 219 209" fill="none" xmlns="http://www.w3.org/2000/svg">
<g filter="url(#filter0_bdd_38_9844)">
<path d="M101.781 110.395L119.038 78.815C119.389 78.1732 120.062 77.774 120.793 77.774H136.327C137.831 77.774 138.797 79.3704 138.099 80.7021L128.334 99.3439C127.637 100.676 128.603 102.272 130.106 102.272H139.631C141.36 102.272 142.275 104.317 141.122 105.605L108.218 142.381C106.743 144.029 104.08 142.419 104.854 140.347L113.932 116.054C114.42 114.747 113.454 113.354 112.058 113.354H103.536C102.017 113.354 101.053 111.728 101.781 110.395Z" fill="url(#paint0_linear_38_9844)"/>
<path d="M102.659 110.875L119.915 79.2945C120.091 78.9736 120.427 78.774 120.793 78.774H136.327C137.079 78.774 137.562 79.5722 137.213 80.2381L127.448 98.8799C126.402 100.877 127.851 103.272 130.106 103.272H139.631C140.496 103.272 140.953 104.294 140.377 104.939L107.472 141.714C106.735 142.538 105.403 141.733 105.79 140.697L114.868 116.404C115.601 114.444 114.151 112.354 112.058 112.354H103.536C102.777 112.354 102.294 111.541 102.659 110.875Z" stroke="url(#paint1_linear_38_9844)" stroke-width="2"/>
</g>
<g filter="url(#filter1_bd_38_9844)">
<mask id="path-3-inside-1_38_9844" fill="white">
<path fill-rule="evenodd" clip-rule="evenodd" d="M146.632 97.6045C146.697 97.6052 146.762 97.6056 146.827 97.6056C156.061 97.6056 163.547 90.1194 163.547 80.8848C163.547 71.6502 156.061 64.1641 146.827 64.1641C146.762 64.1641 146.697 64.1645 146.632 64.1652V64.1641H142.313C142.469 63.0198 142.549 61.8515 142.549 60.6644C142.549 46.4903 131.059 35 116.885 35C102.711 35 91.2205 46.4903 91.2205 60.6644C91.2205 62.0018 91.3228 63.3154 91.52 64.5976C90.2994 64.314 89.0276 64.1641 87.7207 64.1641C78.4861 64.1641 71 71.6502 71 80.8848C71 90.1194 78.4861 97.6056 87.7207 97.6056C87.786 97.6056 87.8511 97.6052 87.9161 97.6045L87.9152 97.6056H146.632V97.6045Z"/>
</mask>
<path fill-rule="evenodd" clip-rule="evenodd" d="M146.632 97.6045C146.697 97.6052 146.762 97.6056 146.827 97.6056C156.061 97.6056 163.547 90.1194 163.547 80.8848C163.547 71.6502 156.061 64.1641 146.827 64.1641C146.762 64.1641 146.697 64.1645 146.632 64.1652V64.1641H142.313C142.469 63.0198 142.549 61.8515 142.549 60.6644C142.549 46.4903 131.059 35 116.885 35C102.711 35 91.2205 46.4903 91.2205 60.6644C91.2205 62.0018 91.3228 63.3154 91.52 64.5976C90.2994 64.314 89.0276 64.1641 87.7207 64.1641C78.4861 64.1641 71 71.6502 71 80.8848C71 90.1194 78.4861 97.6056 87.7207 97.6056C87.786 97.6056 87.8511 97.6052 87.9161 97.6045L87.9152 97.6056H146.632V97.6045Z" fill="url(#paint2_linear_38_9844)" shape-rendering="crispEdges"/>
<path d="M146.632 97.6045L146.655 95.6046C146.121 95.5985 145.606 95.8065 145.226 96.1822C144.846 96.5579 144.632 97.0701 144.632 97.6045H146.632ZM146.632 64.1652H144.632C144.632 64.6996 144.846 65.2117 145.226 65.5874C145.606 65.9632 146.121 66.1712 146.655 66.1651L146.632 64.1652ZM146.632 64.1641H148.632C148.632 63.0595 147.737 62.1641 146.632 62.1641V64.1641ZM142.313 64.1641L140.331 63.8939C140.253 64.4661 140.426 65.0442 140.806 65.4793C141.186 65.9144 141.735 66.1641 142.313 66.1641V64.1641ZM91.52 64.5976L91.0674 66.5457C91.7139 66.6959 92.3929 66.5156 92.8797 66.0643C93.3665 65.613 93.5976 64.9496 93.4967 64.2936L91.52 64.5976ZM87.9161 97.6045L89.4867 98.8427C89.9636 98.2377 90.0507 97.4126 89.7106 96.7214C89.3705 96.0302 88.6636 95.5958 87.8932 95.6046L87.9161 97.6045ZM87.9152 97.6056L86.3446 96.3673C85.8702 96.9691 85.7813 97.7889 86.1157 98.4784C86.4501 99.1678 87.149 99.6056 87.9152 99.6056V97.6056ZM146.632 97.6056V99.6056C147.737 99.6056 148.632 98.7101 148.632 97.6056H146.632ZM146.609 99.6043C146.682 99.6052 146.754 99.6056 146.827 99.6056V95.6056C146.769 95.6056 146.712 95.6052 146.655 95.6046L146.609 99.6043ZM146.827 99.6056C157.166 99.6056 165.547 91.224 165.547 80.8848H161.547C161.547 89.0149 154.957 95.6056 146.827 95.6056V99.6056ZM165.547 80.8848C165.547 70.5456 157.166 62.1641 146.827 62.1641V66.1641C154.957 66.1641 161.547 72.7548 161.547 80.8848H165.547ZM146.827 62.1641C146.754 62.1641 146.682 62.1645 146.609 62.1653L146.655 66.1651C146.712 66.1644 146.769 66.1641 146.827 66.1641V62.1641ZM144.632 64.1641V64.1652H148.632V64.1641H144.632ZM142.313 66.1641H146.632V62.1641H142.313V66.1641ZM144.294 64.4343C144.463 63.2007 144.549 61.9421 144.549 60.6644H140.549C140.549 61.7609 140.475 62.8389 140.331 63.8939L144.294 64.4343ZM144.549 60.6644C144.549 45.3858 132.163 33 116.885 33V37C129.954 37 140.549 47.5949 140.549 60.6644H144.549ZM116.885 33C101.606 33 89.2205 45.3858 89.2205 60.6644H93.2205C93.2205 47.5949 103.815 37 116.885 37V33ZM89.2205 60.6644C89.2205 62.104 89.3306 63.5191 89.5432 64.9016L93.4967 64.2936C93.315 63.1116 93.2205 61.8997 93.2205 60.6644H89.2205ZM91.9726 62.6495C90.6047 62.3317 89.181 62.1641 87.7207 62.1641V66.1641C88.8742 66.1641 89.9942 66.2964 91.0674 66.5457L91.9726 62.6495ZM87.7207 62.1641C77.3816 62.1641 69 70.5456 69 80.8848H73C73 72.7548 79.5907 66.1641 87.7207 66.1641V62.1641ZM69 80.8848C69 91.224 77.3816 99.6056 87.7207 99.6056V95.6056C79.5907 95.6056 73 89.0149 73 80.8848H69ZM87.7207 99.6056C87.7936 99.6056 87.8663 99.6052 87.939 99.6043L87.8932 95.6046C87.8358 95.6052 87.7783 95.6056 87.7207 95.6056V99.6056ZM89.4858 98.8438L89.4867 98.8427L86.3455 96.3662L86.3446 96.3673L89.4858 98.8438ZM146.632 95.6056H87.9152V99.6056H146.632V95.6056ZM144.632 97.6045V97.6056H148.632V97.6045H144.632Z" fill="url(#paint3_linear_38_9844)" mask="url(#path-3-inside-1_38_9844)"/>
</g>
<g filter="url(#filter2_bd_38_9844)">
<mask id="path-5-inside-2_38_9844" fill="white">
<path fill-rule="evenodd" clip-rule="evenodd" d="M176.988 80.2436C177.034 80.2441 177.081 80.2444 177.128 80.2444C183.802 80.2444 189.212 74.8342 189.212 68.1605C189.212 61.4867 183.802 56.0766 177.128 56.0766C177.081 56.0766 177.034 56.0768 176.988 56.0774V56.0766H173.866C173.979 55.2496 174.037 54.4053 174.037 53.5474C174.037 43.3039 165.733 35 155.49 35C145.246 35 136.942 43.3039 136.942 53.5474C136.942 54.5139 137.016 55.4632 137.159 56.3899C136.277 56.1849 135.357 56.0766 134.413 56.0766C127.739 56.0766 122.329 61.4867 122.329 68.1605C122.329 74.8342 127.739 80.2444 134.413 80.2444C134.46 80.2444 134.507 80.2441 134.554 80.2436L134.554 80.2444H176.988V80.2436Z"/>
</mask>
<path fill-rule="evenodd" clip-rule="evenodd" d="M176.988 80.2436C177.034 80.2441 177.081 80.2444 177.128 80.2444C183.802 80.2444 189.212 74.8342 189.212 68.1605C189.212 61.4867 183.802 56.0766 177.128 56.0766C177.081 56.0766 177.034 56.0768 176.988 56.0774V56.0766H173.866C173.979 55.2496 174.037 54.4053 174.037 53.5474C174.037 43.3039 165.733 35 155.49 35C145.246 35 136.942 43.3039 136.942 53.5474C136.942 54.5139 137.016 55.4632 137.159 56.3899C136.277 56.1849 135.357 56.0766 134.413 56.0766C127.739 56.0766 122.329 61.4867 122.329 68.1605C122.329 74.8342 127.739 80.2444 134.413 80.2444C134.46 80.2444 134.507 80.2441 134.554 80.2436L134.554 80.2444H176.988V80.2436Z" fill="url(#paint4_linear_38_9844)" shape-rendering="crispEdges"/>
<path d="M176.988 80.2436L177.011 78.2437C176.476 78.2376 175.962 78.4456 175.582 78.8213C175.202 79.197 174.988 79.7092 174.988 80.2436H176.988ZM176.988 56.0774H174.988C174.988 56.6118 175.202 57.1239 175.582 57.4996C175.962 57.8753 176.476 58.0833 177.011 58.0772L176.988 56.0774ZM176.988 56.0766H178.988C178.988 54.972 178.092 54.0766 176.988 54.0766V56.0766ZM173.866 56.0766L171.884 55.8064C171.806 56.3786 171.979 56.9567 172.359 57.3918C172.739 57.8269 173.288 58.0766 173.866 58.0766V56.0766ZM137.159 56.3899L136.706 58.338C137.353 58.4882 138.032 58.3078 138.518 57.8566C139.005 57.4053 139.236 56.7419 139.135 56.0858L137.159 56.3899ZM134.554 80.2436L136.125 81.481C136.602 80.8759 136.689 80.051 136.348 79.36C136.008 78.6691 135.301 78.2349 134.531 78.2437L134.554 80.2436ZM134.554 80.2444L132.982 79.0069C132.508 79.6088 132.42 80.4284 132.754 81.1176C133.089 81.8068 133.787 82.2444 134.554 82.2444V80.2444ZM176.988 80.2444V82.2444C178.092 82.2444 178.988 81.3489 178.988 80.2444H176.988ZM176.965 82.2434C177.019 82.2441 177.074 82.2444 177.128 82.2444V78.2444C177.089 78.2444 177.05 78.2441 177.011 78.2437L176.965 82.2434ZM177.128 82.2444C184.907 82.2444 191.212 75.9388 191.212 68.1605H187.212C187.212 73.7296 182.697 78.2444 177.128 78.2444V82.2444ZM191.212 68.1605C191.212 60.3821 184.907 54.0766 177.128 54.0766V58.0766C182.697 58.0766 187.212 62.5913 187.212 68.1605H191.212ZM177.128 54.0766C177.074 54.0766 177.019 54.0769 176.965 54.0775L177.011 58.0772C177.05 58.0768 177.089 58.0766 177.128 58.0766V54.0766ZM174.988 56.0766V56.0774H178.988V56.0766H174.988ZM173.866 58.0766H176.988V54.0766H173.866V58.0766ZM175.848 56.3468C175.973 55.4305 176.037 54.4959 176.037 53.5474H172.037C172.037 54.3147 171.985 55.0687 171.884 55.8064L175.848 56.3468ZM176.037 53.5474C176.037 42.1994 166.838 33 155.49 33V37C164.628 37 172.037 44.4085 172.037 53.5474H176.037ZM155.49 33C144.142 33 134.942 42.1994 134.942 53.5474H138.942C138.942 44.4085 146.351 37 155.49 37V33ZM134.942 53.5474C134.942 54.6161 135.024 55.667 135.182 56.6939L139.135 56.0858C139.008 55.2594 138.942 54.4118 138.942 53.5474H134.942ZM137.611 54.4418C136.582 54.2026 135.511 54.0766 134.413 54.0766V58.0766C135.204 58.0766 135.971 58.1673 136.706 58.338L137.611 54.4418ZM134.413 54.0766C126.635 54.0766 120.329 60.3821 120.329 68.1605H124.329C124.329 62.5913 128.844 58.0766 134.413 58.0766V54.0766ZM120.329 68.1605C120.329 75.9388 126.635 82.2444 134.413 82.2444V78.2444C128.844 78.2444 124.329 73.7296 124.329 68.1605H120.329ZM134.413 82.2444C134.468 82.2444 134.522 82.244 134.577 82.2434L134.531 78.2437C134.492 78.2441 134.452 78.2444 134.413 78.2444V82.2444ZM136.125 81.4818L136.125 81.481L132.983 79.0061L132.982 79.0069L136.125 81.4818ZM176.988 78.2444H134.554V82.2444H176.988V78.2444ZM174.988 80.2436V80.2444H178.988V80.2436H174.988Z" fill="url(#paint5_linear_38_9844)" mask="url(#path-5-inside-2_38_9844)"/>
</g>
<defs>
<filter id="filter0_bdd_38_9844" x="30.5332" y="16.774" width="172.103" height="191.287" filterUnits="userSpaceOnUse" color-interpolation-filters="sRGB">
<feFlood flood-opacity="0" result="BackgroundImageFix"/>
<feGaussianBlur in="BackgroundImageFix" stdDeviation="7"/>
<feComposite in2="SourceAlpha" operator="in" result="effect1_backgroundBlur_38_9844"/>
<feColorMatrix in="SourceAlpha" type="matrix" values="0 0 0 0 0 0 0 0 0 0 0 0 0 0 0 0 0 0 127 0" result="hardAlpha"/>
<feOffset dx="-21" dy="15"/>
<feGaussianBlur stdDeviation="25"/>
<feComposite in2="hardAlpha" operator="out"/>
<feColorMatrix type="matrix" values="0 0 0 0 0.113438 0 0 0 0 0.148981 0 0 0 0 0.275 0 0 0 0.25 0"/>
<feBlend mode="normal" in2="effect1_backgroundBlur_38_9844" result="effect2_dropShadow_38_9844"/>
<feColorMatrix in="SourceAlpha" type="matrix" values="0 0 0 0 0 0 0 0 0 0 0 0 0 0 0 0 0 0 127 0" result="hardAlpha"/>
<feOffset/>
<feGaussianBlur stdDeviation="30.5"/>
<feComposite in2="hardAlpha" operator="out"/>
<feColorMatrix type="matrix" values="0 0 0 0 1 0 0 0 0 0.721569 0 0 0 0 0.00392157 0 0 0 0.49 0"/>
<feBlend mode="normal" in2="effect2_dropShadow_38_9844" result="effect3_dropShadow_38_9844"/>
<feBlend mode="normal" in="SourceGraphic" in2="effect3_dropShadow_38_9844" result="shape"/>
</filter>
<filter id="filter1_bd_38_9844" x="0" y="0" width="192.548" height="162.606" filterUnits="userSpaceOnUse" color-interpolation-filters="sRGB">
<feFlood flood-opacity="0" result="BackgroundImageFix"/>
<feGaussianBlur in="BackgroundImageFix" stdDeviation="7"/>
<feComposite in2="SourceAlpha" operator="in" result="effect1_backgroundBlur_38_9844"/>
<feColorMatrix in="SourceAlpha" type="matrix" values="0 0 0 0 0 0 0 0 0 0 0 0 0 0 0 0 0 0 127 0" result="hardAlpha"/>
<feOffset dx="-21" dy="15"/>
<feGaussianBlur stdDeviation="25"/>
<feComposite in2="hardAlpha" operator="out"/>
<feColorMatrix type="matrix" values="0 0 0 0 0.113725 0 0 0 0 0.14902 0 0 0 0 0.27451 0 0 0 0.25 0"/>
<feBlend mode="normal" in2="effect1_backgroundBlur_38_9844" result="effect2_dropShadow_38_9844"/>
<feBlend mode="normal" in="SourceGraphic" in2="effect2_dropShadow_38_9844" result="shape"/>
</filter>
<filter id="filter2_bd_38_9844" x="51.3291" y="0" width="166.883" height="145.244" filterUnits="userSpaceOnUse" color-interpolation-filters="sRGB">
<feFlood flood-opacity="0" result="BackgroundImageFix"/>
<feGaussianBlur in="BackgroundImageFix" stdDeviation="7"/>
<feComposite in2="SourceAlpha" operator="in" result="effect1_backgroundBlur_38_9844"/>
<feColorMatrix in="SourceAlpha" type="matrix" values="0 0 0 0 0 0 0 0 0 0 0 0 0 0 0 0 0 0 127 0" result="hardAlpha"/>
<feOffset dx="-21" dy="15"/>
<feGaussianBlur stdDeviation="25"/>
<feComposite in2="hardAlpha" operator="out"/>
<feColorMatrix type="matrix" values="0 0 0 0 0.113438 0 0 0 0 0.148981 0 0 0 0 0.275 0 0 0 0.25 0"/>
<feBlend mode="normal" in2="effect1_backgroundBlur_38_9844" result="effect2_dropShadow_38_9844"/>
<feBlend mode="normal" in="SourceGraphic" in2="effect2_dropShadow_38_9844" result="shape"/>
</filter>
<linearGradient id="paint0_linear_38_9844" x1="126.412" y1="82.0514" x2="116.69" y2="124.242" gradientUnits="userSpaceOnUse">
<stop stop-color="#FF4D00"/>
<stop offset="1" stop-color="#FFB800"/>
</linearGradient>
<linearGradient id="paint1_linear_38_9844" x1="113.385" y1="123.659" x2="131.078" y2="85.7456" gradientUnits="userSpaceOnUse">
<stop stop-color="white"/>
<stop offset="1" stop-color="white" stop-opacity="0"/>
</linearGradient>
<linearGradient id="paint2_linear_38_9844" x1="117.274" y1="14.974" x2="117.274" y2="106.355" gradientUnits="userSpaceOnUse">
<stop stop-color="white"/>
<stop offset="1" stop-color="white" stop-opacity="0"/>
</linearGradient>
<linearGradient id="paint3_linear_38_9844" x1="117.274" y1="35" x2="117.274" y2="97.6056" gradientUnits="userSpaceOnUse">
<stop stop-color="white"/>
<stop offset="1" stop-color="white" stop-opacity="0"/>
</linearGradient>
<linearGradient id="paint4_linear_38_9844" x1="158.881" y1="36.361" x2="158.881" y2="85.3567" gradientUnits="userSpaceOnUse">
<stop stop-color="white"/>
<stop offset="1" stop-color="white" stop-opacity="0"/>
</linearGradient>
<linearGradient id="paint5_linear_38_9844" x1="155.771" y1="35" x2="155.771" y2="80.2444" gradientUnits="userSpaceOnUse">
<stop stop-color="white"/>
<stop offset="1" stop-color="white" stop-opacity="0"/>
</linearGradient>
</defs>
</svg>
