<svg width="252" height="214" viewBox="0 0 252 214" fill="none" xmlns="http://www.w3.org/2000/svg">
<g filter="url(#filter0_bd_38_9887)">
<mask id="path-1-inside-1_38_9887" fill="white">
<path fill-rule="evenodd" clip-rule="evenodd" d="M125.659 80.2436C125.705 80.2441 125.752 80.2444 125.799 80.2444C132.473 80.2444 137.883 74.8342 137.883 68.1605C137.883 61.4867 132.473 56.0766 125.799 56.0766C125.752 56.0766 125.705 56.0768 125.659 56.0774V56.0766H122.537C122.65 55.2496 122.708 54.4053 122.708 53.5474C122.708 43.3039 114.404 35 104.16 35C93.917 35 85.6131 43.3039 85.6131 53.5474C85.6131 54.5139 85.687 55.4632 85.8295 56.3899C84.9475 56.1849 84.0283 56.0766 83.0839 56.0766C76.4101 56.0766 71 61.4867 71 68.1605C71 74.8342 76.4101 80.2444 83.0839 80.2444C83.131 80.2444 83.178 80.2441 83.225 80.2436L83.2244 80.2444H125.659V80.2436Z"/>
</mask>
<path fill-rule="evenodd" clip-rule="evenodd" d="M125.659 80.2436C125.705 80.2441 125.752 80.2444 125.799 80.2444C132.473 80.2444 137.883 74.8342 137.883 68.1605C137.883 61.4867 132.473 56.0766 125.799 56.0766C125.752 56.0766 125.705 56.0768 125.659 56.0774V56.0766H122.537C122.65 55.2496 122.708 54.4053 122.708 53.5474C122.708 43.3039 114.404 35 104.16 35C93.917 35 85.6131 43.3039 85.6131 53.5474C85.6131 54.5139 85.687 55.4632 85.8295 56.3899C84.9475 56.1849 84.0283 56.0766 83.0839 56.0766C76.4101 56.0766 71 61.4867 71 68.1605C71 74.8342 76.4101 80.2444 83.0839 80.2444C83.131 80.2444 83.178 80.2441 83.225 80.2436L83.2244 80.2444H125.659V80.2436Z" fill="url(#paint0_linear_38_9887)" shape-rendering="crispEdges"/>
<path d="M125.659 80.2436L125.681 78.2437C125.147 78.2376 124.632 78.4456 124.252 78.8213C123.872 79.197 123.659 79.7092 123.659 80.2436H125.659ZM125.659 56.0774H123.659C123.659 56.6117 123.872 57.1239 124.252 57.4996C124.632 57.8753 125.147 58.0833 125.681 58.0772L125.659 56.0774ZM125.659 56.0766H127.659C127.659 54.972 126.763 54.0766 125.659 54.0766V56.0766ZM122.537 56.0766L120.555 55.8064C120.477 56.3786 120.65 56.9567 121.03 57.3918C121.41 57.8269 121.959 58.0766 122.537 58.0766V56.0766ZM85.8295 56.3899L85.3769 58.338C86.0235 58.4882 86.7024 58.3078 87.1892 57.8566C87.676 57.4053 87.9072 56.7419 87.8063 56.0858L85.8295 56.3899ZM83.225 80.2436L84.797 81.48C85.273 80.8748 85.3594 80.0501 85.019 79.3595C84.6786 78.6688 83.972 78.2349 83.2021 78.2437L83.225 80.2436ZM83.2244 80.2444L81.6524 79.0079C81.1789 79.6098 81.0908 80.4293 81.4254 81.1182C81.76 81.807 82.4585 82.2444 83.2244 82.2444V80.2444ZM125.659 80.2444V82.2444C126.763 82.2444 127.659 81.3489 127.659 80.2444H125.659ZM125.636 82.2434C125.69 82.244 125.745 82.2444 125.799 82.2444V78.2444C125.76 78.2444 125.721 78.2441 125.681 78.2437L125.636 82.2434ZM125.799 82.2444C133.577 82.2444 139.883 75.9388 139.883 68.1605H135.883C135.883 73.7296 131.368 78.2444 125.799 78.2444V82.2444ZM139.883 68.1605C139.883 60.3821 133.577 54.0766 125.799 54.0766V58.0766C131.368 58.0766 135.883 62.5913 135.883 68.1605H139.883ZM125.799 54.0766C125.745 54.0766 125.69 54.0769 125.636 54.0775L125.681 58.0772C125.72 58.0768 125.76 58.0766 125.799 58.0766V54.0766ZM123.659 56.0766V56.0774H127.659V56.0766H123.659ZM122.537 58.0766H125.659V54.0766H122.537V58.0766ZM124.519 56.3468C124.643 55.4305 124.708 54.4959 124.708 53.5474H120.708C120.708 54.3147 120.656 55.0687 120.555 55.8064L124.519 56.3468ZM124.708 53.5474C124.708 42.1994 115.508 33 104.16 33V37C113.299 37 120.708 44.4085 120.708 53.5474H124.708ZM104.16 33C92.8125 33 83.6131 42.1994 83.6131 53.5474H87.6131C87.6131 44.4085 95.0216 37 104.16 37V33ZM83.6131 53.5474C83.6131 54.6161 83.6948 55.667 83.8528 56.6939L87.8063 56.0858C87.6792 55.2594 87.6131 54.4118 87.6131 53.5474H83.6131ZM86.2822 54.4417C85.2527 54.2026 84.1818 54.0766 83.0839 54.0766V58.0766C83.8749 58.0766 84.6422 58.1673 85.3769 58.338L86.2822 54.4417ZM83.0839 54.0766C75.3056 54.0766 69 60.3821 69 68.1605H73C73 62.5913 77.5147 58.0766 83.0839 58.0766V54.0766ZM69 68.1605C69 75.9388 75.3056 82.2444 83.0839 82.2444V78.2444C77.5147 78.2444 73 73.7296 73 68.1605H69ZM83.0839 82.2444C83.1387 82.2444 83.1933 82.244 83.2479 82.2434L83.2021 78.2437C83.1627 78.2441 83.1233 78.2444 83.0839 78.2444V82.2444ZM84.7964 81.4808L84.797 81.48L81.653 79.0071L81.6524 79.0079L84.7964 81.4808ZM125.659 78.2444H83.2244V82.2444H125.659V78.2444ZM123.659 80.2436V80.2444H127.659V80.2436H123.659Z" fill="url(#paint1_linear_38_9887)" mask="url(#path-1-inside-1_38_9887)"/>
</g>
<g filter="url(#filter1_bd_38_9887)">
<mask id="path-3-inside-2_38_9887" fill="white">
<path fill-rule="evenodd" clip-rule="evenodd" d="M162.186 111.214C162.251 111.215 162.315 111.215 162.38 111.215C171.615 111.215 179.101 103.729 179.101 94.4947C179.101 85.2601 171.615 77.7739 162.38 77.7739C162.315 77.7739 162.251 77.7743 162.186 77.775V77.7739H157.866C158.022 76.6296 158.103 75.4614 158.103 74.2743C158.103 60.1002 146.613 48.6099 132.439 48.6099C118.265 48.6099 106.774 60.1002 106.774 74.2743C106.774 75.6117 106.876 76.9252 107.074 78.2074C105.853 77.9238 104.581 77.7739 103.274 77.7739C94.0398 77.7739 86.5537 85.2601 86.5537 94.4947C86.5537 103.729 94.0398 111.215 103.274 111.215C103.34 111.215 103.405 111.215 103.47 111.214L103.469 111.215H162.186V111.214Z"/>
</mask>
<path fill-rule="evenodd" clip-rule="evenodd" d="M162.186 111.214C162.251 111.215 162.315 111.215 162.38 111.215C171.615 111.215 179.101 103.729 179.101 94.4947C179.101 85.2601 171.615 77.7739 162.38 77.7739C162.315 77.7739 162.251 77.7743 162.186 77.775V77.7739H157.866C158.022 76.6296 158.103 75.4614 158.103 74.2743C158.103 60.1002 146.613 48.6099 132.439 48.6099C118.265 48.6099 106.774 60.1002 106.774 74.2743C106.774 75.6117 106.876 76.9252 107.074 78.2074C105.853 77.9238 104.581 77.7739 103.274 77.7739C94.0398 77.7739 86.5537 85.2601 86.5537 94.4947C86.5537 103.729 94.0398 111.215 103.274 111.215C103.34 111.215 103.405 111.215 103.47 111.214L103.469 111.215H162.186V111.214Z" fill="url(#paint2_linear_38_9887)" shape-rendering="crispEdges"/>
<path d="M162.186 111.214L162.209 109.214C161.674 109.208 161.16 109.416 160.78 109.792C160.4 110.168 160.186 110.68 160.186 111.214H162.186ZM162.186 77.775H160.186C160.186 78.3094 160.4 78.8216 160.78 79.1973C161.16 79.573 161.674 79.781 162.209 79.7749L162.186 77.775ZM162.186 77.7739H164.186C164.186 76.6694 163.29 75.7739 162.186 75.7739V77.7739ZM157.866 77.7739L155.885 77.5037C155.807 78.076 155.98 78.654 156.36 79.0891C156.739 79.5242 157.289 79.7739 157.866 79.7739V77.7739ZM107.074 78.2074L106.621 80.1555C107.268 80.3058 107.947 80.1254 108.433 79.6741C108.92 79.2229 109.151 78.5595 109.05 77.9034L107.074 78.2074ZM103.47 111.214L105.04 112.453C105.517 111.848 105.604 111.022 105.264 110.331C104.924 109.64 104.217 109.206 103.447 109.214L103.47 111.214ZM103.469 111.215L101.898 109.977C101.424 110.579 101.335 111.399 101.669 112.088C102.004 112.778 102.703 113.215 103.469 113.215V111.215ZM162.186 111.215V113.215C163.29 113.215 164.186 112.32 164.186 111.215H162.186ZM162.163 113.214C162.235 113.215 162.308 113.215 162.38 113.215V109.215C162.323 109.215 162.266 109.215 162.209 109.214L162.163 113.214ZM162.38 113.215C172.72 113.215 181.101 104.834 181.101 94.4947H177.101C177.101 102.625 170.51 109.215 162.38 109.215V113.215ZM181.101 94.4947C181.101 84.1555 172.72 75.7739 162.38 75.7739V79.7739C170.51 79.7739 177.101 86.3646 177.101 94.4947H181.101ZM162.38 75.7739C162.308 75.7739 162.235 75.7743 162.163 75.7752L162.209 79.7749C162.266 79.7742 162.323 79.7739 162.38 79.7739V75.7739ZM160.186 77.7739V77.775H164.186V77.7739H160.186ZM157.866 79.7739H162.186V75.7739H157.866V79.7739ZM159.848 78.0441C160.016 76.8105 160.103 75.552 160.103 74.2743H156.103C156.103 75.3707 156.029 76.4487 155.885 77.5037L159.848 78.0441ZM160.103 74.2743C160.103 58.9956 147.717 46.6099 132.439 46.6099V50.6099C145.508 50.6099 156.103 61.2048 156.103 74.2743H160.103ZM132.439 46.6099C117.16 46.6099 104.774 58.9956 104.774 74.2743H108.774C108.774 61.2048 119.369 50.6099 132.439 50.6099V46.6099ZM104.774 74.2743C104.774 75.7138 104.884 77.129 105.097 78.5115L109.05 77.9034C108.869 76.7214 108.774 75.5095 108.774 74.2743H104.774ZM107.526 76.2593C106.158 75.9415 104.735 75.7739 103.274 75.7739V79.7739C104.428 79.7739 105.548 79.9062 106.621 80.1555L107.526 76.2593ZM103.274 75.7739C92.9353 75.7739 84.5537 84.1555 84.5537 94.4947H88.5537C88.5537 86.3646 95.1444 79.7739 103.274 79.7739V75.7739ZM84.5537 94.4947C84.5537 104.834 92.9353 113.215 103.274 113.215V109.215C95.1444 109.215 88.5537 102.625 88.5537 94.4947H84.5537ZM103.274 113.215C103.347 113.215 103.42 113.215 103.493 113.214L103.447 109.214C103.389 109.215 103.332 109.215 103.274 109.215V113.215ZM105.039 112.454L105.04 112.453L101.899 109.976L101.898 109.977L105.039 112.454ZM162.186 109.215H103.469V113.215H162.186V109.215ZM160.186 111.214V111.215H164.186V111.214H160.186Z" fill="url(#paint3_linear_38_9887)" mask="url(#path-3-inside-2_38_9887)"/>
</g>
<g filter="url(#filter2_bdd_38_9887)">
<path d="M150.777 115.45L168.034 83.8701C168.385 83.2283 169.058 82.8291 169.789 82.8291H185.323C186.827 82.8291 187.793 84.4254 187.095 85.7571L177.33 104.399C176.633 105.731 177.599 107.327 179.102 107.327H188.628C190.356 107.327 191.271 109.372 190.118 110.661L157.214 147.436C155.739 149.084 153.076 147.474 153.85 145.402L162.928 121.109C163.416 119.802 162.45 118.409 161.054 118.409H152.532C151.013 118.409 150.049 116.783 150.777 115.45Z" fill="url(#paint4_linear_38_9887)"/>
<path d="M151.655 115.93L168.912 84.3496C169.087 84.0287 169.423 83.8291 169.789 83.8291H185.323C186.075 83.8291 186.558 84.6273 186.209 85.2931L176.445 103.935C175.398 105.932 176.847 108.327 179.102 108.327H188.628C189.492 108.327 189.949 109.35 189.373 109.994L156.468 146.769C155.731 147.593 154.399 146.788 154.787 145.752L163.864 121.459C164.597 119.499 163.147 117.409 161.054 117.409H152.532C151.773 117.409 151.291 116.596 151.655 115.93Z" stroke="url(#paint5_linear_38_9887)" stroke-width="2"/>
</g>
<g filter="url(#filter3_bd_38_9887)">
<mask id="path-7-inside-3_38_9887" fill="white">
<path fill-rule="evenodd" clip-rule="evenodd" d="M192.541 93.8534C192.588 93.8539 192.635 93.8542 192.682 93.8542C199.356 93.8542 204.766 88.4441 204.766 81.7703C204.766 75.0965 199.356 69.6864 192.682 69.6864C192.635 69.6864 192.588 69.6867 192.541 69.6872V69.6864H189.42C189.532 68.8594 189.591 68.0151 189.591 67.1572C189.591 56.9138 181.287 48.6099 171.043 48.6099C160.8 48.6099 152.496 56.9138 152.496 67.1572C152.496 68.1238 152.57 69.073 152.712 69.9997C151.83 69.7947 150.911 69.6864 149.967 69.6864C143.293 69.6864 137.883 75.0965 137.883 81.7703C137.883 88.4441 143.293 93.8542 149.967 93.8542C150.014 93.8542 150.061 93.8539 150.108 93.8534L150.107 93.8542H192.541V93.8534Z"/>
</mask>
<path fill-rule="evenodd" clip-rule="evenodd" d="M192.541 93.8534C192.588 93.8539 192.635 93.8542 192.682 93.8542C199.356 93.8542 204.766 88.4441 204.766 81.7703C204.766 75.0965 199.356 69.6864 192.682 69.6864C192.635 69.6864 192.588 69.6867 192.541 69.6872V69.6864H189.42C189.532 68.8594 189.591 68.0151 189.591 67.1572C189.591 56.9138 181.287 48.6099 171.043 48.6099C160.8 48.6099 152.496 56.9138 152.496 67.1572C152.496 68.1238 152.57 69.073 152.712 69.9997C151.83 69.7947 150.911 69.6864 149.967 69.6864C143.293 69.6864 137.883 75.0965 137.883 81.7703C137.883 88.4441 143.293 93.8542 149.967 93.8542C150.014 93.8542 150.061 93.8539 150.108 93.8534L150.107 93.8542H192.541V93.8534Z" fill="url(#paint6_linear_38_9887)" shape-rendering="crispEdges"/>
<path d="M192.541 93.8534L192.564 91.8535C192.03 91.8474 191.515 92.0554 191.135 92.4311C190.755 92.8068 190.541 93.319 190.541 93.8534H192.541ZM192.541 69.6872H190.541C190.541 70.2216 190.755 70.7337 191.135 71.1094C191.515 71.4851 192.03 71.6932 192.564 71.6871L192.541 69.6872ZM192.541 69.6864H194.541C194.541 68.5818 193.646 67.6864 192.541 67.6864V69.6864ZM189.42 69.6864L187.438 69.4162C187.36 69.9885 187.533 70.5665 187.913 71.0016C188.293 71.4367 188.842 71.6864 189.42 71.6864V69.6864ZM152.712 69.9997L152.26 71.9478C152.906 72.098 153.585 71.9177 154.072 71.4664C154.559 71.0151 154.79 70.3517 154.689 69.6957L152.712 69.9997ZM150.108 93.8534L151.679 95.091C152.156 94.4859 152.242 93.661 151.902 92.97C151.562 92.2789 150.855 91.8447 150.085 91.8535L150.108 93.8534ZM150.107 93.8542L148.536 92.6166C148.062 93.2184 147.973 94.0381 148.308 94.7274C148.642 95.4166 149.341 95.8542 150.107 95.8542V93.8542ZM192.541 93.8542V95.8542C193.646 95.8542 194.541 94.9588 194.541 93.8542H192.541ZM192.519 95.8533C192.573 95.8539 192.627 95.8542 192.682 95.8542V91.8542C192.642 91.8542 192.603 91.854 192.564 91.8535L192.519 95.8533ZM192.682 95.8542C200.46 95.8542 206.766 89.5486 206.766 81.7703H202.766C202.766 87.3395 198.251 91.8542 192.682 91.8542V95.8542ZM206.766 81.7703C206.766 73.992 200.46 67.6864 192.682 67.6864V71.6864C198.251 71.6864 202.766 76.2011 202.766 81.7703H206.766ZM192.682 67.6864C192.627 67.6864 192.573 67.6867 192.519 67.6873L192.564 71.6871C192.603 71.6866 192.643 71.6864 192.682 71.6864V67.6864ZM190.541 69.6864V69.6872H194.541V69.6864H190.541ZM189.42 71.6864H192.541V67.6864H189.42V71.6864ZM191.401 69.9566C191.526 69.0403 191.591 68.1058 191.591 67.1572H187.591C187.591 67.9245 187.539 68.6785 187.438 69.4162L191.401 69.9566ZM191.591 67.1572C191.591 55.8092 182.391 46.6099 171.043 46.6099V50.6099C180.182 50.6099 187.591 58.0184 187.591 67.1572H191.591ZM171.043 46.6099C159.695 46.6099 150.496 55.8092 150.496 67.1572H154.496C154.496 58.0184 161.904 50.6099 171.043 50.6099V46.6099ZM150.496 67.1572C150.496 68.2259 150.578 69.2768 150.736 70.3037L154.689 69.6957C154.562 68.8693 154.496 68.0216 154.496 67.1572H150.496ZM153.165 68.0516C152.136 67.8124 151.065 67.6864 149.967 67.6864V71.6864C150.758 71.6864 151.525 71.7771 152.26 71.9478L153.165 68.0516ZM149.967 67.6864C142.188 67.6864 135.883 73.992 135.883 81.7703H139.883C139.883 76.2011 144.398 71.6864 149.967 71.6864V67.6864ZM135.883 81.7703C135.883 89.5486 142.188 95.8542 149.967 95.8542V91.8542C144.398 91.8542 139.883 87.3395 139.883 81.7703H135.883ZM149.967 95.8542C150.022 95.8542 150.076 95.8539 150.131 95.8533L150.085 91.8535C150.046 91.854 150.006 91.8542 149.967 91.8542V95.8542ZM151.678 95.0918L151.679 95.091L148.537 92.6158L148.536 92.6166L151.678 95.0918ZM192.541 91.8542H150.107V95.8542H192.541V91.8542ZM190.541 93.8534V93.8542H194.541V93.8534H190.541Z" fill="url(#paint7_linear_38_9887)" mask="url(#path-7-inside-3_38_9887)"/>
</g>
<g filter="url(#filter4_bdd_38_9887)">
<path d="M92.2364 117.67L92.6927 124.06C92.8989 126.948 90.1442 129.146 87.3735 128.303C84.6028 127.461 83.5385 124.101 85.3183 121.817L89.2556 116.763C90.1953 115.557 92.1275 116.144 92.2364 117.67Z" fill="url(#paint8_linear_38_9887)" stroke="url(#paint9_linear_38_9887)" stroke-width="2"/>
<path d="M114.599 117.67L115.055 124.06C115.261 126.948 112.507 129.146 109.736 128.303C106.965 127.461 105.901 124.101 107.681 121.817L111.618 116.763C112.558 115.557 114.49 116.144 114.599 117.67Z" fill="url(#paint10_linear_38_9887)" stroke="url(#paint11_linear_38_9887)" stroke-width="2"/>
<path d="M136.96 117.67L137.416 124.06C137.623 126.948 134.868 129.146 132.097 128.303C129.326 127.461 128.262 124.101 130.042 121.817L133.979 116.763C134.919 115.557 136.851 116.144 136.96 117.67Z" fill="url(#paint12_linear_38_9887)" stroke="url(#paint13_linear_38_9887)" stroke-width="2"/>
</g>
<g filter="url(#filter5_bdd_38_9887)">
<path d="M100.791 135.37L101.247 141.761C101.454 144.649 98.6989 146.847 95.9282 146.004C93.1575 145.161 92.0931 141.802 93.873 139.517L97.8103 134.464C98.75 133.258 100.682 133.845 100.791 135.37Z" fill="url(#paint14_linear_38_9887)" stroke="url(#paint15_linear_38_9887)" stroke-width="2"/>
<path d="M123.345 135.37L123.801 141.761C124.007 144.649 121.253 146.847 118.482 146.004C115.711 145.161 114.647 141.802 116.427 139.517L120.364 134.464C121.304 133.258 123.236 133.845 123.345 135.37Z" fill="url(#paint16_linear_38_9887)" stroke="url(#paint17_linear_38_9887)" stroke-width="2"/>
</g>
<defs>
<filter id="filter0_bd_38_9887" x="0" y="0" width="166.883" height="145.244" filterUnits="userSpaceOnUse" color-interpolation-filters="sRGB">
<feFlood flood-opacity="0" result="BackgroundImageFix"/>
<feGaussianBlur in="BackgroundImageFix" stdDeviation="7"/>
<feComposite in2="SourceAlpha" operator="in" result="effect1_backgroundBlur_38_9887"/>
<feColorMatrix in="SourceAlpha" type="matrix" values="0 0 0 0 0 0 0 0 0 0 0 0 0 0 0 0 0 0 127 0" result="hardAlpha"/>
<feOffset dx="-21" dy="15"/>
<feGaussianBlur stdDeviation="25"/>
<feComposite in2="hardAlpha" operator="out"/>
<feColorMatrix type="matrix" values="0 0 0 0 0.113438 0 0 0 0 0.148981 0 0 0 0 0.275 0 0 0 0.25 0"/>
<feBlend mode="normal" in2="effect1_backgroundBlur_38_9887" result="effect2_dropShadow_38_9887"/>
<feBlend mode="normal" in="SourceGraphic" in2="effect2_dropShadow_38_9887" result="shape"/>
</filter>
<filter id="filter1_bd_38_9887" x="15.5537" y="13.6099" width="192.548" height="162.606" filterUnits="userSpaceOnUse" color-interpolation-filters="sRGB">
<feFlood flood-opacity="0" result="BackgroundImageFix"/>
<feGaussianBlur in="BackgroundImageFix" stdDeviation="7"/>
<feComposite in2="SourceAlpha" operator="in" result="effect1_backgroundBlur_38_9887"/>
<feColorMatrix in="SourceAlpha" type="matrix" values="0 0 0 0 0 0 0 0 0 0 0 0 0 0 0 0 0 0 127 0" result="hardAlpha"/>
<feOffset dx="-21" dy="15"/>
<feGaussianBlur stdDeviation="25"/>
<feComposite in2="hardAlpha" operator="out"/>
<feColorMatrix type="matrix" values="0 0 0 0 0.113725 0 0 0 0 0.14902 0 0 0 0 0.27451 0 0 0 0.25 0"/>
<feBlend mode="normal" in2="effect1_backgroundBlur_38_9887" result="effect2_dropShadow_38_9887"/>
<feBlend mode="normal" in="SourceGraphic" in2="effect2_dropShadow_38_9887" result="shape"/>
</filter>
<filter id="filter2_bdd_38_9887" x="79.5293" y="21.8291" width="172.103" height="191.287" filterUnits="userSpaceOnUse" color-interpolation-filters="sRGB">
<feFlood flood-opacity="0" result="BackgroundImageFix"/>
<feGaussianBlur in="BackgroundImageFix" stdDeviation="7"/>
<feComposite in2="SourceAlpha" operator="in" result="effect1_backgroundBlur_38_9887"/>
<feColorMatrix in="SourceAlpha" type="matrix" values="0 0 0 0 0 0 0 0 0 0 0 0 0 0 0 0 0 0 127 0" result="hardAlpha"/>
<feOffset dx="-21" dy="15"/>
<feGaussianBlur stdDeviation="25"/>
<feComposite in2="hardAlpha" operator="out"/>
<feColorMatrix type="matrix" values="0 0 0 0 0.113438 0 0 0 0 0.148981 0 0 0 0 0.275 0 0 0 0.25 0"/>
<feBlend mode="normal" in2="effect1_backgroundBlur_38_9887" result="effect2_dropShadow_38_9887"/>
<feColorMatrix in="SourceAlpha" type="matrix" values="0 0 0 0 0 0 0 0 0 0 0 0 0 0 0 0 0 0 127 0" result="hardAlpha"/>
<feOffset/>
<feGaussianBlur stdDeviation="30.5"/>
<feComposite in2="hardAlpha" operator="out"/>
<feColorMatrix type="matrix" values="0 0 0 0 1 0 0 0 0 0.721569 0 0 0 0 0.00392157 0 0 0 0.49 0"/>
<feBlend mode="normal" in2="effect2_dropShadow_38_9887" result="effect3_dropShadow_38_9887"/>
<feBlend mode="normal" in="SourceGraphic" in2="effect3_dropShadow_38_9887" result="shape"/>
</filter>
<filter id="filter3_bd_38_9887" x="66.8828" y="13.6099" width="166.883" height="145.244" filterUnits="userSpaceOnUse" color-interpolation-filters="sRGB">
<feFlood flood-opacity="0" result="BackgroundImageFix"/>
<feGaussianBlur in="BackgroundImageFix" stdDeviation="7"/>
<feComposite in2="SourceAlpha" operator="in" result="effect1_backgroundBlur_38_9887"/>
<feColorMatrix in="SourceAlpha" type="matrix" values="0 0 0 0 0 0 0 0 0 0 0 0 0 0 0 0 0 0 127 0" result="hardAlpha"/>
<feOffset dx="-21" dy="15"/>
<feGaussianBlur stdDeviation="25"/>
<feComposite in2="hardAlpha" operator="out"/>
<feColorMatrix type="matrix" values="0 0 0 0 0.113438 0 0 0 0 0.148981 0 0 0 0 0.275 0 0 0 0.25 0"/>
<feBlend mode="normal" in2="effect1_backgroundBlur_38_9887" result="effect2_dropShadow_38_9887"/>
<feBlend mode="normal" in="SourceGraphic" in2="effect2_dropShadow_38_9887" result="shape"/>
</filter>
<filter id="filter4_bdd_38_9887" x="12.4434" y="67.1161" width="166.984" height="127.37" filterUnits="userSpaceOnUse" color-interpolation-filters="sRGB">
<feFlood flood-opacity="0" result="BackgroundImageFix"/>
<feGaussianBlur in="BackgroundImageFix" stdDeviation="7"/>
<feComposite in2="SourceAlpha" operator="in" result="effect1_backgroundBlur_38_9887"/>
<feColorMatrix in="SourceAlpha" type="matrix" values="0 0 0 0 0 0 0 0 0 0 0 0 0 0 0 0 0 0 127 0" result="hardAlpha"/>
<feOffset dx="-21" dy="15"/>
<feGaussianBlur stdDeviation="25"/>
<feComposite in2="hardAlpha" operator="out"/>
<feColorMatrix type="matrix" values="0 0 0 0 0.113438 0 0 0 0 0.148981 0 0 0 0 0.275 0 0 0 0.25 0"/>
<feBlend mode="normal" in2="effect1_backgroundBlur_38_9887" result="effect2_dropShadow_38_9887"/>
<feColorMatrix in="SourceAlpha" type="matrix" values="0 0 0 0 0 0 0 0 0 0 0 0 0 0 0 0 0 0 127 0" result="hardAlpha"/>
<feOffset dy="-7"/>
<feGaussianBlur stdDeviation="20.5"/>
<feComposite in2="hardAlpha" operator="out"/>
<feColorMatrix type="matrix" values="0 0 0 0 0.1375 0 0 0 0 0.74125 0 0 0 0 1 0 0 0 0.3 0"/>
<feBlend mode="normal" in2="effect2_dropShadow_38_9887" result="effect3_dropShadow_38_9887"/>
<feBlend mode="normal" in="SourceGraphic" in2="effect3_dropShadow_38_9887" result="shape"/>
</filter>
<filter id="filter5_bdd_38_9887" x="20.998" y="84.8169" width="144.814" height="127.37" filterUnits="userSpaceOnUse" color-interpolation-filters="sRGB">
<feFlood flood-opacity="0" result="BackgroundImageFix"/>
<feGaussianBlur in="BackgroundImageFix" stdDeviation="7"/>
<feComposite in2="SourceAlpha" operator="in" result="effect1_backgroundBlur_38_9887"/>
<feColorMatrix in="SourceAlpha" type="matrix" values="0 0 0 0 0 0 0 0 0 0 0 0 0 0 0 0 0 0 127 0" result="hardAlpha"/>
<feOffset dx="-21" dy="15"/>
<feGaussianBlur stdDeviation="25"/>
<feComposite in2="hardAlpha" operator="out"/>
<feColorMatrix type="matrix" values="0 0 0 0 0.113438 0 0 0 0 0.148981 0 0 0 0 0.275 0 0 0 0.25 0"/>
<feBlend mode="normal" in2="effect1_backgroundBlur_38_9887" result="effect2_dropShadow_38_9887"/>
<feColorMatrix in="SourceAlpha" type="matrix" values="0 0 0 0 0 0 0 0 0 0 0 0 0 0 0 0 0 0 127 0" result="hardAlpha"/>
<feOffset dy="-7"/>
<feGaussianBlur stdDeviation="20.5"/>
<feComposite in2="hardAlpha" operator="out"/>
<feColorMatrix type="matrix" values="0 0 0 0 0.1375 0 0 0 0 0.74125 0 0 0 0 1 0 0 0 0.3 0"/>
<feBlend mode="normal" in2="effect2_dropShadow_38_9887" result="effect3_dropShadow_38_9887"/>
<feBlend mode="normal" in="SourceGraphic" in2="effect3_dropShadow_38_9887" result="shape"/>
</filter>
<linearGradient id="paint0_linear_38_9887" x1="107.552" y1="36.361" x2="107.552" y2="85.3567" gradientUnits="userSpaceOnUse">
<stop stop-color="white"/>
<stop offset="1" stop-color="white" stop-opacity="0"/>
</linearGradient>
<linearGradient id="paint1_linear_38_9887" x1="104.441" y1="35" x2="104.441" y2="80.2444" gradientUnits="userSpaceOnUse">
<stop stop-color="white"/>
<stop offset="1" stop-color="white" stop-opacity="0"/>
</linearGradient>
<linearGradient id="paint2_linear_38_9887" x1="132.827" y1="28.5839" x2="132.827" y2="119.965" gradientUnits="userSpaceOnUse">
<stop stop-color="white"/>
<stop offset="1" stop-color="white" stop-opacity="0"/>
</linearGradient>
<linearGradient id="paint3_linear_38_9887" x1="132.827" y1="48.6099" x2="132.827" y2="111.215" gradientUnits="userSpaceOnUse">
<stop stop-color="white"/>
<stop offset="1" stop-color="white" stop-opacity="0"/>
</linearGradient>
<linearGradient id="paint4_linear_38_9887" x1="175.408" y1="87.1065" x2="165.686" y2="129.297" gradientUnits="userSpaceOnUse">
<stop stop-color="#FF4D00"/>
<stop offset="1" stop-color="#FFB800"/>
</linearGradient>
<linearGradient id="paint5_linear_38_9887" x1="162.381" y1="128.714" x2="180.074" y2="90.8006" gradientUnits="userSpaceOnUse">
<stop stop-color="white"/>
<stop offset="1" stop-color="white" stop-opacity="0"/>
</linearGradient>
<linearGradient id="paint6_linear_38_9887" x1="174.435" y1="49.9709" x2="174.435" y2="98.9665" gradientUnits="userSpaceOnUse">
<stop stop-color="white"/>
<stop offset="1" stop-color="white" stop-opacity="0"/>
</linearGradient>
<linearGradient id="paint7_linear_38_9887" x1="171.324" y1="48.6099" x2="171.324" y2="93.8542" gradientUnits="userSpaceOnUse">
<stop stop-color="white"/>
<stop offset="1" stop-color="white" stop-opacity="0"/>
</linearGradient>
<linearGradient id="paint8_linear_38_9887" x1="92.7387" y1="110.665" x2="87.0825" y2="129.26" gradientUnits="userSpaceOnUse">
<stop stop-color="#138EFF"/>
<stop offset="1" stop-color="#00E0FF"/>
</linearGradient>
<linearGradient id="paint9_linear_38_9887" x1="92.7387" y1="110.665" x2="87.0825" y2="129.26" gradientUnits="userSpaceOnUse">
<stop stop-color="white"/>
<stop offset="1" stop-color="white" stop-opacity="0"/>
</linearGradient>
<linearGradient id="paint10_linear_38_9887" x1="115.101" y1="110.665" x2="109.445" y2="129.26" gradientUnits="userSpaceOnUse">
<stop stop-color="#138EFF"/>
<stop offset="1" stop-color="#00E0FF"/>
</linearGradient>
<linearGradient id="paint11_linear_38_9887" x1="115.101" y1="110.665" x2="109.445" y2="129.26" gradientUnits="userSpaceOnUse">
<stop stop-color="white"/>
<stop offset="1" stop-color="white" stop-opacity="0"/>
</linearGradient>
<linearGradient id="paint12_linear_38_9887" x1="137.462" y1="110.665" x2="131.806" y2="129.26" gradientUnits="userSpaceOnUse">
<stop stop-color="#138EFF"/>
<stop offset="1" stop-color="#00E0FF"/>
</linearGradient>
<linearGradient id="paint13_linear_38_9887" x1="137.462" y1="110.665" x2="131.806" y2="129.26" gradientUnits="userSpaceOnUse">
<stop stop-color="white"/>
<stop offset="1" stop-color="white" stop-opacity="0"/>
</linearGradient>
<linearGradient id="paint14_linear_38_9887" x1="101.293" y1="128.366" x2="95.6372" y2="146.961" gradientUnits="userSpaceOnUse">
<stop stop-color="#138EFF"/>
<stop offset="1" stop-color="#00E0FF"/>
</linearGradient>
<linearGradient id="paint15_linear_38_9887" x1="101.293" y1="128.366" x2="95.6372" y2="146.961" gradientUnits="userSpaceOnUse">
<stop stop-color="white"/>
<stop offset="1" stop-color="white" stop-opacity="0"/>
</linearGradient>
<linearGradient id="paint16_linear_38_9887" x1="123.847" y1="128.366" x2="118.191" y2="146.961" gradientUnits="userSpaceOnUse">
<stop stop-color="#138EFF"/>
<stop offset="1" stop-color="#00E0FF"/>
</linearGradient>
<linearGradient id="paint17_linear_38_9887" x1="123.847" y1="128.366" x2="118.191" y2="146.961" gradientUnits="userSpaceOnUse">
<stop stop-color="white"/>
<stop offset="1" stop-color="white" stop-opacity="0"/>
</linearGradient>
</defs>
</svg>
